<?xml version="1.0" encoding="utf-8"?>
<!DOCTYPE svg PUBLIC "-//W3C//DTD SVG 1.1//EN" "http://www.w3.org/Graphics/SVG/1.1/DTD/svg11.dtd">
<svg style="width:308px;height:308px;" version="1.1" id="图形" xmlns="http://www.w3.org/2000/svg" xmlns:xlink="http://www.w3.org/1999/xlink" x="0px" y="0px" width="1024px" height="1024px" viewBox="0 0 1024 1024" enable-background="new 0 0 1024 1024" xml:space="preserve">
  <path class="svgpath" data-index="path_0" fill="#272636" d="M935.357217 165.754435 772.674783 165.754435c-8.347826-5.89913-27.358609-29.45113-40.225391-45.345391-42.429217-52.513391-72.592696-86.950957-104.247652-86.950957L387.472696 33.458087c-31.187478 0-63.265391 34.170435-108.633043 86.305391-14.981565 17.207652-35.194435 40.425739-43.831652 45.968696L88.665043 165.732174C39.780174 165.754435 0 205.534609 0 254.464l0 647.41287c0 48.88487 39.780174 88.665043 88.665043 88.665043l846.692174 0c48.88487 0 88.642783-39.780174 88.642783-88.665043L1024 254.464C1024 205.534609 984.219826 165.754435 935.357217 165.754435zM979.478261 901.87687c0 24.33113-19.789913 44.143304-44.121043 44.143304L88.665043 946.020174C64.333913 946.020174 44.521739 926.208 44.521739 901.87687L44.521739 254.464c0-24.353391 19.812174-44.187826 44.143304-44.187826l149.414957 0c20.168348 0 37.353739-18.788174 74.329043-61.261913 19.70087-22.617043 60.66087-69.676522 75.063652-71.012174l240.595478 0c14.09113 1.491478 51.689739 48.038957 69.765565 70.41113 33.769739 41.783652 50.910609 61.885217 71.501913 61.885217l166.021565 0c24.33113 0 44.121043 19.834435 44.121043 44.187826L979.478261 901.87687z" />
<path class="svgpath" data-index="path_1" fill="#272636" d="M512 331.753739c-122.12313 0-221.473391 99.372522-221.473391 221.495652 0 122.12313 99.350261 221.473391 221.473391 221.473391 71.078957 0 138.351304-34.482087 179.912348-92.271304 7.190261-9.97287 4.919652-23.885913-5.075478-31.076174-9.97287-7.190261-23.885913-4.897391-31.076174 5.075478-33.235478 46.169043-86.973217 73.750261-143.782957 73.750261-97.569391 0-176.951652-79.382261-176.951652-176.951652 0-97.591652 79.382261-176.973913 176.951652-176.973913 97.569391 0 176.929391 79.382261 176.929391 176.973913 0 12.288 9.97287 22.26087 22.26087 22.26087s22.26087-9.97287 22.26087-22.26087C733.45113 431.126261 634.10087 331.753739 512 331.753739z" />

</svg>
