<?xml version="1.0" encoding="utf-8"?>
<!DOCTYPE svg PUBLIC "-//W3C//DTD SVG 1.1//EN" "http://www.w3.org/Graphics/SVG/1.1/DTD/svg11.dtd">
<svg style="width:308px;height:308px;" version="1.1" id="图形" xmlns="http://www.w3.org/2000/svg" xmlns:xlink="http://www.w3.org/1999/xlink" x="0px" y="0px" width="1024px" height="1024px" viewBox="0 0 1024 1024" enable-background="new 0 0 1024 1024" xml:space="preserve">
  <path class="svgpath" data-index="path_0" fill="#272636" d="M430.381098 667.972331l-306.070884 0c4.236488-73.02313 101.726869-62.390979 115.254977-100.253308 1.13587-12.96529 0.716314-22.001083 0.716314-33.850969-5.658883-3.090385-16.178471-22.717398-17.877159-39.305191-4.461615-0.36839-11.420097-4.860704-13.487176-22.655999-1.115404-9.547447 3.284813-14.909571 5.935176-16.587793-14.981203-60.068074-6.753821-112.502283 61.797461-113.822348 17.089214 0 30.259164 4.748141 35.406394 14.142092 49.998741 7.234775 34.966373 77.095889 27.77253 99.680257 2.650363 1.678222 7.040347 7.040347 5.945409 16.587793-2.077312 17.795295-9.046027 22.287609-13.497409 22.655999-1.729387 16.587793-11.82942 36.214806-17.467837 39.305191 0 11.849886-0.419556 20.88568 0.695848 33.850969C329.053318 605.581352 426.154843 594.9492 430.381098 667.972331z" />
<path class="svgpath" data-index="path_1" fill="#272636" d="M920.15591 443.520349c0 11.307533-9.15859 20.466124-20.466124 20.466124l-367.285061 0c-11.307533 0-20.466124-9.15859-20.466124-20.466124 0-11.2973 9.15859-20.466124 20.466124-20.466124l367.285061 0C910.99732 423.054225 920.15591 432.223049 920.15591 443.520349z" />
<path class="svgpath" data-index="path_2" fill="#272636" d="M920.15591 545.543977c0 11.307533-9.15859 20.466124-20.466124 20.466124l-367.285061 0c-11.307533 0-20.466124-9.15859-20.466124-20.466124 0-11.2973 9.15859-20.466124 20.466124-20.466124l367.285061 0C910.99732 525.077853 920.15591 534.246677 920.15591 545.543977z" />
<path class="svgpath" data-index="path_3" fill="#272636" d="M920.15591 647.567605c0 11.307533-9.15859 20.466124-20.466124 20.466124l-367.285061 0c-11.307533 0-20.466124-9.15859-20.466124-20.466124 0-11.2973 9.15859-20.466124 20.466124-20.466124l367.285061 0C910.99732 627.101481 920.15591 636.270305 920.15591 647.567605z" />
<path class="svgpath" data-index="path_4" fill="#272636" d="M1022.189771 259.877819l0 571.34255c0 33.779338-27.496238 61.275575-61.275575 61.275575l-81.629135 0c-11.2973 0-20.466124-9.168824-20.466124-20.466124 0-11.307533 9.168824-20.466124 20.466124-20.466124l81.629135 0c11.215436 0 20.343327-9.127891 20.343327-20.343327l0-571.34255c0-11.215436-9.127891-20.343327-20.343327-20.343327l-448.914196 0c-11.307533 0-20.466124-9.15859-20.466124-20.466124l0-40.809451c0-11.215436-9.127891-20.343327-20.343327-20.343327L63.085804 157.915589c-11.215436 0-20.343327 9.127891-20.343327 20.343327l0 652.961452c0 11.215436 9.127891 20.343327 20.343327 20.343327l101.972463 0 0-61.152778c0-11.307533 9.15859-20.466124 20.466124-20.466124l81.618902 0c11.2973 0 20.466124 9.15859 20.466124 20.466124 0 11.2973-9.168824 20.466124-20.466124 20.466124l-61.152778 0 0 61.152778c0 11.2973-9.168824 20.466124-20.466124 20.466124L63.085804 892.495944c-33.779338 0-61.275575-27.496238-61.275575-61.275575l0-652.961452c0-33.789571 27.496238-61.275575 61.275575-61.275575l408.104745 0c33.789571 0 61.275575 27.486004 61.275575 61.275575l0 20.343327 428.448072 0C994.693534 198.602244 1022.189771 226.088248 1022.189771 259.877819z" />
<path class="svgpath" data-index="path_5" fill="#272636" d="M858.941734 790.410917c0 11.2973-9.15859 20.466124-20.466124 20.466124l-61.152778 0 0 61.152778c0 11.2973-9.15859 20.466124-20.466124 20.466124l-448.903963 0c-11.307533 0-20.466124-9.168824-20.466124-20.466124 0-11.307533 9.15859-20.466124 20.466124-20.466124l428.437839 0 0-61.152778c0-11.307533 9.168824-20.466124 20.466124-20.466124l81.618902 0C849.783143 769.944793 858.941734 779.103384 858.941734 790.410917z" />

</svg>
