<?xml version="1.0" encoding="utf-8"?>
<!DOCTYPE svg PUBLIC "-//W3C//DTD SVG 1.1//EN" "http://www.w3.org/Graphics/SVG/1.1/DTD/svg11.dtd">
<svg style="width:308px;height:308px;" version="1.1" id="图形" xmlns="http://www.w3.org/2000/svg" xmlns:xlink="http://www.w3.org/1999/xlink" x="0px" y="0px" width="1024px" height="1024px" viewBox="0 0 1024 1024" enable-background="new 0 0 1024 1024" xml:space="preserve">
  <path class="svgpath" data-index="path_0" fill="#272636" d="M544 496l464 0c8.848 0 16-7.152 16-16C1024 214.912 809.088 0 544 0c-8.848 0-16 7.152-16 16l0 464C528 488.848 535.152 496 544 496zM560 32.4C794.672 40.656 983.344 229.312 991.6 464L560 464 560 32.4z" />
<path class="svgpath" data-index="path_1" fill="#272636" d="M1008 528 576 528c-0.704 0-1.312 0.304-2 0.384-1.344 0.176-2.688 0.304-3.968 0.8-1.248 0.496-2.288 1.344-3.344 2.128-0.576 0.432-1.264 0.656-1.792 1.152-0.032 0.032-0.048 0.096-0.08 0.128-1.376 1.344-2.432 2.96-3.248 4.72-0.064 0.144-0.224 0.256-0.288 0.4-0.256 0.608-0.24 1.344-0.416 2-0.368 1.344-0.816 2.704-0.832 4.096L560 544c0 0.848 0.352 1.6 0.496 2.432 0.192 1.184 0.256 2.368 0.704 3.504 0.56 1.408 1.472 2.56 2.384 3.728 0.336 0.448 0.496 1.008 0.912 1.424l0.16 0.16c0.016 0.032 0.032 0.048 0.064 0.064l299.872 310.544c1.184 1.232 2.624 2.016 4.064 2.8l14.752 14.752C970.288 796.544 1024 676.544 1024 544l0 0C1024 535.152 1016.848 528 1008 528zM882.016 837.84 613.696 560l377.888 0C987.856 666.192 947.2 762.928 882.016 837.84z" />
<path class="svgpath" data-index="path_2" fill="#272636" d="M797.232 860.72c0 0-275.696-296.368-291.392-312.064C496.192 539.008 496 521.68 496 521.68L496 80c0-8.848-7.152-16-16-16C214.912 64 0 278.912 0 544s214.912 480 480 480c132.544 0 252.544-53.712 339.408-140.592l-21.36-21.36C797.728 861.632 797.616 861.12 797.232 860.72zM480 992C232.576 992 32 791.424 32 544 32 301.936 224 104.848 464 96.4c0 0 0 417.088 0 431.6s5.488 28.96 16.256 39.712 293.312 314.528 293.312 314.528C694.944 950.56 592.336 992 480 992z" />

</svg>
