<?xml version="1.0" encoding="utf-8"?>
<!DOCTYPE svg PUBLIC "-//W3C//DTD SVG 1.1//EN" "http://www.w3.org/Graphics/SVG/1.1/DTD/svg11.dtd">
<svg style="width:308px;height:308px;" version="1.1" id="图形" xmlns="http://www.w3.org/2000/svg" xmlns:xlink="http://www.w3.org/1999/xlink" x="0px" y="0px" width="1024px" height="1024px" viewBox="0 0 1024 1024" enable-background="new 0 0 1024 1024" xml:space="preserve">
  <path class="svgpath" data-index="path_0" fill="#272636" d="M882.60914 105.688041 142.119489 105.688041c-35.637324 0-64.626933 28.990632-64.626933 64.627956l0 534.798309c0 35.633231 28.990632 64.62284 64.626933 64.62284l305.619939 0 0 117.582499-99.928597 0c-12.973075 0-23.48498 10.515999-23.48498 23.48498 0 12.973075 10.511905 23.48498 23.48498 23.48498l329.109013 0c12.973075 0 23.48498-10.511905 23.48498-23.48498 0-12.968982-10.511905-23.48498-23.48498-23.48498l-99.928597 0L576.991248 769.737146l305.618916 0c35.633231 0 64.623863-28.988585 64.623863-64.62284L947.234027 170.311904C947.233003 134.678672 918.243395 105.688041 882.60914 105.688041L882.60914 105.688041zM142.119489 152.663118l740.489652 0c9.733132 0 17.652879 7.915653 17.652879 17.652879l0 429.033517L124.467633 599.349514 124.467633 170.311904C124.467633 160.578771 132.38431 152.663118 142.119489 152.663118L142.119489 152.663118zM530.01617 887.319645 494.709389 887.319645 494.709389 769.737146l35.306781 0L530.01617 887.319645 530.01617 887.319645zM882.60914 722.764115 142.119489 722.764115c-9.736202 0-17.651855-7.9177-17.651855-17.648785l0-58.790738 775.795409 0 0 58.790738C900.263042 714.846415 892.345342 722.764115 882.60914 722.764115L882.60914 722.764115z" />

</svg>
