<?xml version="1.0" encoding="utf-8"?>
<!DOCTYPE svg PUBLIC "-//W3C//DTD SVG 1.1//EN" "http://www.w3.org/Graphics/SVG/1.1/DTD/svg11.dtd">
<svg style="width:308px;height:308px;" version="1.1" id="图形" xmlns="http://www.w3.org/2000/svg" xmlns:xlink="http://www.w3.org/1999/xlink" x="0px" y="0px" width="1024px" height="1024px" viewBox="0 0 1024 1024" enable-background="new 0 0 1024 1024" xml:space="preserve">
  <path class="svgpath" data-index="path_0" fill="#272636" d="M431.248861 399.524323c-4.27742 0-8.553817-1.632173-11.81714-4.895497l-73.92671-73.92671c-6.526647-6.525624-6.526647-17.107633 0-23.63428 6.526647-6.526647 17.108656-6.526647 23.63428 0l73.92671 73.92671c6.526647 6.525624 6.526647 17.107633 0 23.63428C439.802678 397.892149 435.525258 399.524323 431.248861 399.524323z" />
<path class="svgpath" data-index="path_1" fill="#272636" d="M592.432891 399.524323c-4.27742 0-8.552793-1.63115-11.81714-4.895497-6.526647-6.525624-6.526647-17.107633 0-23.63428l73.92671-73.92671c6.52767-6.525624 17.108656-6.525624 23.63428 0 6.526647 6.526647 6.526647 17.107633 0 23.63428l-73.92671 73.92671C600.98773 397.892149 596.709287 399.524323 592.432891 399.524323z" />
<path class="svgpath" data-index="path_2" fill="#272636" d="M684.116009 438.916495l-346.737072 0c-9.230222 0-16.712637-7.482415-16.712637-16.712637s7.482415-16.712637 16.712637-16.712637l346.737072 0c9.230222 0 16.711614 7.482415 16.711614 16.712637S693.346231 438.916495 684.116009 438.916495z" />
<path class="svgpath" data-index="path_3" fill="#272636" d="M684.116009 564.300156l-346.737072 0c-9.230222 0-16.712637-7.482415-16.712637-16.711614 0-9.230222 7.482415-16.711614 16.712637-16.711614l346.737072 0c9.230222 0 16.711614 7.482415 16.711614 16.711614C700.827623 556.818765 693.346231 564.300156 684.116009 564.300156z" />
<path class="svgpath" data-index="path_4" fill="#272636" d="M510.49267 707.098443c-9.230222 0-16.712637-7.482415-16.712637-16.711614L493.780033 423.74905c0-9.230222 7.482415-16.712637 16.712637-16.712637s16.711614 7.482415 16.711614 16.712637L527.204283 690.38683C527.204283 699.617052 519.722892 707.098443 510.49267 707.098443z" />
<path class="svgpath" data-index="path_5" fill="#272636" d="M794.736433 806.935266c-3.361561 0-6.755868-1.011027-9.699919-3.114944-33.923624-24.230867-85.456301-22.827915-85.968977-22.805402-0.184195 0.00614-0.396019 0.010233-0.579191 0.010233L138.65492 781.025153c-32.193213 0-59.115376-22.744004-65.191768-53.931307-18.955724-8.048303-28.563546-21.979594-28.563546-41.434691l0-45.842071c0-13.859659 4.871961-24.913413 14.525831-33.035394-9.652847-8.123005-14.525831-19.176758-14.525831-33.032324l0-45.841048c0-13.858636 4.874007-24.914436 14.525831-33.035394-9.653871-8.123005-14.525831-19.176758-14.525831-33.032324l0-45.842071c0-13.858636 4.874007-24.913413 14.525831-33.035394-9.653871-8.123005-14.525831-19.176758-14.525831-33.032324l0-45.842071c0-19.964704 10.114358-34.109866 30.05962-42.050722 0.066515-0.12689 0.140193-0.26913 0.220011-0.428765 8.121981-28.993335 33.983999-49.095161 63.47466-49.095161l741.232868 0c28.007891 0 52.29504 17.514909 61.916165 44.099381 0.461511 0.733711 0.86981 1.508353 1.216711 2.319835 0.431835 1.006933 0.775666 1.723248 1.030469 2.216481 20.002566 7.93267 30.144554 22.089088 30.144554 42.084491l0 45.842071c0 13.856589-4.872984 24.910343-14.523785 33.032324 9.651824 8.120958 14.523785 19.175735 14.523785 33.035394l0 45.842071c0 13.856589-4.872984 24.910343-14.523785 33.032324 9.651824 8.120958 14.523785 19.175735 14.523785 33.035394l0 45.842071c0 13.856589-4.872984 24.910343-14.524808 33.032324 9.651824 8.120958 14.524808 19.175735 14.524808 33.035394l0 45.842071c0 19.620873-9.768481 33.620725-29.043477 41.636283-5.830799 31.487132-32.967856 54.584176-65.264423 54.584176l-29.17139 0c-9.230222 0-16.711614-7.482415-16.711614-16.711614s7.482415-16.711614 16.711614-16.711614l29.17139 0c16.963347 0 31.069623-12.95301 32.81129-30.130228 0.217964-2.142803 0.847298-4.224208 1.854231-6.127558 4.187369-7.915273 9.091052-12.385075 16.923438-15.425318 8.453533-3.287883 9.29469-5.78475 9.29469-11.113105l0-45.842071c0-5.329379-0.841158-7.826246-9.302877-11.116175-5.395894-2.101871-11.050684-5.185093-15.906272-13.467733-3.057639-5.218862-3.058662-11.68104-0.001023-16.898879 4.857635-8.292873 10.517541-11.375072 15.911388-13.469779 8.457626-3.289929 9.298783-5.786797 9.298783-11.115152l0-45.842071c0-5.329379-0.841158-7.826246-9.302877-11.116175-5.395894-2.101871-11.050684-5.185093-15.905248-13.46671-3.058662-5.217838-3.059686-11.68104-0.00307-16.898879 4.856611-8.29185 10.516518-11.374048 15.910365-13.470803 8.459672-3.290953 9.30083-5.78782 9.30083-11.116175l0-45.842071c0-5.329379-0.841158-7.826246-9.302877-11.116175-5.395894-2.101871-11.050684-5.185093-15.906272-13.467733-3.057639-5.217838-3.058662-11.680017-0.001023-16.898879 4.856611-8.290827 10.516518-11.373025 15.909341-13.468756 8.459672-3.289929 9.30083-5.78782 9.30083-11.116175l0-45.842071c0-5.329379-0.841158-7.826246-9.302877-11.117199-7.918343-3.081175-12.726859-7.291057-16.899902-15.213493-1.52575-1.794879-2.683109-3.925403-3.348258-6.2831-4.167926-14.763239-16.759709-24.682146-31.333636-24.682146L138.65492 245.938342c-14.976086 0-27.643594 10.269901-31.521924 25.556049-0.242524 0.955768-0.568958 1.888-0.975211 2.785439-4.545526 10.033517-9.740852 15.274892-18.531052 18.692734-8.461719 3.289929-9.302877 5.786797-9.302877 11.116175l0 45.842071c0 5.328355 0.842181 7.825222 9.304923 11.118222 4.403287 1.709945 10.090822 4.64274 14.9679 12.173251 1.7519 2.705622 2.685155 5.860475 2.685155 9.083889l0 1.314948c0 3.225461-0.933255 6.381337-2.687202 9.087982-4.874007 7.521301-10.555403 10.455119-14.960737 12.170181-8.467859 3.292999-9.31004 5.79089-9.31004 11.119245l0 45.842071c0 5.328355 0.842181 7.825222 9.304923 11.118222 4.403287 1.709945 10.090822 4.64274 14.9679 12.173251 1.7519 2.705622 2.685155 5.860475 2.685155 9.083889l0 1.314948c0 3.225461-0.933255 6.381337-2.687202 9.087982-4.875031 7.523347-10.55745 10.456143-14.962783 12.171204-8.465812 3.291976-9.307993 5.789866-9.307993 11.119245l0 45.841048c0 5.328355 0.842181 7.825222 9.304923 11.117199 4.405333 1.713015 10.092869 4.64581 14.968923 12.174274 1.7519 2.706645 2.684132 5.861498 2.684132 9.083889l0 1.313925c0 3.225461-0.934279 6.382361-2.688225 9.089006-4.874007 7.522324-10.555403 10.455119-14.960737 12.170181-8.467859 3.292999-9.31004 5.789866-9.31004 11.119245l0 45.842071c0 5.328355 0.842181 7.825222 9.304923 11.117199 5.389754 2.096754 11.04966 5.180999 15.914458 13.490246 1.235131 2.109034 1.992377 4.462638 2.219551 6.897084 1.614777 17.352203 15.754822 30.438243 32.892131 30.438243L698.226379 747.602949c5.568832-0.166799 64.126506-1.058099 106.23658 29.020964 7.511067 5.364171 9.250688 15.801894 3.885494 23.311939C805.088198 804.501844 799.949154 806.934243 794.736433 806.935266z" />

</svg>
