<?xml version="1.0" encoding="utf-8"?>
<!DOCTYPE svg PUBLIC "-//W3C//DTD SVG 1.1//EN" "http://www.w3.org/Graphics/SVG/1.1/DTD/svg11.dtd">
<svg style="width:308px;height:308px;" version="1.1" id="图形" xmlns="http://www.w3.org/2000/svg" xmlns:xlink="http://www.w3.org/1999/xlink" x="0px" y="0px" width="1024px" height="1024px" viewBox="0 0 1024 1024" enable-background="new 0 0 1024 1024" xml:space="preserve">
  <path class="svgpath" data-index="path_0" fill="#272636" d="M525.269211 510.837524 918.101111 116.227118c7.17747-7.209192 7.14984-18.871813-0.059352-26.049283-7.210215-7.176446-18.87079-7.151887-26.049283 0.059352L499.278257 484.72889 106.563014 90.236164c-7.17747-7.209192-18.84009-7.235798-26.049283-0.059352-7.209192 7.17747-7.235798 18.84009-0.059352 26.049283L473.287303 510.837524 80.45438 905.446907c-7.176446 7.209192-7.150864 18.871813 0.059352 26.049283 3.593851 3.577478 8.29492 5.365194 12.994965 5.365194 4.727675 0 9.455349-1.809205 13.054317-5.424546l392.715243-394.491703 392.715243 394.491703c3.599991 3.615341 8.326643 5.424546 13.054317 5.424546 4.700045 0 9.402137-1.787716 12.994965-5.365194 7.209192-7.17747 7.235798-18.84009 0.059352-26.049283L525.269211 510.837524z" />

</svg>
