<?xml version="1.0" encoding="utf-8"?>
<!DOCTYPE svg PUBLIC "-//W3C//DTD SVG 1.1//EN" "http://www.w3.org/Graphics/SVG/1.1/DTD/svg11.dtd">
<svg style="width:308px;height:308px;" version="1.1" id="图形" xmlns="http://www.w3.org/2000/svg" xmlns:xlink="http://www.w3.org/1999/xlink" x="0px" y="0px" width="1024px" height="1024px" viewBox="0 0 1024 1024" enable-background="new 0 0 1024 1024" xml:space="preserve">
  <path class="svgpath" data-index="path_0" fill="#272636" d="M997.292032 328.418304C988.827648 188.02176 878.701568 78.2848 746.55232 78.2848c-112 0-202.761216 61.18912-237.196288 151.202816C474.930176 139.455488 384.219136 78.2848 272.205824 78.2848c-132.149248 0-242.275328 109.73696-250.739712 250.134528C18.71872 369.997824 7.72096 677.29408 367.52896 886.646784c0 0 89.645056 49.362944 141.587456 62.532608l0 0.136192c0.08704-0.021504 0.176128-0.04608 0.263168-0.067584 0.08704 0.021504 0.176128 0.04608 0.263168 0.067584l0-0.136192c51.941376-13.16864 141.587456-62.532608 141.587456-62.532608C1011.03616 677.29408 1000.039424 369.997824 997.292032 328.418304z" />

</svg>
