<?xml version="1.0" encoding="utf-8"?>
<!DOCTYPE svg PUBLIC "-//W3C//DTD SVG 1.1//EN" "http://www.w3.org/Graphics/SVG/1.1/DTD/svg11.dtd">
<svg style="width:308px;height:308px;" version="1.1" id="图形" xmlns="http://www.w3.org/2000/svg" xmlns:xlink="http://www.w3.org/1999/xlink" x="0px" y="0px" width="1024px" height="1024px" viewBox="0 0 1024 1024" enable-background="new 0 0 1024 1024" xml:space="preserve">
  <path class="svgpath" data-index="path_0" fill="#272636" d="M515.418866 941.473425c-23.470551 0-39.913035-7.281847-43.553958-9.048073-106.189508-47.720861-195.336874-107.882056-264.965697-178.811502-56.536644-57.592696-100.481506-122.461099-130.61378-192.799074C27.583219 447.122387 29.454846 353.775372 31.188326 327.873446l0.034792-0.524956c4.0175-66.562998 31.084972-128.850623 76.218916-175.386496 46.775326-48.228421 108.936061-74.789357 175.032432-74.789357 67.986417 0 131.027196 22.829961 177.512926 64.285119 25.230638 22.500457 44.542472 49.684586 57.241702 79.978543 12.915148-29.825282 32.257681-56.700373 57.362452-79.124082C621.63191 100.293217 684.749436 77.175707 752.388952 77.175707c0.257873 0 0.512676 0 0.769526 0.001023 66.093301 0.168846 128.184451 26.888394 174.835957 75.237565 45.01217 46.651506 71.922053 109.006669 75.769684 175.578878l0.032746 0.515746c1.882883 29.288047 5.505387 183.514617-108.422362 343.918887-5.889127 8.293897-17.386996 10.244318-25.682939 4.351098-8.293897-5.89015-10.242272-17.389042-4.351098-25.682939 106.724697-150.263305 103.435791-293.112758 101.6931-320.223209l-0.047072-0.753153c-3.340071-57.784054-26.602891-111.809505-65.503876-152.126746-39.670511-41.113373-92.378967-63.834864-148.419308-63.978127-0.223081 0-0.449231-0.001023-0.672312-0.001023-58.577117 0-112.979144 19.791765-153.258523 55.771211-41.055045 36.672224-63.74379 87.62264-63.886029 143.464459-0.024559 9.608845-7.43125 17.58347-17.010419 18.318204-9.578146 0.726547-18.116613-6.01704-19.605523-15.510252l-0.302899-1.929955c-0.149403-0.944512-0.223081-1.899256-0.223081-2.855024 0-28.656667-5.66707-55.691393-16.842597-80.354096-10.661827-23.527856-26.069749-44.376697-45.793976-61.96733-39.727817-35.428907-94.062306-54.940286-152.993486-54.940286-56.042387 0-108.811218 22.586414-148.588153 63.59848-39.003316 40.215934-62.404282 94.182033-65.891709 151.956877l-0.050142 0.76748c-1.595334 23.829731-3.266393 109.831454 42.203194 215.97389 28.323069 66.116837 69.719898 127.182634 123.039267 181.497681 66.465784 67.708078 151.942551 125.289518 254.057253 171.142845 0.428765 0.192382 0.546446 0.23843 0.924045 0.445138 1.979074 0.955768 26.28669 12.0832 58.224076-1.073448 82.381266-36.763298 154.274666-81.341586 213.68987-132.502803 0.031722-0.026606 0.064468-0.055259 0.097214-0.081864 2.167363-1.840928 53.79009-45.166689 115.318422-53.369511 10.093892-1.346671 19.34765 5.739724 20.692275 15.823384 1.344624 10.083659-5.739724 19.34765-15.823384 20.692275-50.39169 6.719028-94.961792 43.774993-96.315626 44.912909-62.175061 53.523007-137.16294 100.044554-222.884276 138.27425-0.146333 0.064468-0.293689 0.128937-0.443092 0.191358C544.082696 939.163823 528.636912 941.473425 515.418866 941.473425z" />

</svg>
