<?xml version="1.0" encoding="utf-8"?>
<!DOCTYPE svg PUBLIC "-//W3C//DTD SVG 1.1//EN" "http://www.w3.org/Graphics/SVG/1.1/DTD/svg11.dtd">
<svg style="width:308px;height:308px;" version="1.1" id="图形" xmlns="http://www.w3.org/2000/svg" xmlns:xlink="http://www.w3.org/1999/xlink" x="0px" y="0px" width="1024px" height="1024px" viewBox="0 0 1024 1024" enable-background="new 0 0 1024 1024" xml:space="preserve">
  <path class="svgpath" data-index="path_0" fill="#272636" d="M510.2592 304.9472c-9.9328 0-17.92 8.0896-17.92 17.92l0 470.3232c0 9.9328 8.0896 17.92 17.92 17.92 9.9328 0 17.92-8.0896 17.92-17.92L528.1792 322.8672C528.2816 312.9344 520.192 304.9472 510.2592 304.9472z" />
<path class="svgpath" data-index="path_1" fill="#272636" d="M510.2592 208.7936c-9.9328 0-17.92 8.0896-17.92 17.92l0 12.3904c0 9.9328 8.0896 17.92 17.92 17.92 9.9328 0 17.92-8.0896 17.92-17.92l0-12.3904C528.2816 216.8832 520.192 208.7936 510.2592 208.7936z" />
<path class="svgpath" data-index="path_2" fill="#272636" d="M967.4752 316.8256c-24.9856-59.0848-60.7232-112.128-106.2912-157.696-45.568-45.568-98.6112-81.3056-157.696-106.2912-61.1328-25.9072-126.1568-39.0144-193.1264-39.0144-66.9696 0-131.9936 13.1072-193.1264 39.0144C258.048 77.824 205.0048 113.5616 159.4368 159.1296c-45.568 45.568-81.3056 98.6112-106.2912 157.696C27.2384 378.0608 14.1312 442.9824 14.1312 509.952c0 66.9696 13.1072 131.9936 39.0144 193.1264 24.9856 59.0848 60.7232 112.128 106.2912 157.696 45.568 45.568 98.6112 81.3056 157.696 106.2912 61.1328 25.9072 126.1568 39.0144 193.1264 39.0144 66.9696 0 131.9936-13.1072 193.1264-39.0144 59.0848-24.9856 112.128-60.7232 157.696-106.2912 45.568-45.568 81.3056-98.6112 106.2912-157.696 25.9072-61.1328 39.0144-126.1568 39.0144-193.1264C1006.3872 442.9824 993.28 378.0608 967.4752 316.8256zM934.2976 689.152c-23.1424 54.784-56.32 104.0384-98.6112 146.3296s-91.4432 75.4688-146.3296 98.6112c-56.7296 23.9616-117.0432 36.1472-179.0976 36.1472s-122.368-12.1856-179.0976-36.1472c-54.784-23.1424-104.0384-56.32-146.3296-98.6112S109.3632 743.936 86.2208 689.152C62.2592 632.4224 50.0736 572.1088 50.0736 509.952c0-62.1568 12.1856-122.368 36.1472-179.0976 23.1424-54.784 56.32-104.0384 98.6112-146.3296s91.4432-75.4688 146.3296-98.6112c56.7296-23.9616 117.0432-36.1472 179.0976-36.1472s122.368 12.1856 179.0976 36.1472c54.784 23.1424 104.0384 56.32 146.3296 98.6112s75.4688 91.4432 98.6112 146.3296c23.9616 56.7296 36.1472 117.0432 36.1472 179.0976C970.5472 572.1088 958.3616 632.4224 934.2976 689.152z" />

</svg>
