<?xml version="1.0" encoding="utf-8"?>
<!DOCTYPE svg PUBLIC "-//W3C//DTD SVG 1.1//EN" "http://www.w3.org/Graphics/SVG/1.1/DTD/svg11.dtd">
<svg style="width:308px;height:308px;" version="1.1" id="图形" xmlns="http://www.w3.org/2000/svg" xmlns:xlink="http://www.w3.org/1999/xlink" x="0px" y="0px" width="1024px" height="1024px" viewBox="0 0 1024 1024" enable-background="new 0 0 1024 1024" xml:space="preserve">
  <path class="svgpath" data-index="path_0" fill="#272636" d="M977.066667 821.333333 977.066667 821.333333l-83.2-125.866667C896 691.2 896 686.933333 896 682.666667L896 213.333333c0-23.466667-19.2-42.666667-42.666667-42.666667L170.666667 170.666667c-23.466667 0-42.666667 19.2-42.666667 42.666667l0 469.333333c0 4.266667 0 8.533333 2.133333 12.8l-83.2 125.866667 0 0C44.8 823.466667 42.666667 827.733333 42.666667 832c0 12.8 8.533333 21.333333 21.333333 21.333333l896 0c12.8 0 21.333333-8.533333 21.333333-21.333333C981.333333 827.733333 979.2 823.466667 977.066667 821.333333zM170.666667 213.333333l682.666667 0 0 469.333333L170.666667 682.666667 170.666667 213.333333zM104.533333 810.666667l57.6-87.466667C164.266667 725.333333 168.533333 725.333333 170.666667 725.333333l682.666667 0c2.133333 0 6.4 0 8.533333-2.133333l57.6 87.466667L104.533333 810.666667z" />

</svg>
