<?xml version="1.0" encoding="utf-8"?>
<!DOCTYPE svg PUBLIC "-//W3C//DTD SVG 1.1//EN" "http://www.w3.org/Graphics/SVG/1.1/DTD/svg11.dtd">
<svg style="width:308px;height:308px;" version="1.1" id="图形" xmlns="http://www.w3.org/2000/svg" xmlns:xlink="http://www.w3.org/1999/xlink" x="0px" y="0px" width="1171px" height="1024px" viewBox="0 0 1171 1024" enable-background="new 0 0 1171 1024" xml:space="preserve">
  <path class="svgpath" data-index="path_0" fill="#272636" d="M195.047619 121.904762C195.047619 162.272677 162.272677 195.047619 121.904762 195.047619 81.476771 195.047619 48.761905 162.310144 48.761905 121.904762 48.761905 81.499379 81.476771 48.761905 121.904762 48.761905 162.272677 48.761905 195.047619 81.536847 195.047619 121.904762L195.047619 121.904762ZM243.809524 121.904762C243.809524 54.606391 189.203133 0 121.904762 0 54.538771 0 0 54.576462 0 121.904762 0 189.233062 54.538771 243.809524 121.904762 243.809524 189.203133 243.809524 243.809524 189.203133 243.809524 121.904762L243.809524 121.904762Z" />
<path class="svgpath" data-index="path_1" fill="#272636" d="M417.85539 142.760229 1145.91939 142.760229C1159.38462 142.760229 1170.300343 131.844504 1170.300343 118.379276 1170.300343 104.914048 1159.38462 93.998324 1145.91939 93.998324L417.85539 93.998324C404.390163 93.998324 393.474438 104.914048 393.474438 118.379276 393.474438 131.844504 404.390163 142.760229 417.85539 142.760229L417.85539 142.760229Z" />
<path class="svgpath" data-index="path_2" fill="#272636" d="M195.047619 512C195.047619 552.367913 162.272677 585.142857 121.904762 585.142857 81.476771 585.142857 48.761905 552.405382 48.761905 512 48.761905 471.594617 81.476771 438.857143 121.904762 438.857143 162.272677 438.857143 195.047619 471.632085 195.047619 512L195.047619 512ZM243.809524 512C243.809524 444.701629 189.203133 390.095238 121.904762 390.095238 54.538771 390.095238 0 444.6717 0 512 0 579.328302 54.538771 633.904762 121.904762 633.904762 189.203133 633.904762 243.809524 579.298372 243.809524 512L243.809524 512Z" />
<path class="svgpath" data-index="path_3" fill="#272636" d="M417.85539 532.855467 1145.91939 532.855467C1159.38462 532.855467 1170.300343 521.939744 1170.300343 508.474514 1170.300343 495.009285 1159.38462 484.093562 1145.91939 484.093562L417.85539 484.093562C404.390163 484.093562 393.474438 495.009285 393.474438 508.474514 393.474438 521.939744 404.390163 532.855467 417.85539 532.855467L417.85539 532.855467Z" />
<path class="svgpath" data-index="path_4" fill="#272636" d="M195.047619 902.095238C195.047619 942.463152 162.272677 975.238095 121.904762 975.238095 81.476771 975.238095 48.761905 942.50062 48.761905 902.095238 48.761905 861.689856 81.476771 828.952381 121.904762 828.952381 162.272677 828.952381 195.047619 861.727325 195.047619 902.095238L195.047619 902.095238ZM243.809524 902.095238C243.809524 834.796866 189.203133 780.190476 121.904762 780.190476 54.538771 780.190476 0 834.766936 0 902.095238 0 969.42354 54.538771 1024 121.904762 1024 189.203133 1024 243.809524 969.39361 243.809524 902.095238L243.809524 902.095238Z" />
<path class="svgpath" data-index="path_5" fill="#272636" d="M417.85539 922.906819 1145.91939 922.906819C1159.38462 922.906819 1170.300343 911.991096 1170.300343 898.525867 1170.300343 885.060637 1159.38462 874.144914 1145.91939 874.144914L417.85539 874.144914C404.390163 874.144914 393.474438 885.060637 393.474438 898.525867 393.474438 911.991096 404.390163 922.906819 417.85539 922.906819L417.85539 922.906819Z" />

</svg>
