<?xml version="1.0" encoding="utf-8"?>
<!DOCTYPE svg PUBLIC "-//W3C//DTD SVG 1.1//EN" "http://www.w3.org/Graphics/SVG/1.1/DTD/svg11.dtd">
<svg style="width:308px;height:308px;" version="1.1" id="图形" xmlns="http://www.w3.org/2000/svg" xmlns:xlink="http://www.w3.org/1999/xlink" x="0px" y="0px" width="1024px" height="1024px" viewBox="0 0 1024 1024" enable-background="new 0 0 1024 1024" xml:space="preserve">
  <path class="svgpath" data-index="path_0" fill="#272636" d="M388.081692 972.845105c11.870513 0 21.579869-9.696059 21.579869-21.568618L409.66156 636.115695c0-11.86949-9.709356-21.542025-21.579869-21.542025L72.921923 614.57367c-11.882787 0-21.542025 9.671512-21.542025 21.542025l0 315.160792c0 11.871536 9.659239 21.568618 21.542025 21.568618L388.081692 972.845105M388.081692 409.836469c11.870513 0 21.579869-9.659239 21.579869-21.542025L409.66156 73.133652c0-11.870513-9.709356-21.579869-21.579869-21.579869L72.921923 51.553783c-11.882787 0-21.542025 9.708333-21.542025 21.579869l0 315.160792c0 11.882787 9.659239 21.542025 21.542025 21.542025L388.081692 409.836469M388.081692 1024 72.921923 1024c-40.185461 0-72.723513-32.538052-72.723513-72.723513L0.19841 636.115695c0-40.185461 32.538052-72.723513 72.723513-72.723513l315.160792 0c40.185461 0 72.723513 32.538052 72.723513 72.723513l0 315.160792C460.806227 991.461948 428.268175 1024 388.081692 1024L388.081692 1024 388.081692 1024zM388.081692 461.017957 72.921923 461.017957c-40.185461 0-72.723513-32.538052-72.723513-72.723513L0.19841 73.133652c0-40.185461 32.538052-72.723513 72.723513-72.723513l315.160792 0c40.185461 0 72.723513 32.538052 72.723513 72.723513l0 315.160792C460.806227 428.479905 428.268175 461.017957 388.081692 461.017957L388.081692 461.017957 388.081692 461.017957z" />
<path class="svgpath" data-index="path_1" fill="#272636" d="M998.223608 153.953579 588.771708 153.953579c-14.119631 0-25.591255-11.470602-25.591255-25.603529 0-14.119631 11.471625-25.590232 25.591255-25.590232l409.4519 0c14.1452 0 25.564663 11.470602 25.564663 25.590232C1023.788271 142.484 1012.368808 153.953579 998.223608 153.953579L998.223608 153.953579zM998.223608 358.641686 588.771708 358.641686c-14.119631 0-25.591255-11.432758-25.591255-25.552389 0-14.132927 11.471625-25.603529 25.591255-25.603529l409.4519 0c14.1452 0 25.564663 11.470602 25.564663 25.603529C1023.788271 347.208927 1012.368808 358.641686 998.223608 358.641686L998.223608 358.641686zM998.223608 716.937668 588.771708 716.937668c-14.119631 0-25.591255-11.472647-25.591255-25.591255 0-14.144178 11.471625-25.616825 25.591255-25.616825l409.4519 0c14.1452 0 25.564663 11.472647 25.564663 25.616825C1023.788271 705.46502 1012.368808 716.937668 998.223608 716.937668L998.223608 716.937668zM998.223608 921.663618 588.771708 921.663618c-14.119631 0-25.591255-11.472647-25.591255-25.591255 0-14.121676 11.471625-25.616825 25.591255-25.616825l409.4519 0c14.1452 0 25.564663 11.495149 25.564663 25.616825C1023.788271 910.19097 1012.368808 921.663618 998.223608 921.663618L998.223608 921.663618z" />

</svg>
