<?xml version="1.0" encoding="utf-8"?>
<!DOCTYPE svg PUBLIC "-//W3C//DTD SVG 1.1//EN" "http://www.w3.org/Graphics/SVG/1.1/DTD/svg11.dtd">
<svg style="width:308px;height:308px;" version="1.1" id="图形" xmlns="http://www.w3.org/2000/svg" xmlns:xlink="http://www.w3.org/1999/xlink" x="0px" y="0px" width="1024px" height="1024px" viewBox="0 0 1024 1024" enable-background="new 0 0 1024 1024" xml:space="preserve">
  <path class="svgpath" data-index="path_0" fill="#272636" d="M393.664871 495.52477c0 11.307533-9.168824 20.466124-20.466124 20.466124l-103.671151 0c-11.307533 0-20.466124-9.15859-20.466124-20.466124 0-11.2973 9.15859-20.466124 20.466124-20.466124l103.671151 0C384.496048 475.058646 393.664871 484.22747 393.664871 495.52477z" />
<path class="svgpath" data-index="path_1" fill="#272636" d="M805.207925 495.52477c0 11.307533-9.15859 20.466124-20.466124 20.466124l-103.671151 0c-11.2973 0-20.466124-9.15859-20.466124-20.466124 0-11.2973 9.168824-20.466124 20.466124-20.466124l103.671151 0C796.049335 475.058646 805.207925 484.22747 805.207925 495.52477z" />
<path class="svgpath" data-index="path_2" fill="#272636" d="M547.600823 237.917668l0 103.671151c0 11.307533-9.15859 20.466124-20.466124 20.466124s-20.466124-9.15859-20.466124-20.466124l0-103.671151c0-11.307533 9.15859-20.466124 20.466124-20.466124C538.442232 217.451544 547.600823 226.610134 547.600823 237.917668z" />
<path class="svgpath" data-index="path_3" fill="#272636" d="M547.600823 649.460722l0 103.681384c0 11.2973-9.15859 20.466124-20.466124 20.466124s-20.466124-9.168824-20.466124-20.466124l0-103.681384c0-11.2973 9.15859-20.466124 20.466124-20.466124C538.442232 628.994598 547.600823 638.163421 547.600823 649.460722z" />
<path class="svgpath" data-index="path_4" fill="#272636" d="M411.562497 428.754041c-3.786233 6.569626-10.673084 10.233062-17.733896 10.233062-3.479241 0-6.999414-0.880043-10.222829-2.742461l-89.774653-51.861158c-9.782807-5.658883-13.129019-18.173918-7.480368-27.956725 5.658883-9.79304 18.173918-13.139252 27.956725-7.490601l89.774653 51.861158C413.864936 406.456199 417.22138 418.971234 411.562497 428.754041z" />
<path class="svgpath" data-index="path_5" fill="#272636" d="M767.918647 634.633015c-3.796466 6.559393-10.673084 10.233062-17.744129 10.233062-3.469008 0-6.989181-0.890276-10.212596-2.752694l-89.774653-51.861158c-9.782807-5.64865-13.139252-18.173918-7.480368-27.956725 5.64865-9.79304 18.173918-13.139252 27.956725-7.480368l89.774653 51.861158C770.221086 612.32494 773.567297 624.850208 767.918647 634.633015z" />
<path class="svgpath" data-index="path_6" fill="#272636" d="M673.723312 282.70778l-51.861158 89.76442c-3.786233 6.559393-10.673084 10.233062-17.744129 10.233062-3.469008 0-6.989181-0.890276-10.212596-2.752694-9.79304-5.64865-13.139252-18.163685-7.480368-27.956725l51.861158-89.76442c5.64865-9.79304 18.163685-13.139252 27.956725-7.490601C676.025751 260.399705 679.382195 272.91474 673.723312 282.70778z" />
<path class="svgpath" data-index="path_7" fill="#272636" d="M467.854571 639.053698l-51.861158 89.774653c-3.796466 6.559393-10.673084 10.233062-17.744129 10.233062-3.479241 0-6.999414-0.890276-10.222829-2.752694-9.782807-5.658883-13.139252-18.173918-7.480368-27.956725l51.861158-89.774653c5.658883-9.782807 18.173918-13.129019 27.956725-7.480368C470.15701 616.755856 473.503221 629.27089 467.854571 639.053698z" />
<path class="svgpath" data-index="path_8" fill="#272636" d="M460.435601 379.911636c-3.213181 1.862417-6.733355 2.742461-10.202363 2.742461-7.081279 0-13.957897-3.673669-17.744129-10.243295l-51.809993-89.795119c-5.64865-9.79304-2.292206-22.308075 7.500834-27.956725 9.79304-5.64865 22.308075-2.292206 27.956725 7.500834l51.79976 89.795119C473.585085 361.747951 470.228641 374.262986 460.435601 379.911636z" />
<path class="svgpath" data-index="path_9" fill="#272636" d="M666.089447 736.400816c-3.223415 1.852184-6.743588 2.742461-10.212596 2.742461-7.071046 0-13.957897-3.673669-17.744129-10.243295l-51.79976-89.805352c-5.64865-9.79304-2.292206-22.308075 7.500834-27.956725 9.782807-5.64865 22.297842-2.281973 27.946492 7.500834l51.809993 89.805352C679.238932 718.237131 675.882488 730.752166 666.089447 736.400816z" />
<path class="svgpath" data-index="path_10" fill="#272636" d="M760.499677 384.526747l-89.795119 51.809993c-3.223415 1.852184-6.743588 2.742461-10.212596 2.742461-7.071046 0-13.957897-3.673669-17.744129-10.243295-5.64865-9.79304-2.292206-22.308075 7.500834-27.956725l89.805352-51.809993c9.782807-5.638417 22.297842-2.281973 27.946492 7.500834C773.649162 366.363062 770.292718 378.878097 760.499677 384.526747z" />
<path class="svgpath" data-index="path_11" fill="#272636" d="M404.02073 590.180594l-89.805352 51.79976c-3.213181 1.862417-6.733355 2.742461-10.202363 2.742461-7.081279 0-13.957897-3.673669-17.744129-10.243295-5.64865-9.79304-2.292206-22.308075 7.500834-27.956725l89.795119-51.79976c9.79304-5.64865 22.308075-2.292206 27.956725 7.500834S413.81377 584.531943 404.02073 590.180594z" />

</svg>
