<?xml version="1.0" encoding="utf-8"?>
<!DOCTYPE svg PUBLIC "-//W3C//DTD SVG 1.1//EN" "http://www.w3.org/Graphics/SVG/1.1/DTD/svg11.dtd">
<svg style="width:308px;height:308px;" version="1.1" id="图形" xmlns="http://www.w3.org/2000/svg" xmlns:xlink="http://www.w3.org/1999/xlink" x="0px" y="0px" width="1024px" height="1024px" viewBox="0 0 1024 1024" enable-background="new 0 0 1024 1024" xml:space="preserve">
  <path class="svgpath" data-index="path_0" fill="#272636" d="M801.047608 224.583539c-3.220338-1.030467-6.755854-1.041724-10.035544 0L643.077076 224.583539c-8.831115 0-15.989127 7.159036-15.989127 15.989127 0 8.830092 7.158013 15.989127 15.989127 15.989127l113.37903 0L592.604645 420.414278c-40.677363-41.883839-97.585354-67.91772-160.583028-67.91772-123.627421 0-223.847784 100.220362-223.847784 223.847784 0 123.627421 100.220362 223.847784 223.847784 223.847784s223.847784-100.220362 223.847784-223.847784c0-49.085854-15.811072-94.471439-42.602199-131.368717l170.581732-170.581732 0 126.460951c0 8.830092 7.158013 15.989127 15.989127 15.989127 8.830092 0 15.989127-7.159036 15.989127-15.989127L815.82719 240.572667l0-15.989127L801.047608 224.583539zM623.891146 576.344342c0 105.966215-85.903314 191.869529-191.869529 191.869529-105.966215 0-191.869529-85.903314-191.869529-191.869529s85.903314-191.869529 191.869529-191.869529C537.987832 384.474813 623.891146 470.378127 623.891146 576.344342z" />

</svg>
