<?xml version="1.0" encoding="utf-8"?>
<!DOCTYPE svg PUBLIC "-//W3C//DTD SVG 1.1//EN" "http://www.w3.org/Graphics/SVG/1.1/DTD/svg11.dtd">
<svg style="width:308px;height:308px;" version="1.1" id="图形" xmlns="http://www.w3.org/2000/svg" xmlns:xlink="http://www.w3.org/1999/xlink" x="0px" y="0px" width="1024px" height="1024px" viewBox="0 0 1024 1024" enable-background="new 0 0 1024 1024" xml:space="preserve">
  <path class="svgpath" data-index="path_0" fill="#272636" d="M569.933901 148.179935c-0.827189 0-1.649273 0-2.486675 0-2.486675-10.778994-4.978455-21.563094-7.46513-32.336982-0.822083 0-1.644167 0-2.481568 0-0.827189-3.31897-1.649273-6.627728-2.486675-9.951804-0.827189 0-1.649273 0-2.486675 0-0.822083-3.31897-1.649273-6.627728-2.486675-9.946698-1.644167-0.832296-3.308758-1.654379-4.978455-2.486675-0.822083-3.31897-1.644167-6.627728-2.481568-9.946698-2.486675-1.654379-4.978455-3.31897-7.46513-4.978455 0-1.654379 0-3.31897 0-4.973349-4.973349-4.14616-9.946698-8.292319-14.925154-12.438479 0-1.654379 0-3.31897 0-4.973349-2.486675-0.832296-4.968243-1.654379-7.449812-2.486675-4.151266-4.973349-8.297425-9.951804-12.438479-14.925154-1.664591 0-3.31897 0-4.973349 0-0.832296-1.654379-1.664591-3.31897-2.486675-4.973349-1.659485 0-3.31897 0-4.978455 0-0.832296-1.654379-1.654379-3.31897-2.486675-4.973349-2.486675-0.827189-4.978455-1.654379-7.460024-2.486675 0-0.832296 0-1.654379 0-2.486675-7.460024-2.486675-14.925154-4.973349-22.385177-7.460024 0-0.832296 0-1.654379 0-2.486675-1.654379 0-3.31897 0-4.973349 0 0-0.827189 0-1.654379 0-2.486675-2.486675 0-4.978455 0-7.460024 0 0-0.832296 0-1.654379 0-2.486675-3.31897 0-6.632834 0-9.951804 0 0-0.822083 0-1.654379 0-2.486675C423.28648 3.069453 372.909619-2.690237 358.5155 1.430392c0 0.832296 0 1.664591 0 2.486675-4.973349 0-9.951804 0-14.925154 0 0 0.832296 0 1.654379 0 2.486675-3.308758 0-6.627728 0-9.946698 0 0 0.832296 0 1.664591 0 2.486675-3.313864 0-6.632834 0-9.951804 0 0 0.832296 0 1.654379 0 2.486675-1.654379 0-3.31897 0-4.973349 0 0 0.832296 0 1.664591 0 2.486675-2.486675 0-4.978455 0-7.460024 0 0 0.832296 0 1.654379 0 2.486675-4.978455 1.664591-9.951804 3.31897-14.925154 4.978455 0 0.832296 0 1.664591 0 2.486675-1.654379 0-3.31897 0-4.973349 0 0 0.832296 0 1.654379 0 2.486675C288.046104 27.13454 284.727134 27.966835 281.408164 28.788919c-0.822083 1.654379-1.654379 3.31897-2.486675 4.973349-1.654379 0-3.308758 0-4.973349 0-1.654379 2.486675-3.308758 4.973349-4.973349 7.460024-1.654379 0-3.308758 0-4.973349 0-5.800539 6.627728-11.606183 13.270775-17.411828 19.898503-4.14616 3.31897-8.287213 6.627728-12.438479 9.946698 0 1.659485 0 3.31897 0 4.978455-2.486675 1.654379-4.973349 3.31897-7.460024 4.973349 0 1.654379 0 3.31897 0 4.973349-1.654379 0.832296-3.308758 1.654379-4.973349 2.486675-0.827189 3.31897-1.654379 6.627728-2.486675 9.951804-1.654379 0.832296-3.308758 1.654379-4.973349 2.486675 0 2.486675 0 4.973349 0 7.460024-0.827189 0-1.654379 0-2.486675 0-0.822083 3.31897-1.654379 6.627728-2.486675 9.951804-0.822083 0-1.654379 0-2.486675 0-0.827189 4.141054-1.654379 8.292319-2.486675 12.438479-0.822083 0-1.654379 0-2.486675 0 0 3.31897 0 6.627728 0 9.946698-8.256577 24.146785-11.110891 65.261166-2.486675 92.03249 0 3.308758 0 6.627728 0 9.951804 0.832296 0 1.664591 0 2.486675 0 0.832296 4.973349 1.664591 9.946698 2.486675 14.925154 0.832296 0 1.664591 0 2.486675 0 0 1.654379 0 3.308758 0 4.973349 0.832296 0 1.664591 0 2.486675 0 2.486675 7.460024 4.978455 14.925154 7.460024 22.385177 1.664591 0.822083 3.31897 1.654379 4.978455 2.486675 0.832296 3.308758 1.664591 6.632834 2.486675 9.951804 2.486675 1.654379 4.978455 3.308758 7.460024 4.973349 0 1.654379 0 3.308758 0 4.973349 1.664591 0.827189 3.31897 1.654379 4.978455 2.486675 0 1.654379 0 3.308758 0 4.973349 0.832296 0 1.664591 0 2.486675 0 0 1.654379 0 3.308758 0 4.978455 0.832296 0 1.664591 0 2.486675 0 0 1.654379 0 3.308758 0 4.973349 0.832296 0 1.664591 0 2.486675 0 0 1.654379 0 3.308758 0 4.973349 0.832296 0 1.664591 0 2.486675 0 0 1.654379 0 3.308758 0 4.973349 0.832296 0 1.664591 0 2.486675 0 0 1.654379 0 3.308758 0 4.978455 0.832296 0 1.664591 0 2.486675 0 0 1.654379 0 3.308758 0 4.973349 0.832296 0 1.664591 0 2.486675 0 0 1.654379 0 3.308758 0 4.973349 0.832296 0 1.664591 0 2.486675 0 0 1.654379 0 3.308758 0 4.978455 0.832296 0 1.664591 0 2.486675 0 0 1.654379 0 3.308758 0 4.973349 0.832296 0 1.664591 0 2.486675 0 0 1.654379 0 3.308758 0 4.973349 0.832296 0 1.664591 0 2.486675 0 0.832296 3.308758 1.664591 6.627728 2.486675 9.951804 0.832296 0 1.664591 0 2.486675 0 0.832296 3.308758 1.664591 6.627728 2.486675 9.946698 0.832296 0 1.654379 0 2.486675 0 1.664591 4.968243 3.31897 9.951804 4.973349 14.914941 0.832296 0 1.664591 0 2.486675 0 0 1.664591 0 3.31897 0 4.973349 0.832296 0 1.654379 0 2.486675 0 0 1.664591 0 3.31897 0 4.973349 0.832296 0 1.664591 0 2.486675 0 0 1.664591 0 3.31897 0 4.978455 0.832296 0 1.654379 0 2.486675 0 0 1.664591 0 3.31897 0 4.973349 0.832296 0 1.664591 0 2.486675 0 0 1.664591 0 3.31897 0 4.973349 0.832296 0 1.654379 0 2.486675 0 0 1.664591 0 3.31897 0 4.978455 0.832296 0 1.664591 0 2.486675 0 0 1.664591 0 3.31897 0 4.973349 0.832296 0 1.654379 0 2.486675 0 0 1.664591 0 3.31897 0 4.973349 0.832296 0 1.664591 0 2.486675 0 0 1.664591 0 3.31897 0 4.973349 0.832296 0 1.654379 0 2.486675 0 0 1.664591 0 3.31897 0 4.978455 1.664591 0.832296 3.31897 1.664591 4.973349 2.486675 0 1.664591 0 3.31897 0 4.978455 0.832296 0 1.664591 0 2.486675 0 0 1.664591 0 3.31897 0 4.973349 0.832296 0 1.654379 0 2.486675 0 0 1.664591 0 3.31897 0 4.973349 0.832296 0 1.664591 0 2.486675 0 0 1.664591 0 3.31897 0 4.978455 0.832296 0 1.654379 0 2.486675 0 0 1.664591 0 3.31897 0 4.973349 0.832296 0 1.664591 0 2.486675 0 0 1.664591 0 3.31897 0 4.973349 0.832296 0 1.654379 0 2.486675 0 0 1.664591 0 3.31897 0 4.973349 0.832296 0 1.664591 0 2.486675 0 0 1.664591 0 3.31897 0 4.978455 0.832296 0 1.654379 0 2.486675 0 0 1.664591 0 3.31897 0 4.973349 0.832296 0 1.654379 0 2.486675 0 0 1.664591 0 3.31897 0 4.973349 0.832296 0 1.654379 0 2.486675 0 0 1.664591 0 3.31897 0 4.973349 0.832296 0 1.654379 0 2.486675 0 0 1.659485 0 3.31897 0 4.978455 0.832296 0 1.654379 0 2.486675 0 0.832296 3.31897 1.654379 6.63794 2.486675 9.956911 0.832296 0 1.659485 0 2.486675 0 0.832296 3.308758 1.654379 6.622622 2.486675 9.946698 0.832296 0 1.654379 0 2.486675 0 1.654379 4.978455 3.31897 9.946698 4.978455 14.925154 0.832296 0 1.654379 0 2.486675 0 1.654379 4.978455 3.31897 9.946698 4.978455 14.925154 0.832296 0 1.654379 0 2.486675 0 0 1.644167 0 3.308758 0 4.973349 0.832296 0 1.654379 0 2.486675 0 0 1.649273 0 3.313864 0 4.978455 0.832296 0 1.654379 0 2.486675 0 2.696025 5.034622 9.07866 25.213961 12.438479 27.358527 1.654379 0 3.31897 0 4.973349 0 2.410083-10.523689 8.169773-16.885899 12.438479-24.871852 0-1.664591 0-3.324076 0-4.978455 0.832296 0 1.654379 0 2.486675 0 1.654379-4.973349 3.31897-9.946698 4.973349-14.925154 0.832296 0 1.654379 0 2.486675 0 0-1.659485 0-3.324076 0-4.973349 0.832296 0 1.654379 0 2.486675 0 0-1.664591 0-3.324076 0-4.978455 0.832296 0 1.654379 0 2.486675 0 0-1.659485 0-3.324076 0-4.978455 0.832296 0 1.654379 0 2.486675 0 0-1.659485 0-3.324076 0-4.973349 0.832296 0 1.654379 0 2.486675 0 0-1.664591 0-3.324076 0-4.978455 0.832296 0 1.654379 0 2.486675 0 0.832296-3.324076 1.654379-6.63794 2.486675-9.956911 0.832296 0 1.654379 0 2.486675 0 0.832296-3.308758 1.654379-6.627728 2.486675-9.946698 0.832296 0 1.654379 0 2.486675 0 0.832296-3.308758 1.654379-6.627728 2.486675-9.946698 0.832296 0 1.654379 0 2.486675 0 0.832296-3.313864 1.654379-6.632834 2.486675-9.951804 0.832296 0 1.654379 0 2.486675 0 0-1.654379 0-3.308758 0-4.973349 0.832296 0 1.654379 0 2.486675 0 0-1.654379 0-3.308758 0-4.978455 0.822083 0 1.654379 0 2.486675 0 0-1.654379 0-3.308758 0-4.973349 0.832296 0 1.654379 0 2.486675 0 0-1.654379 0-3.308758 0-4.973349 0.822083 0 1.654379 0 2.486675 0 0-1.654379 0-3.308758 0-4.973349 0.832296 0 1.654379 0 2.486675 0 0-1.654379 0-3.313864 0-4.978455 0.827189 0 1.654379 0 2.486675 0 0-1.654379 0-3.308758 0-4.973349 1.654379-0.822083 3.308758-1.654379 4.973349-2.486675 0-1.654379 0-3.308758 0-4.973349 0.832296 0 1.654379 0 2.486675 0 0-1.654379 0-3.308758 0-4.973349 0.822083 0 1.654379 0 2.486675 0 0-1.654379 0-3.308758 0-4.973349 0.832296 0 1.659485 0 2.486675 0 0-1.659485 0-3.313864 0-4.978455 0.827189 0 1.654379 0 2.486675 0 0-1.654379 0-3.308758 0-4.973349 0.832296 0 1.654379 0 2.486675 0 0-1.654379 0-3.308758 0-4.973349 0.827189 0 1.654379 0 2.486675 0 0-1.654379 0-3.308758 0-4.978455 0.832296 0 1.654379 0 2.486675 0 0-1.654379 0-3.308758 0-4.973349 0.822083 0 1.654379 0 2.486675 0 0-1.654379 0-3.308758 0-4.973349 0.832296 0 1.654379 0 2.486675 0 0.822083-3.308758 1.654379-6.627728 2.486675-9.951804 0.832296 0 1.654379 0 2.486675 0 0.827189-3.308758 1.654379-6.627728 2.486675-9.946698 0.832296 0 1.654379 0 2.486675 0 0.822083-3.308758 1.654379-6.632834 2.486675-9.951804 0.827189 0 1.654379 0 2.486675 0 1.654379-4.973349 3.31897-9.946698 4.973349-14.925154 0.827189 0 1.654379 0 2.486675 0 0-1.654379 0-3.308758 0-4.973349 0.822083 0 1.654379 0 2.486675 0 0-1.654379 0-3.308758 0-4.973349 0.827189 0 1.654379 0 2.486675 0 0-1.654379 0-3.308758 0-4.978455 0.822083 0 1.654379 0 2.486675 0 0-1.654379 0-3.308758 0-4.973349 0.822083 0 1.654379 0 2.486675 0 0-1.654379 0-3.308758 0-4.968243 0.832296 0 1.654379 0 2.476462 0 0-1.664591 0-3.31897 0-4.973349 0.842508 0 1.664591 0 2.486675 0 0-1.664591 0-3.31897 0-4.978455 0.842508 0 1.664591 0 2.486675 0 0-1.664591 0-3.31897 0-4.973349 0.837402 0 1.664591 0 2.486675 0 0-1.664591 0-3.31897 0-4.973349 0.837402 0 1.659485 0 2.486675 0 0-1.664591 0-3.31897 0-4.973349 3.324076-2.486675 6.63794-4.978455 9.946698-7.460024 0-1.664591 0-3.31897 0-4.978455 1.664591-0.832296 3.324076-1.664591 4.978455-2.486675 0-1.664591 0-3.31897 0-4.978455 1.659485-0.832296 3.324076-1.664591 4.973349-2.486675 0.842508-3.31897 1.664591-6.63794 2.486675-9.951804 0.837402 0 1.664591 0 2.486675 0 0-1.664591 0-3.31897 0-4.973349 0.837402 0 1.659485 0 2.486675 0 1.659485-4.973349 3.324076-9.951804 4.973349-14.925154 0.842508 0 1.664591 0 2.486675 0 0-2.486675 0-4.973349 0-7.460024 0.842508 0 1.664591 0 2.486675 0 0-2.486675 0-4.973349 0-7.460024 0.837402 0 1.664591 0 2.486675 0 0-3.31897 0-6.63794 0-9.946698 0.837402 0 1.659485 0 2.486675 0 0-4.978455 0-9.951804 0-14.925154 0.837402 0 1.659485 0 2.481568 0C575.540408 209.667688 572.451212 156.079085 569.933901 148.179935zM497.80502 207.875444c-0.832296 0-1.664591 0-2.486675 0 0 4.141054 0 8.287213 0 12.438479-0.832296 0-1.664591 0-2.486675 0 0 2.486675 0 4.973349 0 7.460024-0.832296 0-1.659485 0-2.486675 0 0 2.486675 0 4.973349 0 7.460024-0.832296 0-1.664591 0-2.486675 0 0 1.654379 0 3.308758 0 4.973349-0.832296 0-1.654379 0-2.486675 0-0.832296 3.308758-1.664591 6.627728-2.486675 9.951804-1.654379 0.822083-3.31897 1.654379-4.973349 2.486675 0 1.654379 0 3.308758 0 4.978455-3.31897 2.486675-6.632834 4.973349-9.951804 7.460024 0 1.654379 0 3.313864 0 4.978455-0.832296 0-1.654379 0-2.486675 0-0.832296 1.654379-1.664591 3.308758-2.486675 4.973349-1.654379 0-3.31897 0-4.973349 0-2.486675 3.308758-4.978455 6.627728-7.460024 9.951804-1.654379 0-3.31897 0-4.978455 0-0.832296 1.654379-1.664591 3.308758-2.486675 4.973349-1.654379 0-3.31897 0-4.978455 0 0 0.822083 0 1.654379 0 2.486675-3.31897 0.827189-6.627728 1.659485-9.946698 2.486675 0 0.827189 0 1.654379 0 2.486675-8.297425 1.654379-16.579533 3.308758-24.876958 4.973349 0 0.827189 0 1.654379 0 2.486675-20.005731 6.055844-65.199893-6.576667-74.620662-12.438479-0.832296-1.664591-1.654379-3.31897-2.486675-4.973349-3.31897-0.832296-6.632834-1.664591-9.951804-2.486675 0-0.832296 0-1.664591 0-2.486675-5.131639-4.17169-7.562146-7.8583-14.925154-9.951804-2.088398-7.37322-5.790326-9.778197-9.946698-14.920048-0.827189 0-1.654379 0-2.486675 0-0.832296-3.31897-1.654379-6.63794-2.486675-9.951804-0.822083 0-1.654379 0-2.486675 0 0-1.664591 0-3.31897 0-4.973349-1.654379-0.832296-3.308758-1.664591-4.978455-2.486675 0-1.664591 0-3.31897 0-4.973349-0.832296 0-1.654379 0-2.486675 0 0-3.31897 0-6.63794 0-9.951804-3.033028-8.404654-11.590865-32.551438-7.460024-47.257029 0.832296 0 1.664591 0 2.486675 0 0-4.973349 0-9.951804 0-14.925154 11.687881-36.181881 36.452505-64.944587 69.642207-79.594011 2.486675 0 4.978455 0 7.460024 0 0-0.832296 0-1.654379 0-2.486675 2.486675 0 4.978455 0 7.460024 0 0-0.832296 0-1.654379 0-2.486675 5.805645 0 11.606183 0 17.411828 0 0-0.832296 0-1.654379 0-2.486675 8.067651-2.307961 39.301713 2.854314 44.770355 4.973349 0 0.832296 0 1.654379 0 2.486675 2.486675 0 4.978455 0 7.460024 0 0 0.832296 0 1.654379 0 2.486675 3.308758 0.832296 6.632834 1.654379 9.951804 2.486675 0 0.832296 0 1.654379 0 2.486675 3.308758 0.832296 6.627728 1.654379 9.946698 2.486675 0.832296 1.654379 1.654379 3.31897 2.486675 4.978455 1.654379 0 3.31897 0 4.973349 0 4.14616 4.973349 8.297425 9.946698 12.438479 14.920048 3.313864 2.486675 6.632834 4.978455 9.951804 7.460024 0 1.654379 0 3.31897 0 4.978455 1.654379 0.832296 3.308758 1.654379 4.973349 2.486675 0.832296 3.31897 1.654379 6.632834 2.486675 9.951804 1.654379 0.832296 3.31897 1.654379 4.973349 2.486675 0.827189 4.14616 1.654379 8.297425 2.486675 12.438479 0.832296 0 1.654379 0 2.486675 0 0 3.308758 0 6.627728 0 9.946698C495.839168 171.989717 502.165636 192.643924 497.80502 207.875444z" />
<path class="svgpath" data-index="path_1" fill="#272636" d="M1007.700962 1021.222277c-2.0067-5.412474-0.265518-14.583044-2.486675-22.390283-0.822083 0-1.659485 0-2.486675 0 0-7.460024 0-14.925154 0-22.385177-6.944307-24.437833-5.48396-57.724551-12.438479-82.080686 0-7.46513 0-14.925154 0-22.390283-0.822083 0-1.659485 0-2.486675 0 0-6.622622 0-13.260562 0-19.893397-9.002068-31.59149-5.953722-72.940752-14.920048-104.470969-0.827189-14.082646-1.664591-28.185716-2.486675-42.28368-0.827189 0-1.664591 0-2.486675 0 0-6.622622 0-13.260562 0-19.893397-0.822083 0-1.664591 0-2.486675 0 0-7.46513 0-14.925154 0-22.390283-0.822083 0-1.664591 0-2.486675 0 0-6.622622 0-13.260562 0-19.893397 9.93138-35.742756 7.342583-81.381149 17.411828-116.89413 0.822083-13.265669 1.664591-26.536443 2.486675-39.802112 0.822083 0 1.659485 0 2.486675 0 0-6.627728 0-13.265669 0-19.898503 0.822083 0 1.659485 0 2.481568 0 0-6.627728 0-13.260562 0-19.898503 0.827189 0 1.664591 0 2.486675 0 0-6.627728 0-13.260562 0-19.898503 0.827189 0 1.664591 0 2.486675 0 0-6.627728 0-13.260562 0-19.898503 0.822083 0 1.664591 0 2.486675 0 0-5.800539 0-11.606183 0-17.406722 0.822083 0 1.664591 0 2.486675 0 0-6.63794 0-13.265669 0-19.898503 0.822083 0 1.659485 0 2.486675 0 0-6.63794 0-13.265669 0-19.898503 2.747086-9.619907 4.912076-22.293267 4.973349-34.823656-8.282107-2.486675-16.584639-4.973349-24.871852-7.460024 0-0.832296 0-1.664591 0-2.486675-4.978455-0.832296-9.946698-1.664591-14.925154-2.486675 0-0.832296 0-1.664591 0-2.486675-1.664591 0-3.308758 0-4.978455 0 0-0.832296 0-1.664591 0-2.486675-4.973349-0.832296-9.946698-1.664591-14.920048-2.486675 0-0.832296 0-1.664591 0-2.486675-4.151266-0.832296-8.287213-1.664591-12.443585-2.486675 0-0.832296 0-1.664591 0-2.486675-1.659485 0-3.308758 0-4.973349 0 0-0.832296 0-1.664591 0-2.486675-4.978455-0.832296-9.951804-1.664591-14.925154-2.486675 0-0.832296 0-1.664591 0-2.486675-1.664591 0-3.308758 0-4.978455 0 0-0.832296 0-1.664591 0-2.486675-2.486675 0-4.973349 0-7.460024 0 0-0.832296 0-1.664591 0-2.486675-2.486675 0-4.978455 0-7.46513 0 0-0.832296 0-1.664591 0-2.486675-1.659485 0-3.308758 0-4.973349 0 0-0.832296 0-1.664591 0-2.486675-4.978455-0.832296-9.951804-1.664591-14.925154-2.486675 0-0.832296 0-1.664591 0-2.486675-1.664591 0-3.308758 0-4.978455 0 0-0.832296 0-1.664591 0-2.486675-2.486675 0-4.978455 0-7.460024 0 0-0.832296 0-1.664591 0-2.486675-1.664591 0-3.308758 0-4.978455 0 0-0.832296 0-1.664591 0-2.486675-4.978455-0.832296-9.946698-1.664591-14.925154-2.486675 0-0.832296 0-1.664591 0-2.486675-1.664591 0-3.308758 0-4.978455 0 0-0.832296 0-1.664591 0-2.486675-4.973349-0.832296-9.946698-1.664591-14.925154-2.486675 0-0.832296 0-1.664591 0-2.486675-1.659485 0-3.308758 0-4.973349 0 0-0.832296 0-1.664591 0-2.486675-4.978455-0.832296-9.946698-1.664591-14.925154-2.486675 0-0.832296 0-1.664591 0-2.486675-4.135947-0.832296-8.287213-1.664591-12.438479-2.486675 0-0.832296 0-1.664591 0-2.486675-1.664591 0-3.308758 0-4.978455 0 0-0.832296 0-1.664591 0-2.486675-4.973349-0.832296-9.946698-1.664591-14.925154-2.486675 0-0.832296 0-1.664591 0-2.486675-1.644167 0-3.308758 0-4.973349 0 0-0.832296 0-1.664591 0-2.486675-4.978455-0.832296-9.951804-1.664591-14.925154-2.486675 0-0.832296 0-1.664591 0-2.486675-1.649273 0-3.308758 0-4.978455 0 0-0.832296 0-1.664591 0-2.486675-4.978455-0.832296-9.946698-1.664591-14.925154-2.486675 0-0.832296 0-1.664591 0-2.486675-1.644167 0-3.308758 0-4.973349 0 0-0.832296 0-1.664591 0-2.486675-2.486675 0-4.978455 0-7.46513 0 0-0.832296 0-1.664591 0-2.486675-4.135947-0.832296-8.287213-1.654379-12.438479-2.486675 0-0.832296 0-1.664591 0-2.486675-17.069719 1.296951-23.023441 9.589271-34.823656 14.925154-2.481568 0-4.973349 0-7.460024 0 0 0.822083 0 1.654379 0 2.486675-1.644167 0-3.308758 0-4.978455 0 0 0.827189 0 1.654379 0 2.486675-1.644167 0-3.308758 0-4.973349 0 0 0.822083 0 1.654379 0 2.486675-1.649273 0-3.308758 0-4.978455 0 0 0.822083 0 1.654379 0 2.486675-1.644167 0-3.308758 0-4.978455 0 0 0.827189 0 1.654379 0 2.486675-1.644167 0-3.308758 0-4.973349 0 0 0.822083 0 1.654379 0 2.486675-1.649273 0-3.308758 0-4.978455 0 0 0.827189 0 1.659485 0 2.486675-1.644167 0-3.308758 0-4.973349 0 0 0.827189 0 1.654379 0 2.486675-9.109297 3.308758-18.233912 6.627728-27.363633 9.946698-0.510611 12.183174-5.846494 33.986255-12.438479 39.797006 0 2.486675 0 4.973349 0 7.460024 16.589745-7.460024 33.174384-14.920048 49.74881-22.385177 0-0.832296 0-1.664591 0-2.486675 7.414069-3.96234 14.486028-3.957234 19.893397-9.946698 0.842508 0 1.664591 0 2.486675 0-1.644167 24.866746-3.308758 49.743704-4.973349 74.620662-0.827189 0-1.649273 0-2.486675 0-1.649273 27.35342-3.308758 54.722159-4.978455 82.07558-0.822083 0-1.644167 0-2.486675 0 0 8.292319 0 16.589745 0 24.871852-0.822083 0-1.644167 0-2.486675 0 0 9.124615 0 18.244124 0 27.358527-0.822083 0-1.644167 0-2.481568 0 0 9.124615 0 18.244124 0 27.358527-0.827189 0-1.649273 0-2.486675 0 0 9.119509 0 18.244124 0 27.368739-0.822083 0-1.649273 0-2.486675 0 0 9.109297 0 18.233912 0 27.358527-0.822083 0-1.644167 0-2.486675 0 0 5.800539 0 11.595971 0 17.406722 0 2.486675 0 4.978455 0 7.46513-0.822083 0-1.644167 0-2.486675 0 0.842508 8.287213 1.664591 16.56932 2.486675 24.871852-60.522698 8.287213-121.050502 16.574426-181.568094 24.856534-11.458106 3.344501-28.762706 7.046429-42.28368 7.480448-3.482366 15.001745-14.363482 21.981795-17.411828 37.295013-4.141054 0-8.292319 0-12.438479 0-3.165787-13.510762-11.61129-23.952753-17.411828-34.81855 0-1.649273 0-3.313864 0-4.978455-0.832296 0-1.654379 0-2.486675 0 0-1.649273 0-3.308758 0-4.978455-0.832296 0-1.654379 0-2.486675 0 0-1.644167 0-3.308758 0-4.973349-0.832296 0-1.654379 0-2.486675 0 0-1.649273 0-3.308758 0-4.978455-0.832296 0-1.654379 0-2.486675 0 0-1.649273 0-3.308758 0-4.978455-3.41088-6.357104-8.256577-11.146634-9.951804-19.883184-1.654379 0-3.31897 0-4.973349 0 2.486675 16.56932 4.973349 33.159065 7.460024 49.728386 0 0.842508 0 1.664591 0 2.501993-25.321189-0.464656-49.411807-3.901066-69.647313-9.946698-4.973349 0-9.946698 0-14.925154 0 0-0.842508 0-1.664591 0-2.501993-16.579533-1.649273-33.169277-3.308758-49.74881-4.978455-13.485231-3.936809-33.78201-5.96904-47.257029-9.946698-5.795433 0-11.601077 0-17.411828 0-14.409437-4.212539-38.438781-8.705914-54.711947-9.93138 4.253388-12.09637 0.791447-25.949241-2.496887-37.315437 0-6.63794 0-13.275881 0-19.893397-0.822083 0-1.654379 0-2.476462 0 0-6.63794 0-13.280987 0-19.898503-0.832296 0-1.664591 0-2.486675 0 0-6.63794 0-13.275881 0-19.903609-0.832296 0-1.664591 0-2.486675 0-8.292319-69.637101-16.589745-139.289519-24.871852-208.92662 9.119509 3.308758 18.233912 6.627728 27.358527 9.946698 0 0.827189 0 1.654379 0 2.486675 2.486675 0 4.973349 0 7.460024 0 0 0.822083 0 1.654379 0 2.486675 1.654379 0 3.308758 0 4.973349 0 0 0.822083 0 1.654379 0 2.486675 2.481568 0 4.973349 0 7.454918 0 0 0.827189 0 1.654379 0 2.486675 3.31897 0.822083 6.63794 1.654379 9.946698 2.486675 0 0.822083 0 1.654379 0 2.486675 2.496887 0 4.978455 0 7.470236 0 0 0.827189 0 1.654379 0 2.486675 3.308758 0.822083 6.627728 1.654379 9.946698 2.486675 0 0.827189 0 1.659485 0 2.486675 2.481568 0 4.973349 0 7.454918 0 0 0.827189 0 1.654379 0 2.486675 1.664591 0 3.31897 0 4.973349 0 0 0.822083 0 1.654379 0 2.486675 2.486675 0 4.973349 0 7.460024 0 0 0.827189 0 1.654379 0 2.486675 3.31897 0.822083 6.63794 1.654379 9.951804 2.486675 0 0.822083 0 1.654379 0 2.476462 2.486675 0 4.973349 0 7.460024 0 0 0.832296 0 1.664591 0 2.496887 3.31897 0.822083 6.63794 1.654379 9.946698 2.476462 0 0.832296 0 1.664591 0 2.496887 2.486675 0 4.973349 0 7.460024 0 0 0.827189 0 1.654379 0 2.481568 3.31897 0.832296 6.63794 1.664591 9.951804 2.496887 0 0.822083 0 1.654379 0 2.476462 2.486675 0 4.973349 0 7.460024 0 0 0.832296 0 1.664591 0 2.496887 8.292319 2.476462 16.589745 4.973349 24.871852 7.454918-2.052655-10.242853-8.098287-17.171841-12.438479-24.876958 0-1.654379 0-3.308758 0-4.968243-1.654379-0.832296-3.308758-1.664591-4.978455-2.486675 0-1.664591 0-3.31897 0-4.973349-2.486675-1.664591-4.973349-3.31897-7.460024-4.973349-0.827189-2.486675-1.654379-4.973349-2.486675-7.460024-4.14616-0.832296-8.287213-1.664591-12.438479-2.486675 0-0.832296 0-1.664591 0-2.486675-3.308758-0.832296-6.632834-1.664591-9.951804-2.486675 0-0.832296 0-1.664591 0-2.486675-2.486675 0-4.973349 0-7.460024 0 0-0.832296 0-1.664591 0-2.486675-1.654379 0-3.308758 0-4.973349 0 0-0.832296 0-1.664591 0-2.486675-2.486675 0-4.973349 0-7.460024 0 0-0.832296 0-1.664591 0-2.486675-3.308758-0.832296-6.627728-1.664591-9.951804-2.486675 0-0.832296 0-1.664591 0-2.486675-2.476462 0-4.973349 0-7.449812 0 0-0.832296 0-1.664591 0-2.486675-3.31897-0.832296-6.63794-1.664591-9.951804-2.486675 0-0.832296 0-1.664591 0-2.486675-2.496887 0-4.983561 0-7.470236 0 0-0.832296 0-1.664591 0-2.486675-3.308758-0.832296-6.627728-1.664591-9.951804-2.486675 0-0.832296 0-1.664591 0-2.486675-2.476462 0-4.973349 0-7.449812 0 0-0.832296 0-1.664591 0-2.486675-4.151266-0.832296-8.297425-1.664591-12.448691-2.486675 0-0.832296 0-1.664591 0-2.486675-3.308758-0.832296-6.627728-1.664591-9.941592-2.486675 0-0.832296 0-1.664591 0-2.486675-2.486675 0-4.983561 0-7.460024 0 0-0.832296 0-1.664591 0-2.486675-1.664591 0-3.31897 0-4.973349 0 0-0.832296 0-1.664591 0-2.486675-8.297425-2.486675-16.589745-4.973349-24.876958-7.460024 0-0.832296 0-1.664591 0-2.486675-3.31897-0.832296-6.63794-1.664591-9.946698-2.486675 0-0.832296 0-1.664591 0-2.486675-2.486675 0-4.978455 0-7.460024 0 0-0.832296 0-1.664591 0-2.486675-4.973349-1.664591-9.951804-3.31897-14.925154-4.973349 0.194032 20.746117 2.65007 42.855564 7.460024 59.695508 0 6.632834 0 13.260562 0 19.898503 0.822083 0 1.654379 0 2.486675 0 0 5.795433 0 11.601077 0 17.411828 0.822083 0 1.654379 0 2.486675 0 0 6.627728 0 13.260562 0 19.893397 0.827189 0 1.654379 0 2.486675 0 0 6.63794 0 13.270775 0 19.898503 0.822083 0 1.654379 0 2.486675 0 0 6.63794 0 13.270775 0 19.898503 0.827189 0 1.659485 0 2.486675 0 0 6.63794 0 13.270775 0 19.898503 0.827189 0 1.654379 0 2.486675 0 0.822083 13.270775 1.654379 26.536443 2.486675 39.797006 10.074351 35.288312 7.393644 81.345406 17.411828 116.909448 4.467844 15.854465-2.057762 36.968222-4.973349 47.262135 0 11.595971 0 23.207261 0 34.81855-0.832296 0-1.664591 0-2.486675 0 0 6.622622 0 13.260562 0 19.883184-0.832296 0-1.664591 0-2.486675 0 0 7.46513 0 14.945578 0 22.390283-0.832296 0-1.664591 0-2.486675 0-3.31897 34.81855-6.63794 69.662631-9.951804 104.465863-0.832296 0-1.664591 0-2.486675 0 0 6.643046 0 13.280987 0 19.898503-0.832296 0-1.664591 0-2.486675 0 0 6.63794 0 13.275881 0 19.893397-0.832296 0-1.664591 0-2.486675 0 0 7.46513 0 14.925154 0 22.390283-0.832296 0-1.664591 0-2.486675 0 0 6.63794 0 13.275881 0 19.893397-0.832296 0-1.664591 0-2.486675 0 0 7.46513 0 14.925154 0 22.390283-0.832296 0-1.664591 0-2.486675 0-1.664591 15.747237-3.31897 31.509792-4.973349 47.257029 82.897663 14.925154 165.825963 29.850307 248.723626 44.775461 16.589745 5.049941 38.142627 7.383432 54.722159 12.438479 4.14616 0 8.297425 0 12.438479 0 8.123818 2.501993 23.886373 8.818248 37.310331 4.978455 49.396489-14.149025 107.738878-17.411828 156.696242-32.336982 4.151266 0 8.302532 0 12.438479 0 0-0.822083 0-1.644167 0-2.486675 4.978455 0 9.946698 0 14.925154 0 0-0.822083 0-1.659485 0-2.481568 4.151266 0 8.302532 0 12.438479 0 0-0.827189 0-1.649273 0-2.486675 17.411828-2.486675 34.823656-4.978455 52.230378-7.46513 15.282581-4.661877 36.845675-7.74086 52.235485-12.438479 4.151266 0 8.297425 0 12.438479 0 5.438005-1.659485 18.233912-7.613207 27.358527-4.973349 47.379576 13.694582 102.321298 22.369859 149.241324 37.310331 4.151266 0 8.287213 0 12.438479 0 26.082 8.287213 58.500679 14.082646 84.572466 22.385177 4.151266 0 8.287213 0 12.438479 0 0 0.842508 0 1.664591 0 2.486675 10.773888 1.664591 21.563094 3.324076 32.336982 4.978455 0 0.822083 0 1.659485 0 2.486675C1001.063022 1021.222277 1004.392204 1021.222277 1007.700962 1021.222277zM346.077021 715.279606c-0.832296 0-1.654379 0-2.486675 0 0 7.460024 0 14.925154 0 22.385177-0.832296 0-1.654379 0-2.486675 0 0 8.302532 0 16.589745 0 24.871852-0.832296 0-1.654379 0-2.486675 0-6.632834 70.469396-13.270775 140.954111-19.898503 211.423507-88.708414-16.56932-177.432146-33.159065-266.14056-49.743704 0.827189-9.951804 1.654379-19.898503 2.486675-29.850307 0.822083 0 1.654379 0 2.486675 0 0-7.46513 0-14.925154 0-22.390283 0.822083 0 1.654379 0 2.486675 0 0-6.622622 0-13.260562 0-19.893397 0.827189 0 1.654379 0 2.486675 0 0-6.622622 0-13.265669 0-19.898503 0.822083 0 1.654379 0 2.486675 0 0-7.460024 0-14.925154 0-22.385177 0.827189 0 1.654379 0 2.486675 0 0-6.622622 0-13.265669 0-19.898503 0.827189 0 1.654379 0 2.486675 0 0-7.460024 0-14.925154 0-22.385177 0.822083 0 1.654379 0 2.486675 0 0-6.622622 0-13.260562 0-19.898503 0.827189 0 1.654379 0 2.486675 0 0-6.622622 0-13.260562 0-19.893397 0.822083 0 1.654379 0 2.486675 0 0-7.46513 0-14.925154 0-22.390283 0.822083 0 1.654379 0 2.486675 0 0-6.622622 0-13.260562 0-19.893397 0.827189 0 1.654379 0 2.486675 0 0-7.46513 0-14.925154 0-22.390283 0.822083 0 1.654379 0 2.486675 0 0-6.622622 0-13.260562 0-19.893397 0.822083 0 1.654379 0 2.476462 0 0-1.649273 0-3.308758 0-4.978455 48.916514 8.302532 97.848347 16.589745 146.754649 24.871852 10.778994 0.842508 21.563094 1.664591 32.336982 2.486675 0 0.842508 0 1.664591 0 2.486675 10.778994 0.837402 21.563094 1.664591 32.336982 2.486675 12.515071 3.68661 34.24156 9.977335 47.257029 4.973349C347.118667 681.931614 348.977291 705.046965 346.077021 715.279606zM353.542151 981.420166c0.163395-16.584639 1.3378-31.95913 4.973349-44.770355 0-8.287213 0-16.589745 0-24.876958 0.832296 0 1.654379 0 2.486675 0 0-7.460024 0-14.920048 0-22.385177 0.832296 0 1.654379 0 2.486675 0 0-8.287213 0-16.56932 0-24.871852 0.832296 0 1.654379 0 2.486675 0 0-7.46513 0-14.925154 0-22.390283 0.832296 0 1.654379 0 2.486675 0 0-8.282107 0-16.56932 0-24.871852 0.832296 0 1.654379 0 2.486675 0 0-7.460024 0-14.925154 0-22.385177 0.832296 0 1.654379 0 2.486675 0 0-8.287213 0-16.574426 0-24.871852 0.832296 0 1.654379 0 2.486675 0 0-7.46513 0-14.925154 0-22.390283 0.832296 0 1.654379 0 2.486675 0 0-8.282107 0-16.56932 0-24.871852 0.832296 0 1.654379 0 2.486675 0 0-7.460024 0-14.925154 0-22.385177 0.832296 0 1.654379 0 2.486675 0 0-5.800539 0-11.595971 0-17.411828 1.654379-0.822083 3.31897-1.649273 4.978455-2.486675 2.915588-4.774211 0.015318-5.550339 4.973349-9.946698 6.934095-6.326468 21.644792-1.848411 32.336982-4.978455 0-0.822083 0-1.644167 0-2.486675 5.805645 0 11.606183 0 17.411828 0 0-0.822083 0-1.644167 0-2.46625 4.973349 0 9.946698 0 14.925154 0 14.593257-4.340192 35.140235-5.642249 49.743704-9.951804 5.800539 0 11.606183 0 17.406722 0 0-0.837402 0-1.659485 0-2.501993 4.978455 0 9.946698 0 14.925154 0 0-0.822083 0-1.644167 0-2.46625 5.815857 0 11.61129 0 17.411828 0 0-0.842508 0-1.664591 0-2.501993 5.815857 0 11.606183 0 17.406722 0 0-0.822083 0-1.649273 0-2.471356 19.898503-2.501993 39.797006-4.978455 59.695508-7.475342 9.946698 96.163332 19.898503 192.362406 29.850307 288.530843C560.824604 941.62316 457.170613 961.526769 353.542151 981.420166zM671.907983 531.229944c0-9.124615 0-18.24923 0-27.368739 0.842508 0 1.664591 0 2.486675 0 0-9.119509 0-18.233912 0-27.358527 0.837402 0 1.664591 0 2.486675 0 0-9.119509 0-18.244124 0-27.358527 0.837402 0 1.659485 0 2.486675 0 0-8.287213 0-16.579533 0-24.876958 0.837402 0 1.659485 0 2.486675 0 0-9.119509 0-18.233912 0-27.358527 0.837402 0 1.659485 0 2.481568 0 0-9.119509 0-18.233912 0-27.35342 0.842508 0 1.664591 0 2.486675 0 0-9.124615 0-18.244124 0-27.368739 0.842508 0 1.664591 0 2.486675 0 0-8.287213 0-16.579533 0-24.866746 0.837402 0 1.664591 0 2.486675 0 0-9.124615 0-18.244124 0-27.358527 0.837402 0 1.659485 0 2.486675 0 0-9.124615 0-18.244124 0-27.358527 0.837402 0 1.659485 0 2.481568 0 2.34881-8.241258-1.991382-17.125886 2.486675-22.385177 0-0.832296 0-1.664591 0-2.486675 2.486675 0.827189 4.978455 1.654379 7.46513 2.486675 0 0.827189 0 1.654379 0 2.486675 2.486675 0 4.973349 0 7.460024 0 0 0.822083 0 1.654379 0 2.486675 2.486675 0 4.978455 0 7.46513 0 0 0.827189 0 1.654379 0 2.486675 1.659485 0 3.324076 0 4.973349 0 0 0.822083 0 1.654379 0 2.486675 2.486675 0 4.978455 0 7.46513 0 0 0.822083 0 1.654379 0 2.486675 1.659485 0 3.324076 0 4.973349 0 0 0.827189 0 1.654379 0 2.486675 2.486675 0 4.978455 0 7.46513 0 0 0.822083 0 1.654379 0 2.486675 2.486675 0 4.978455 0 7.460024 0 0 0.822083 0 1.654379 0 2.486675 1.664591 0 3.329182 0 4.978455 0 0 0.827189 0 1.654379 0 2.486675 2.486675 0 4.978455 0 7.460024 0 0 0.822083 0 1.654379 0 2.486675 2.486675 0 4.978455 0 7.46513 0 0 0.827189 0 1.654379 0 2.486675 1.659485 0 3.324076 0 4.978455 0 0 0.827189 0 1.654379 0 2.486675 2.481568 0 4.973349 0 7.460024 0 0 0.822083 0 1.654379 0 2.486675 2.486675 0 4.978455 0 7.460024 0 0 0.827189 0 1.654379 0 2.486675 1.664591 0 3.313864 0 4.978455 0 0 0.822083 0 1.654379 0 2.486675 4.151266 0.822083 8.287213 1.654379 12.438479 2.486675 0 0.827189 0 1.654379 0 2.486675 4.978455 0.822083 9.946698 1.654379 14.925154 2.486675 0 0.822083 0 1.654379 0 2.486675 1.664591 0 3.308758 0 4.978455 0 0 0.827189 0 1.654379 0 2.486675 4.973349 0.822083 9.946698 1.654379 14.925154 2.486675 0 0.827189 0 1.659485 0 2.486675 1.659485 0 3.308758 0 4.973349 0 0 0.827189 0 1.654379 0 2.486675 4.978455 0.822083 9.951804 1.654379 14.925154 2.486675 0 0.827189 0 1.654379 0 2.486675 1.664591 0 3.308758 0 4.978455 0 0 0.827189 0 1.654379 0 2.486675 2.486675 0 4.978455 0 7.460024 0 0 0.822083 0 1.654379 0 2.486675 1.664591 0 3.308758 0 4.978455 0 0 0.827189 0 1.654379 0 2.486675 2.486675 0 4.978455 0 7.460024 0 0 0.822083 0 1.654379 0 2.486675 2.486675 0 4.978455 0 7.46513 0 0 0.822083 0 1.654379 0 2.486675 1.664591 0 3.308758 0 4.978455 0 0 0.827189 0 1.654379 0 2.486675 4.973349 0.822083 9.946698 1.654379 14.920048 2.486675 14.659636 6.54603 31.468943 14.113282 47.262135 19.898503-2.486675 26.526231-4.978455 53.057568-7.460024 79.583799-0.827189 0-1.664591 0-2.486675 0-1.664591 19.898503-3.308758 39.802112-4.978455 59.695508-0.822083 0-1.659485 0-2.486675 0 0 5.805645 0 11.61129 0 17.411828-0.822083 0-1.659485 0-2.481568 0 0 6.627728 0 13.270775 0 19.898503-0.827189 0-1.664591 0-2.486675 0 0 6.627728 0 13.265669 0 19.908715-0.827189 0-1.664591 0-2.486675 0 0 6.622622 0 13.260562 0 19.893397-3.308758 22.369859-6.63794 44.775461-9.946698 67.140214-87.881224-10.768782-175.777767-21.547776-263.658991-32.316557C667.092924 569.117265 667.12356 548.177116 671.907983 531.229944zM965.417282 976.451923c-88.703308-20.725692-177.442358-41.461597-266.145666-62.187289-4.677195-24.902489-3.186211-58.403663-9.946698-82.080686 0-8.287213 0-16.56932 0-24.871852-0.822083 0-1.644167 0-2.486675 0-0.822083-17.411828-1.644167-34.823656-2.486675-52.230378-0.822083 0-1.644167 0-2.481568 0 0-8.287213 0-16.574426 0-24.871852-0.827189 0-1.649273 0-2.486675 0 0-8.287213 0-16.574426 0-24.876958-0.827189 0-1.649273 0-2.486675 0-1.649273-25.693935-3.308758-51.392977-4.978455-77.107337 19.46959 0.311473 41.242034 2.890057 57.208834 7.475342 6.63794 0 13.280987 0 19.898503 0 0 0.827189 0 1.649273 0 2.471356 6.63794 0 13.275881 0 19.893397 0 0 0.842508 0 1.664591 0 2.501993 6.63794 0 13.280987 0 19.898503 0 0 0.822083 0 1.649273 0 2.471356 6.63794 0 13.275881 0 19.893397 0 0 0.837402 0 1.659485 0 2.501993 6.643046 0 13.265669 0 19.898503 0 0 0.822083 0 1.644167 0 2.46625 6.63794 0 13.260562 0 19.898503 0 0 0.842508 0 1.664591 0 2.501993 5.795433 0 11.606183 0 17.406722 0 0 0.827189 0 1.649273 0 2.471356 6.63794 0 13.265669 0 19.898503 0 0 0.837402 0 1.664591 0 2.501993 11.825746 3.390456 32.020403-1.61353 39.797006 4.978455 7.010686 7.664268 1.644167 20.705268 4.978455 32.316557 0.822083 0 1.659485 0 2.481568 0 0 6.63794 0 13.280987 0 19.898503 0.827189 0 1.664591 0 2.486675 0 0 7.460024 0 14.925154 0 22.385177 0.822083 0 1.664591 0 2.486675 0 0 6.63794 0 13.280987 0 19.898503 9.032705 31.59149 5.87713 73.002026 14.925154 104.465863 0 7.46513 0 14.925154 0 22.390283 0.822083 0 1.664591 0 2.486675 0 0 6.63794 0 13.275881 0 19.893397 0.822083 0 1.659485 0 2.486675 0 0 6.63794 0 13.280987 0 19.898503 0.822083 0 1.659485 0 2.481568 0 3.640655 12.683572-2.062868 33.87392 4.978455 42.28368C965.417282 968.159603 965.417282 972.310869 965.417282 976.451923z" />

</svg>
