<?xml version="1.0" encoding="utf-8"?>
<!DOCTYPE svg PUBLIC "-//W3C//DTD SVG 1.1//EN" "http://www.w3.org/Graphics/SVG/1.1/DTD/svg11.dtd">
<svg style="width:308px;height:308px;" version="1.1" id="图形" xmlns="http://www.w3.org/2000/svg" xmlns:xlink="http://www.w3.org/1999/xlink" x="0px" y="0px" width="1024px" height="1024px" viewBox="0 0 1024 1024" enable-background="new 0 0 1024 1024" xml:space="preserve">
  <path class="svgpath" data-index="path_0" fill="#272636" d="M 44.74 204.972 h 948.356 c 17.492 0 31.643 -14.149 31.643 -31.601 c 0 -17.471 -14.15 -31.621 -31.643 -31.621 h -948.356 c -17.451 0 -31.601 14.149 -31.601 31.621 c 0.001 17.452 14.15 31.601 31.601 31.601 Z M 993.097 837.218 h -948.356 c -17.451 0 -31.601 14.15 -31.601 31.623 c 0 17.471 14.149 31.6 31.601 31.6 h 948.356 c 17.492 0 31.643 -14.129 31.643 -31.6 c 0.002 -17.473 -14.149 -31.623 -31.641 -31.623 Z M 993.097 489.485 h -948.356 c -17.451 0 -31.601 14.128 -31.601 31.62 c 0 17.453 14.149 31.602 31.601 31.602 h 948.356 c 17.492 0 31.643 -14.149 31.643 -31.602 c 0.002 -17.492 -14.149 -31.62 -31.641 -31.62 Z" />

</svg>
