<?xml version="1.0" encoding="utf-8"?>
<!DOCTYPE svg PUBLIC "-//W3C//DTD SVG 1.1//EN" "http://www.w3.org/Graphics/SVG/1.1/DTD/svg11.dtd">
<svg style="width:308px;height:308px;" version="1.1" id="图形" xmlns="http://www.w3.org/2000/svg" xmlns:xlink="http://www.w3.org/1999/xlink" x="0px" y="0px" width="1024px" height="1024px" viewBox="0 0 1024 1024" enable-background="new 0 0 1024 1024" xml:space="preserve">
  <path class="svgpath" data-index="path_0" fill="#272636" d="M504.533958 968.241069c-62.755276 0-123.643018-12.295024-180.972724-36.543288-55.364959-23.417339-105.08229-56.93778-147.773601-99.628068-42.691311-42.691311-76.210729-92.409666-99.628068-147.772578C51.9113 626.966405 39.616276 566.078663 39.616276 503.323387S51.9113 379.680369 76.159564 322.351686c23.417339-55.364959 56.936757-105.08229 99.628068-147.773601 42.691311-42.691311 92.409666-76.210729 147.773601-99.628068 57.329706-24.248264 118.217449-36.543288 180.972724-36.543288 62.755276 0 123.643018 12.295024 180.971701 36.543288 55.364959 23.417339 105.081267 56.936757 147.772578 99.628068s76.210729 92.409666 99.626022 147.773601c24.248264 57.328683 36.543288 118.217449 36.543288 180.972724s-12.295024 123.643018-36.543288 180.971701c-23.416316 55.364959-56.935734 105.08229-99.626022 147.773601s-92.408643 76.211752-147.772578 99.628068C628.176976 955.946045 567.289234 968.241069 504.533958 968.241069zM504.533958 75.980485c-57.69912 0-113.662713 11.296277-166.335353 33.5757-50.885947 21.522176-96.589872 52.338019-135.841851 91.591021-39.253002 39.251979-70.068845 84.955904-91.591021 135.841851-22.278399 52.67264-33.574676 108.636233-33.574676 166.335353 0 57.69912 11.296277 113.662713 33.574676 166.335353 21.523199 50.884924 52.338019 96.588849 91.591021 135.840828 39.251979 39.251979 84.955904 70.068845 135.841851 91.591021 52.67264 22.278399 108.636233 33.5757 166.335353 33.5757 57.69912 0 113.661689-11.296277 166.334329-33.5757 50.885947-21.522176 96.588849-52.338019 135.840828-91.591021 39.251979-39.251979 70.067822-84.955904 91.589998-135.840828 22.278399-52.673663 33.574676-108.636233 33.574676-166.335353s-11.295254-113.662713-33.574676-166.335353c-21.522176-50.885947-52.338019-96.589872-91.589998-135.841851-39.251979-39.253002-84.955904-70.068845-135.840828-91.591021C618.195647 87.275739 562.233078 75.980485 504.533958 75.980485z" />
<path class="svgpath" data-index="path_1" fill="#272636" d="M817.651328 522.511401 176.548972 522.511401c-10.376325 0-18.786878-8.411577-18.786878-18.786878s8.411577-18.786878 18.786878-18.786878l641.102357 0c10.376325 0 18.786878 8.411577 18.786878 18.786878S828.027653 522.511401 817.651328 522.511401z" />

</svg>
