<?xml version="1.0" encoding="utf-8"?>
<!DOCTYPE svg PUBLIC "-//W3C//DTD SVG 1.1//EN" "http://www.w3.org/Graphics/SVG/1.1/DTD/svg11.dtd">
<svg style="width:308px;height:308px;" version="1.1" id="图形" xmlns="http://www.w3.org/2000/svg" xmlns:xlink="http://www.w3.org/1999/xlink" x="0px" y="0px" width="1024px" height="1024px" viewBox="0 0 1024 1024" enable-background="new 0 0 1024 1024" xml:space="preserve">
  <path class="svgpath" data-index="path_0" fill="#272636" d="M953.484993 98.533131l0 633.682363-0.010233 4.625344c0.010233 51.656497-14.223956 94.727455-43.521213 131.658575-25.869181 32.592302-69.64622 54.951543-117.096928 59.82248-43.122123 4.420683-83.890642-6.426363-111.847367-29.767977-30.842449-25.736151-47.573505-64.23293-47.113017-108.388593 0.450255-42.600237 16.997116-85.599563 46.611597-121.067356 41.97602-50.275034 103.302761-76.737732 160.055322-69.073168 11.205203 1.514493 19.053961 11.82942 17.539468 23.024389-1.514493 11.205203-11.819187 19.053961-23.024389 17.539468-20.271696-2.742461-42.24208 0.613984-63.526849 9.711176-22.410406 9.578146-43.030026 25.152866-59.628052 45.035706-47.665603 57.090253-49.76338 134.165676-4.686742 171.802878 19.545148 16.311501 49.231261 23.76117 81.44494 20.466124 36.705993-3.765767 70.055542-20.425192 89.201601-44.554752 23.658839-29.80891 34.669614-63.567781 34.659381-106.249883l0.010233-4.615111 0-613.113909-496.262574 1.688455-0.020466 616.715947 0 0.378623c-1.064238 57.489342-12.750395 92.394317-43.132356 128.772852-29.389354 35.211966-69.789483 57.724703-113.771183 63.404052-7.071046 0.910743-14.131859 1.360997-21.110807 1.360997-35.334763 0.010233-68.909439-11.512195-94.451162-32.827663-30.832216-25.756617-47.563272-64.243163-47.102784-108.398826 0.440022-42.600237 16.997116-85.599563 46.601364-121.067356 38.650275-46.294372 93.601818-72.542176 147.049101-70.229504 7.15291 0.317225 14.264888 1.156336 21.131273 2.496867 11.082406 2.179642 18.317181 12.93459 16.137539 24.02723-2.179642 11.092639-12.93459 18.317181-24.02723 16.147772-4.850471-0.961908-9.905604-1.555425-15.011902-1.77032-19.268856-0.849344-39.724747 3.571339-59.167564 12.750395-20.466124 9.670244-39.376823 24.467251-54.685483 42.815131-23.576975 28.233018-36.757159 62.063521-37.105083 95.259574-0.327458 31.630395 11.184737 58.81964 32.41834 76.543304 21.85782 18.24555 52.505841 26.380834 84.074837 22.297842 33.728172-4.359284 64.836681-21.765723 87.605244-49.036833 24.211425-29.010731 32.704866-55.04364 33.615609-103.118566l0.020466-636.916011c0-11.276834 9.117658-20.425192 20.394493-20.466124l537.194822-1.831718 0.071631 0c5.41329 0 10.611685 2.148943 14.449084 5.965875C951.325817 87.880513 953.484993 93.089142 953.484993 98.533131z" />

</svg>
