<?xml version="1.0" encoding="utf-8"?>
<!DOCTYPE svg PUBLIC "-//W3C//DTD SVG 1.1//EN" "http://www.w3.org/Graphics/SVG/1.1/DTD/svg11.dtd">
<svg style="width:308px;height:308px;" version="1.1" id="图形" xmlns="http://www.w3.org/2000/svg" xmlns:xlink="http://www.w3.org/1999/xlink" x="0px" y="0px" width="1024px" height="1024px" viewBox="0 0 1024 1024" enable-background="new 0 0 1024 1024" xml:space="preserve">
  <path class="svgpath" data-index="path_0" fill="#272636" d="M959.664739 318.481542c-24.582885-58.121745-59.772338-110.315478-104.59008-155.13322C810.256918 118.529557 758.062162 83.341127 699.940416 58.757219 639.755686 33.301454 575.835887 20.394493 509.955434 20.394493c-65.880453 0-129.801275 12.906961-189.984982 38.362726-58.121745 24.582885-110.315478 59.772338-155.13322 104.59008-44.817742 44.817742-80.007195 97.011474-104.59008 155.13322-25.455765 60.183707-38.362726 124.104529-38.362726 189.984982 0 65.880453 12.906961 129.801275 38.362726 189.984982 24.582885 58.121745 59.772338 110.316501 104.59008 155.134243 44.817742 44.817742 97.011474 80.007195 155.13322 104.59008 60.183707 25.455765 124.104529 38.362726 189.984982 38.362726 79.656201 0 158.710698-19.623943 228.616838-56.748469l0.536212-0.296759c0.700965-0.402159 70.78516-40.253796 132.322701-44.914956 10.345626-0.783853 18.098193-9.806343 17.314341-20.151969-0.783853-10.344602-9.79918-18.10331-20.151969-17.314341-68.466348 5.185093-141.886521 46.209438-147.890258 49.623187-64.437591 34.169217-137.308249 52.228525-210.746842 52.228525-60.824297 0-119.819946-11.908214-175.34761-35.395138-53.642734-22.688745-101.822037-55.1736-143.201469-96.553033-41.379433-41.379433-73.864288-89.559758-96.553033-143.201469-23.485901-55.527664-35.394115-114.523313-35.394115-175.34761s11.908214-119.819946 35.394115-175.34761c22.688745-53.642734 55.1736-101.822037 96.553033-143.201469 41.379433-41.379433 89.558735-73.864288 143.201469-96.553033 55.527664-23.485901 114.523313-35.394115 175.34761-35.394115s119.820969 11.908214 175.34761 35.394115c53.642734 22.688745 101.82306 55.1736 143.201469 96.553033 41.379433 41.379433 73.864288 89.558735 96.553033 143.201469 23.486924 55.527664 35.395138 114.523313 35.395138 175.34761 0 50.453089-8.274454 99.980086-24.594141 147.20362-15.776312 45.652759-38.753629 88.317465-68.292386 126.810151l-0.140193 0.185218c-0.073678 0.098237-7.43432 9.912767-14.481829 17.549701-7.036253 7.625678-6.558369 19.511379 1.067308 26.547633 7.624654 7.03523 19.510356 6.558369 26.547633-1.067308 8.04728-8.721639 15.942087-19.175735 16.876366-20.421098 31.972179-41.680285 56.849776-87.887676 73.936943-137.331785 17.686824-51.18066 26.65508-104.835673 26.65508-159.476131C998.027465 442.586071 985.120504 378.665249 959.664739 318.481542z" />
<path class="svgpath" data-index="path_1" fill="#272636" d="M375.953488 371.634112c4.808516 0 9.616008-1.833765 13.284561-5.502317 7.336082-7.337105 7.336082-19.232017 0-26.569122L264.624936 214.94956c-7.337105-7.337105-19.232017-7.337105-26.569122 0-7.336082 7.337105-7.336082 19.232017 0 26.569122l124.612089 124.612089C366.337479 369.799324 371.144972 371.634112 375.953488 371.634112z" />
<path class="svgpath" data-index="path_2" fill="#272636" d="M660.931984 366.130771l124.612089-124.612089c7.337105-7.337105 7.337105-19.232017 0-26.569122-7.335059-7.337105-19.23304-7.337105-26.568099 0L634.363885 339.561649c-7.337105 7.337105-7.337105 19.232017 0 26.569122 3.667529 3.668553 8.476045 5.502317 13.283538 5.502317S657.264455 369.799324 660.931984 366.130771z" />
<path class="svgpath" data-index="path_3" fill="#272636" d="M802.190195 438.031335c10.376325 0 18.786878-8.411577 18.786878-18.786878s-8.411577-18.786878-18.786878-18.786878L217.720673 400.457578c-10.376325 0-18.786878 8.411577-18.786878 18.786878s8.411577 18.786878 18.786878 18.786878l273.018094 0 0 173.779905-273.018094 0c-10.376325 0-18.786878 8.411577-18.786878 18.786878s8.411577 18.786878 18.786878 18.786878l273.018094 0 0 221.913159c0 10.376325 8.411577 18.786878 18.786878 18.786878s18.786878-8.411577 18.786878-18.786878L528.312524 649.38602l273.877671 0c10.376325 0 18.786878-8.411577 18.786878-18.786878s-8.411577-18.786878-18.786878-18.786878l-273.877671 0L528.312524 438.031335 802.190195 438.031335z" />

</svg>
