<?xml version="1.0" encoding="utf-8"?>
<!DOCTYPE svg PUBLIC "-//W3C//DTD SVG 1.1//EN" "http://www.w3.org/Graphics/SVG/1.1/DTD/svg11.dtd">
<svg style="width:308px;height:308px;" version="1.1" id="图形" xmlns="http://www.w3.org/2000/svg" xmlns:xlink="http://www.w3.org/1999/xlink" x="0px" y="0px" width="1024px" height="1024px" viewBox="0 0 1024 1024" enable-background="new 0 0 1024 1024" xml:space="preserve">
  <path class="svgpath" data-index="path_0" fill="#272636" d="M940.8 64C924.6 72 88.3 464.3 88.3 464.3c-53.2 47.8 0 95.5 0 95.5L340 686c0 0 83 166.4 116.2 232.9 33.2 66.5 97.8 33.1 107 9.1 9.2-24 390-830.4 396.8-844.8S957 56 940.8 64zM104.6 510.1c0.1-4.2 3.2-8.7 6.7-12.4 61.6-28.9 506.3-237.5 725.7-340.6L351.8 647.2l-239.3-120C108.9 522.7 104.6 515.8 104.6 510.1zM526.8 911.3c-2.4 2.3-9.1 6.6-16.2 6.6-2.5 0-10.1 0-18.6-17-28.8-57.5-95.6-191.5-112.4-225.1l490-494.9C565.4 825.7 531.9 899.2 526.8 911.3z" />

</svg>
