<?xml version="1.0" encoding="utf-8"?>
<!DOCTYPE svg PUBLIC "-//W3C//DTD SVG 1.1//EN" "http://www.w3.org/Graphics/SVG/1.1/DTD/svg11.dtd">
<svg style="width:308px;height:308px;" version="1.1" id="图形" xmlns="http://www.w3.org/2000/svg" xmlns:xlink="http://www.w3.org/1999/xlink" x="0px" y="0px" width="1024px" height="1024px" viewBox="0 0 1024 1024" enable-background="new 0 0 1024 1024" xml:space="preserve">
  <path class="svgpath" data-index="path_0" fill="#272636" d="M437.708993 906.640082c-209.626321 0-426.457742-100.713796-426.457742-269.220604 0-84.822874 53.335742-183.206602 150.206-276.997732 92.660376-89.633437 197.937095-145.311527 274.738271-145.311527 29.985942 0 55.04671 8.940626 72.462359 25.77606 18.262946 17.658172 35.677571 50.862411 21.497617 110.724801 105.896842-40.22412 194.715727-35.502585 229.824339 12.998035 19.905352 27.477818 21.157879 64.014966 3.706415 108.709911 0.083911 0.029676 0.147356 0.029676 0.212848 0.060375 83.046415 24.928762 132.464941 80.06757 132.464941 147.610896 0.001023 135.113257-188.353832 285.650809-458.656071 285.650809L437.708993 906.640082zM436.19757 257.032004c-63.760163 0-161.865551 53.44012-244.116857 133.007293C103.390765 475.927433 54.540174 563.770084 54.540174 637.418454c0 142.287657 194.829314 227.296773 383.167796 227.296773 257.340019 0 415.369196-141.943826 415.369196-243.728 0-71.412446-77.894068-100.368942-101.749382-107.510596-10.407024-2.991124-23.642466-6.800893-30.263258-19.987217-6.697539-13.374612-1.072425-27.098171 0.782829-31.629371 9.205663-22.376637 17.138332-53.251831 2.685155-73.206302-13.661138-18.853393-42.346457-22.817682-64.023152-22.817682-35.124985 0-78.396511 10.006911-125.164674 28.954449-2.651386 1.133823-13.154601 5.225001-23.791869 5.225001-14.244422 0-21.756513-7.1744-24.977881-11.422144-4.16281-5.539156-8.096399-15.266705-3.15383-30.121018 13.05841-40.634466 11.17348-71.946612-5.365194-87.934748-9.267061-8.967232-23.350824-13.501502-41.857317-13.501502L436.198593 257.032004zM985.431589 468.848201c-9.201569 0-16.652262-7.145747-16.652262-16.053628l0-0.154519c0-1.669012 0.277316-3.338025 0.816598-4.944616 26.112728-78.366835 7.006578-164.948773-49.891294-225.976708-56.995085-61.056588-144.124492-88.438215-227.383754-71.222111-9.024537 1.665942-17.839297-3.715625-19.757996-12.434194-1.902326-8.685823 3.836375-17.244756 12.83226-19.105127 94.834902-19.417235 194.09765 11.615549 259.029498 81.170694 64.735373 69.430302 86.559425 167.878498 56.995085 257.010515C999.402789 463.873909 993.011218 468.848201 985.431589 468.848201L985.431589 468.848201zM860.609723 429.757904c-1.691525 0-3.431146-0.25071-5.139044-0.786922-8.748245-2.739391-13.532201-11.833513-10.69969-20.300348 11.856026-35.406394 3.254114-74.495668-22.440082-102.003162-25.629727-27.539216-64.98199-39.815821-102.628402-32.04074-8.991792 1.605567-17.853623-3.712555-19.754926-12.398378-1.905396-8.718569 3.836375-17.280572 12.82919-19.137873 49.255821-10.197246 100.740402 5.949502 134.290519 41.984207 33.626865 36.006052 44.896536 87.181595 29.384237 133.541459-2.278903 6.795776-8.815783 11.140735-15.839757 11.140735L860.609723 429.757904z" />

</svg>
