<?xml version="1.0" encoding="utf-8"?>
<!DOCTYPE svg PUBLIC "-//W3C//DTD SVG 1.1//EN" "http://www.w3.org/Graphics/SVG/1.1/DTD/svg11.dtd">
<svg style="width:308px;height:308px;" version="1.1" id="图形" xmlns="http://www.w3.org/2000/svg" xmlns:xlink="http://www.w3.org/1999/xlink" x="0px" y="0px" width="1024px" height="1024px" viewBox="0 0 1024 1024" enable-background="new 0 0 1024 1024" xml:space="preserve">
  <path class="svgpath" data-index="path_0" fill="#272636" d="M785.352203 933.397493c-4.074805 0-8.151657-0.970094-11.833513-3.007497l-261.311471-142.488225L250.942821 930.388972c-8.343015 4.559852-18.527982 3.8814-26.28669-1.599428-7.760754-5.5279-11.640108-14.987343-10.088776-24.347524l47.578622-285.365306L72.563154 429.470355c-6.594185-6.547113-8.971325-16.295128-6.110161-25.122167 2.814092-8.850575 10.379395-15.397688 19.546172-16.949021l285.512662-47.577598 118.529557-236.989529c4.172019-8.391111 12.803607-13.701047 22.165836-13.701047 9.359158 0 17.992793 5.309936 22.163789 13.701047l118.529557 236.989529 285.511639 47.577598c9.217942 1.551332 16.73208 8.051373 19.593244 16.949021 2.813069 8.875135 0.48607 18.575054-6.109138 25.122167L762.264369 619.077737l47.577598 285.365306c1.50119 9.360182-2.37714 18.819624-10.087753 24.347524C795.487028 931.797042 790.394033 933.397493 785.352203 933.397493z" />

</svg>
