<?xml version="1.0" encoding="utf-8"?>
<!DOCTYPE svg PUBLIC "-//W3C//DTD SVG 1.1//EN" "http://www.w3.org/Graphics/SVG/1.1/DTD/svg11.dtd">
<svg style="width:308px;height:308px;" version="1.1" id="图形" xmlns="http://www.w3.org/2000/svg" xmlns:xlink="http://www.w3.org/1999/xlink" x="0px" y="0px" width="1024px" height="1024px" viewBox="0 0 1024 1024" enable-background="new 0 0 1024 1024" xml:space="preserve">
  <path class="svgpath" data-index="path_0" fill="#272636" d="M627.2 115.2c-153.6 0-281.6 128-281.6 281.6 0 70.4 25.6 134.4 64 179.2 0 0 0 0 0 0L281.6 704 160 582.4c-12.8-12.8-25.6-12.8-38.4 0-12.8 12.8-12.8 25.6 0 38.4l121.6 121.6-121.6 121.6c-12.8 12.8-12.8 25.6 0 38.4 6.4 6.4 12.8 6.4 19.2 6.4s12.8 0 19.2-6.4l121.6-121.6L403.2 896c6.4 6.4 12.8 6.4 19.2 6.4 6.4 0 12.8 0 19.2-6.4 12.8-12.8 12.8-25.6 0-38.4L320 742.4l121.6-121.6c0 0 0 0 0 0 51.2 38.4 108.8 64 179.2 64 153.6 0 281.6-128 281.6-281.6C908.8 243.2 780.8 115.2 627.2 115.2zM627.2 627.2c-128 0-230.4-102.4-230.4-230.4 0-128 102.4-230.4 230.4-230.4s230.4 102.4 230.4 230.4C857.6 524.8 748.8 627.2 627.2 627.2z" />

</svg>
