<?xml version="1.0" standalone="no"?><!DOCTYPE svg PUBLIC "-//W3C//DTD SVG 1.1//EN" "http://www.w3.org/Graphics/SVG/1.1/DTD/svg11.dtd"><svg width="200" height="200" viewBox="0 0 200 200" version="1.1" xmlns="http://www.w3.org/2000/svg" xmlns:xlink="http://www.w3.org/1999/xlink"><defs><style type="text/css"><![CDATA[
@font-face { font-family: ifont; src: url("//at.alicdn.com/t/font_1442373896_4754455.eot?#iefix") format("embedded-opentype"), url("//at.alicdn.com/t/font_1442373896_4754455.woff") format("woff"), url("//at.alicdn.com/t/font_1442373896_4754455.ttf") format("truetype"), url("//at.alicdn.com/t/font_1442373896_4754455.svg#ifont") format("svg"); }

]]></style></defs><g class="transform-group"><g transform="scale(0.1953125, 0.1953125)"><path d="M933.555728 91.089525 90.446704 91.089525c-42.323971 0-76.647049 34.318213-76.647049 76.647049l0 689.810061c0 42.333702 34.323078 76.644616 76.647049 76.644616l843.107807 0c42.32762 0 76.645833-34.310915 76.645833-76.644616L1010.200344 167.736574C1010.200344 125.402872 975.877267 91.089525 933.555728 91.089525L933.555728 91.089525zM933.555728 857.546634 90.446704 857.546634 90.446704 167.741439l843.107807 0L933.554512 857.546634 933.555728 857.546634zM282.06311 435.995163c42.332485 0 76.645833-34.318213 76.645833-76.642184 0-42.351946-34.318213-76.650698-76.645833-76.650698-42.291131 0-76.647049 34.298752-76.647049 76.650698C205.416061 401.686681 239.767114 435.995163 282.06311 435.995163L282.06311 435.995163zM665.295922 397.676504 438.164454 710.86197 320.38177 550.96452 128.769013 819.23284l766.461975 0L665.295922 397.681369 665.295922 397.676504zM665.295922 397.676504" fill="#00bb9c"></path></g></g></svg>