<?xml version="1.0" standalone="no"?><!DOCTYPE svg PUBLIC "-//W3C//DTD SVG 1.1//EN" "http://www.w3.org/Graphics/SVG/1.1/DTD/svg11.dtd"><svg width="200" height="200" viewBox="0 0 200 200" version="1.1" xmlns="http://www.w3.org/2000/svg" xmlns:xlink="http://www.w3.org/1999/xlink"><defs><style type="text/css"><![CDATA[
@font-face { font-family: ifont; src: url("//at.alicdn.com/t/font_1442373896_4754455.eot?#iefix") format("embedded-opentype"), url("//at.alicdn.com/t/font_1442373896_4754455.woff") format("woff"), url("//at.alicdn.com/t/font_1442373896_4754455.ttf") format("truetype"), url("//at.alicdn.com/t/font_1442373896_4754455.svg#ifont") format("svg"); }

]]></style></defs><g class="transform-group"><g transform="scale(0.1953125, 0.1953125)"><path d="M533.632 25.216c-11.136 0-20.096 8.96-20.096 20.096 0 11.136 8.96 20.096 20.096 20.096 230.528 0 418.048 187.52 418.048 418.048 0 11.136 8.96 20.096 20.096 20.096 11.136 0 20.096-8.96 20.096-20.096C992 230.784 786.432 25.216 533.632 25.216L533.632 25.216zM533.632 25.216M533.632 153.984c-11.136 0-20.096 8.96-20.096 20.096 0 11.136 8.96 20.096 20.096 20.096 159.616 0 289.408 129.792 289.408 289.28 0 11.136 8.96 20.096 20.096 20.096 11.136 0 20.096-8.96 20.096-20.096C863.36 301.696 715.392 153.984 533.632 153.984L533.632 153.984zM533.632 153.984M365.184 181.248c-4.864-3.072-10.88-4.224-16.384-2.56-5.504 1.536-10.24 5.376-12.672 10.624L160 555.52c-4.352 9.088-1.408 19.968 7.04 25.6 2.176 1.408 4.48 2.944 6.656 4.48l-90.24 90.112C50.304 708.736 32 752.896 32 799.872s18.304 91.136 51.456 124.288c33.152 33.152 77.312 51.456 124.288 51.456 38.272 0 74.624-12.16 104.704-34.56 1.024 2.688 2.56 5.12 4.608 7.296 32.128 32 72.704 50.432 111.36 50.432l0.128 0c27.392 0 50.944-9.344 68.48-26.88 7.808-7.808 7.808-20.608-0.128-28.416-7.808-7.808-20.608-7.808-28.416 0.128-12.288 12.288-28.544 14.976-39.936 14.976l-0.128 0c-27.648 0-58.624-14.464-82.944-38.656-1.664-1.664-3.456-2.944-5.376-3.84l82.048-82.048c1.536 2.176 2.944 4.48 4.48 6.656 3.84 5.888 10.24 9.088 16.896 9.088 2.944 0 6.016-0.64 8.704-2.048l366.208-176c5.248-2.56 9.088-7.168 10.752-12.8 1.536-5.632 0.64-11.648-2.56-16.512C705.024 457.728 549.76 302.464 365.184 181.248L365.184 181.248zM303.616 895.616c-51.2 51.2-140.544 51.2-191.744 0-25.6-25.6-39.68-59.648-39.68-95.744 0-36.224 14.08-70.272 39.68-95.872l95.232-95.104c73.344 54.016 137.6 118.144 191.616 191.616L303.616 895.616 303.616 895.616zM303.616 895.616" fill="#9d55b8"></path></g></g></svg>