<?xml version="1.0" standalone="no"?><!DOCTYPE svg PUBLIC "-//W3C//DTD SVG 1.1//EN" "http://www.w3.org/Graphics/SVG/1.1/DTD/svg11.dtd"><svg width="128" height="128" viewBox="0 0 128 128" version="1.1" xmlns="http://www.w3.org/2000/svg" xmlns:xlink="http://www.w3.org/1999/xlink"><defs><style type="text/css"><![CDATA[
@font-face { font-family: ifont; src: url("//at.alicdn.com/t/font_1442373896_4754455.eot?#iefix") format("embedded-opentype"), url("//at.alicdn.com/t/font_1442373896_4754455.woff") format("woff"), url("//at.alicdn.com/t/font_1442373896_4754455.ttf") format("truetype"), url("//at.alicdn.com/t/font_1442373896_4754455.svg#ifont") format("svg"); }

]]></style></defs><g class="transform-group"><g transform="scale(0.125, 0.125)"><path d="M779.428 278.914c-8.483 0-12.725 0-21.21 4.242v-4.242c-8.483-63.629-50.902-118.777-114.531-152.71l29.693-42.42c4.242-4.242 4.242-8.484 4.242-12.725 0-12.726-8.484-21.21-21.21-21.21-8.484 0-12.725 4.24-16.967 8.483v0l-33.936 46.661c-29.693-8.484-63.629-16.967-97.564-16.967s-67.871 4.242-97.564 16.967l-29.694-46.661c-4.242-4.242-12.725-8.483-16.967-8.483-12.726 0-21.21 8.483-21.21 21.21 0 4.24 0 8.483 4.242 12.725v0l29.693 42.42c-63.629 33.935-110.29 89.082-114.531 152.71v0 4.242c-8.484-4.242-16.969-4.242-25.452-4.242-33.936 0-63.629 29.693-63.629 63.629v292.693c0 33.935 29.693 63.629 63.629 63.629 8.483 0 12.725 0 21.21-4.242v67.871c0 21.21 16.967 42.42 42.42 42.42h42.42v106.048c0 33.935 29.693 63.629 63.629 63.629 33.935 0 63.629-29.694 63.629-63.629v-106.048h84.838v106.048c0 33.935 29.693 63.629 63.629 63.629 33.935 0 63.629-29.694 63.629-63.629v-106.048h42.42c21.21 0 42.42-16.967 42.42-42.42v-67.871c8.483 4.242 12.725 4.242 21.21 4.242 33.935 0 53.271-29.694 53.271-63.629v-292.693c0-35.082-27.821-63.629-61.757-63.629v0zM257.669 630.995c0 12.726-8.484 21.21-21.21 21.21s-21.21-8.483-21.21-21.21v-288.451c0-12.726 8.483-21.21 21.21-21.21 12.725 0 21.21 8.483 21.21 21.21v288.451zM507.943 134.689c106.048 0 195.13 63.629 207.855 144.226h-415.71c12.725-80.596 101.806-144.226 207.855-144.226v0zM423.105 902.48c0 12.726-8.484 21.21-21.21 21.21s-21.21-8.484-21.21-21.21v-106.048h42.42v106.048zM630.96 902.48c0 12.726-8.483 21.21-21.21 21.21-12.725 0-21.21-8.484-21.21-21.21v-106.048h42.42v106.048zM715.798 758.254h-415.71v-436.921h415.71v436.921zM800.637 630.995c0 12.726-8.483 21.21-21.21 21.21-12.725 0-21.21-8.483-21.21-21.21v-288.451c0-12.726 8.484-21.21 21.21-21.21s21.21 8.483 21.21 21.21v288.451zM444.315 215.285v0zM423.105 215.285v0zM571.573 215.285v0zM550.364 215.285v0z" fill="#11cd6e"></path></g></g></svg>