<?xml version="1.0" standalone="no"?><!DOCTYPE svg PUBLIC "-//W3C//DTD SVG 1.1//EN" "http://www.w3.org/Graphics/SVG/1.1/DTD/svg11.dtd"><svg width="128" height="128" viewBox="0 0 128 128" version="1.1" xmlns="http://www.w3.org/2000/svg" xmlns:xlink="http://www.w3.org/1999/xlink"><defs><style type="text/css"><![CDATA[
@font-face { font-family: ifont; src: url("//at.alicdn.com/t/font_1442373896_4754455.eot?#iefix") format("embedded-opentype"), url("//at.alicdn.com/t/font_1442373896_4754455.woff") format("woff"), url("//at.alicdn.com/t/font_1442373896_4754455.ttf") format("truetype"), url("//at.alicdn.com/t/font_1442373896_4754455.svg#ifont") format("svg"); }

]]></style></defs><g class="transform-group"><g transform="scale(0.125, 0.125)"><path d="M364.99 1005.588l-3.625-0.025c-97.125-1.825-178.095-132.31-221.494-253.825-52.333-146.525-35.785-268.101 49.188-361.329 52.841-57.994 115.227-70.173 158.261-70.173 43.15 0 74.514 11.997 75.831 12.507l73.942 23.889 102.109-33.018c23.942-5.959 46.163-8.803 67.445-8.803 123.494 0 179.229 92.497 181.524 96.434l12.442 21.165-23.239 7.94c-3.051 1.094-78.349 29.366-81.139 143.367-2.843 114.157 99.865 154.010 104.246 155.652l17.942 6.731-5.895 18.256c-1.537 4.694-38.417 115.93-113.063 191.515-32.393 32.81-64.003 48.095-99.501 48.095-18.204 0-37.166-3.911-61.445-12.726-45.358-16.405-76.732-20.759-77.043-20.812-43.202 0.182-64.422 9.363-84.946 18.256-19.172 8.323-38.995 16.9-71.543 16.9zM347.322 360.302c-50.845 0-94.14 19.206-128.658 57.091-74.213 81.424-88.023 189.388-41.051 320.889 40.035 112.123 112.619 225.889 184.51 227.218l2.87 0.025c24.241 0 38.079-6.001 55.607-13.588 23.148-10.016 49.373-21.388 101.142-21.388l5.035 0.182c1.435 0.182 35.601 4.825 85.39 22.847 19.716 7.147 34.453 10.327 47.807 10.327 24.387 0 46.292-11.163 70.992-36.202 51.849-52.501 84.685-126.781 97.438-159.382-36.486-19.664-114.966-74.958-112.228-185.593 2.478-100.96 53.388-148.532 84.529-168.277-19.876-22.625-63.221-59.582-134.059-59.582-18.022 0-37.035 2.438-56.491 7.25l-113.063 36.605-87.37-28.258c-1.294-0.458-27.153-10.172-62.401-10.172zM474.35 284.274l-1.787-19.418c-0.194-2.086-16.379-208.845 234.144-237.444l20.683-2.361 1.566 20.759c0.26 3.638 6.001 89.825-53.441 158.233-41.027 47.206-102.16 73.783-181.707 78.961l-19.457 1.264zM688.37 70.514c-148.532 26.055-172.475 126.741-175.733 170.479 57.744-7.289 102.212-28.402 132.335-62.88 32.261-36.905 41.103-81.581 43.398-107.599z" fill="#56abe4"></path></g></g></svg>