<?xml version="1.0" standalone="no"?>
<!DOCTYPE svg PUBLIC "-//W3C//DTD SVG 1.1//EN" "http://www.w3.org/Graphics/SVG/1.1/DTD/svg11.dtd" >
<svg xmlns="http://www.w3.org/2000/svg">
<metadata>Generated by IcoMoon</metadata>
<defs>
<font id="icomoon" horiz-adv-x="1024">
<font-face units-per-em="1024" ascent="960" descent="-64" />
<missing-glyph horiz-adv-x="1024" />
<glyph unicode="&#x20;" d="" horiz-adv-x="512" />
<glyph unicode="&#xf001;" d="M954.857 649.371q0-22.857-16-38.857l-491.429-491.429q-16-16-38.857-16t-38.857 16l-284.571 284.571q-16 16-16 38.857t16 38.857l77.714 77.714q16 16 38.857 16t38.857-16l168-168.571 374.857 375.429q16 16 38.857 16t38.857-16l77.714-77.714q16-16 16-38.857z" />
<glyph unicode="&#xf002;" d="M741.714 217.371q0-22.857-16-38.857l-77.714-77.714q-16-16-38.857-16t-38.857 16l-168 168-168-168q-16-16-38.857-16t-38.857 16l-77.714 77.714q-16 16-16 38.857t16 38.857l168 168-168 168q-16 16-16 38.857t16 38.857l77.714 77.714q16 16 38.857 16t38.857-16l168-168 168 168q16 16 38.857 16t38.857-16l77.714-77.714q16-16 16-38.857t-16-38.857l-168-168 168-168q16-16 16-38.857z" horiz-adv-x="805" />
<glyph unicode="&#xf003;" d="M402.286 255.086v-137.143q0-9.143-6.857-16t-16-6.857h-137.143q-9.143 0-16 6.857t-6.857 16v137.143q0 9.143 6.857 16t16 6.857h137.143q9.143 0 16-6.857t6.857-16zM582.857 597.943q0-30.857-8.857-57.714t-20-43.714-31.429-34-32.857-24.857-34.857-20.286q-23.429-13.143-39.143-37.143t-15.714-38.286q0-9.714-6.857-18.571t-16-8.857h-137.143q-8.571 0-14.571 10.571t-6 21.429v25.714q0 47.429 37.143 89.429t81.714 62q33.714 15.429 48 32t14.286 43.429q0 24-26.571 42.286t-61.429 18.286q-37.143 0-61.714-16.571-20-14.286-61.143-65.714-7.429-9.143-17.714-9.143-6.857 0-14.286 4.571l-93.714 71.429q-7.429 5.714-8.857 14.286t3.143 16q91.429 152 265.143 152 45.714 0 92-17.714t83.429-47.429 60.571-72.857 23.429-90.571z" horiz-adv-x="585" />
<glyph unicode="&#xf004;" d="M365.714 204.8v-73.143q0-14.857-10.857-25.714t-25.714-10.857h-292.571q-14.857 0-25.714 10.857t-10.857 25.714v73.143q0 14.857 10.857 25.714t25.714 10.857h36.571v219.429h-36.571q-14.857 0-25.714 10.857t-10.857 25.714v73.143q0 14.857 10.857 25.714t25.714 10.857h219.429q14.857 0 25.714-10.857t10.857-25.714v-329.143h36.571q14.857 0 25.714-10.857t10.857-25.714zM292.571 863.086v-109.714q0-14.857-10.857-25.714t-25.714-10.857h-146.286q-14.857 0-25.714 10.857t-10.857 25.714v109.714q0 14.857 10.857 25.714t25.714 10.857h146.286q14.857 0 25.714-10.857t10.857-25.714z" horiz-adv-x="366" />
<glyph unicode="&#xf005;" d="M292.571 259.657v-128q0-14.857-10.857-25.714t-25.714-10.857h-146.286q-14.857 0-25.714 10.857t-10.857 25.714v128q0 14.857 10.857 25.714t25.714 10.857h146.286q14.857 0 25.714-10.857t10.857-25.714zM309.714 863.086l-16-438.857q-0.571-14.857-11.714-25.714t-26-10.857h-146.286q-14.857 0-26 10.857t-11.714 25.714l-16 438.857q-0.571 14.857 10 25.714t25.429 10.857h182.857q14.857 0 25.429-10.857t10-25.714z" horiz-adv-x="366" />
<glyph unicode="&#xf006;" d="M298.667 469.334v-85.333h426.667v85.333h-426.667zM512 853.334c-235.733 0-426.667-190.933-426.667-426.667s190.933-426.667 426.667-426.667 426.667 190.933 426.667 426.667-190.933 426.667-426.667 426.667zM512 85.334c-188.16 0-341.333 153.173-341.333 341.333s153.173 341.333 341.333 341.333 341.333-153.173 341.333-341.333-153.173-341.333-341.333-341.333z" />
<glyph unicode="&#xf007;" d="M512 853.334c-235.733 0-426.667-190.933-426.667-426.667s190.933-426.667 426.667-426.667 426.667 190.933 426.667 426.667-190.933 426.667-426.667 426.667zM554.667 213.334h-85.333v256h85.333v-256zM554.667 554.667h-85.333v85.333h85.333v-85.333z" />
<glyph unicode="&#xf008;" d="M512 186.514v109.714q0 8-5.143 13.143t-13.143 5.143h-109.714q-8 0-13.143-5.143t-5.143-13.143v-109.714q0-8 5.143-13.143t13.143-5.143h109.714q8 0 13.143 5.143t5.143 13.143zM658.286 570.514q0 50.286-31.714 93.143t-79.143 66.286-97.143 23.429q-138.857 0-212-121.714-8.571-13.714 4.571-24l75.429-57.143q4-3.429 10.857-3.429 9.143 0 14.286 6.857 30.286 38.857 49.143 52.571 19.429 13.714 49.143 13.714 27.429 0 48.857-14.857t21.429-33.714q0-21.714-11.429-34.857t-38.857-25.714q-36-16-66-49.429t-30-71.714v-20.571q0-8 5.143-13.143t13.143-5.143h109.714q8 0 13.143 5.143t5.143 13.143q0 10.857 12.286 28.286t31.143 28.286q18.286 10.286 28 16.286t26.286 20 25.429 27.429 16 34.571 7.143 46.286zM877.714 460.8q0-119.429-58.857-220.286t-159.714-159.714-220.286-58.857-220.286 58.857-159.714 159.714-58.857 220.286 58.857 220.286 159.714 159.714 220.286 58.857 220.286-58.857 159.714-159.714 58.857-220.286z" />
<glyph unicode="&#xf009;" d="M469.333 213.334h85.333v256h-85.333v-256zM512 853.334c-235.733 0-426.667-190.933-426.667-426.667s190.933-426.667 426.667-426.667 426.667 190.933 426.667 426.667-190.933 426.667-426.667 426.667zM512 85.334c-188.16 0-341.333 153.173-341.333 341.333s153.173 341.333 341.333 341.333 341.333-153.173 341.333-341.333-153.173-341.333-341.333-341.333zM469.333 554.667h85.333v85.333h-85.333v-85.333z" />
<glyph unicode="&#xf010;" d="M512 810.667c-215.253 0-377.813-78.933-512-180.693l512-629.973 512 629.333c-134.187 101.547-296.747 181.333-512 181.333zM554.667 256h-85.333v256h85.333v-256zM469.333 597.334v85.333h85.333v-85.333h-85.333z" />
<glyph unicode="&#xf011;" d="M838.857 755.657q16-16 27.429-43.429t11.429-50.286v-658.286q0-22.857-16-38.857t-38.857-16h-768q-22.857 0-38.857 16t-16 38.857v914.286q0 22.857 16 38.857t38.857 16h512q22.857 0 50.286-11.429t43.429-27.429zM585.143 895.086v-214.857h214.857q-5.714 16.571-12.571 23.429l-178.857 178.857q-6.857 6.857-23.429 12.571zM804.571 21.943v585.143h-237.714q-22.857 0-38.857 16t-16 38.857v237.714h-438.857v-877.714h731.429z" />
<glyph unicode="&#xf012;" d="M219.429 259.657v-109.714q0-22.857-16-38.857t-38.857-16h-109.714q-22.857 0-38.857 16t-16 38.857v109.714q0 22.857 16 38.857t38.857 16h109.714q22.857 0 38.857-16t16-38.857zM219.429 552.229v-109.714q0-22.857-16-38.857t-38.857-16h-109.714q-22.857 0-38.857 16t-16 38.857v109.714q0 22.857 16 38.857t38.857 16h109.714q22.857 0 38.857-16t16-38.857zM219.429 844.8v-109.714q0-22.857-16-38.857t-38.857-16h-109.714q-22.857 0-38.857 16t-16 38.857v109.714q0 22.857 16 38.857t38.857 16h109.714q22.857 0 38.857-16t16-38.857z" horiz-adv-x="219" />
<glyph unicode="&#xf013;" d="M219.429 552.229v-109.714q0-22.857-16-38.857t-38.857-16h-109.714q-22.857 0-38.857 16t-16 38.857v109.714q0 22.857 16 38.857t38.857 16h109.714q22.857 0 38.857-16t16-38.857zM512 552.229v-109.714q0-22.857-16-38.857t-38.857-16h-109.714q-22.857 0-38.857 16t-16 38.857v109.714q0 22.857 16 38.857t38.857 16h109.714q22.857 0 38.857-16t16-38.857zM804.571 552.229v-109.714q0-22.857-16-38.857t-38.857-16h-109.714q-22.857 0-38.857 16t-16 38.857v109.714q0 22.857 16 38.857t38.857 16h109.714q22.857 0 38.857-16t16-38.857z" horiz-adv-x="805" />
<glyph unicode="&#xf014;" d="M256 716.8q0 30.286-21.429 51.714t-51.714 21.429-51.714-21.429-21.429-51.714 21.429-51.714 51.714-21.429 51.714 21.429 21.429 51.714zM865.714 387.657q0-30.286-21.143-51.429l-280.571-281.143q-22.286-21.143-52-21.143-30.286 0-51.429 21.143l-408.571 409.143q-21.714 21.143-36.857 57.714t-15.143 66.857v237.714q0 29.714 21.714 51.429t51.429 21.714h237.714q30.286 0 66.857-15.143t58.286-36.857l408.571-408q21.143-22.286 21.143-52z" />
<glyph unicode="&#xf015;" d="M256 716.8q0 30.286-21.429 51.714t-51.714 21.429-51.714-21.429-21.429-51.714 21.429-51.714 51.714-21.429 51.714 21.429 21.429 51.714zM865.714 387.657q0-30.286-21.143-51.429l-280.571-281.143q-22.286-21.143-52-21.143-30.286 0-51.429 21.143l-408.571 409.143q-21.714 21.143-36.857 57.714t-15.143 66.857v237.714q0 29.714 21.714 51.429t51.429 21.714h237.714q30.286 0 66.857-15.143t58.286-36.857l408.571-408q21.143-22.286 21.143-52zM1085.143 387.657q0-30.286-21.143-51.429l-280.571-281.143q-22.286-21.143-52-21.143-20.571 0-33.714 8t-30.286 25.714l268.571 268.571q21.143 21.143 21.143 51.429 0 29.714-21.143 52l-408.571 408q-21.714 21.714-58.286 36.857t-66.857 15.143h128q30.286 0 66.857-15.143t58.286-36.857l408.571-408q21.143-22.286 21.143-52z" horiz-adv-x="1097" />
<glyph unicode="&#xf016;" d="M585.143 680.229v269.714q12.571-8 20.571-16l233.143-233.143q8-8 16-20.571h-269.714zM512 661.943q0-22.857 16-38.857t38.857-16h310.857v-603.429q0-22.857-16-38.857t-38.857-16h-768q-22.857 0-38.857 16t-16 38.857v914.286q0 22.857 16 38.857t38.857 16h457.143v-310.857z" />
<glyph unicode="&#xf017;" d="M832 277.943q0 22.857-16 38.857l-118.857 118.857q-16 16-38.857 16-24 0-41.143-18.286 1.714-1.714 10.857-10.571t12.286-12.286 8.571-10.857 7.429-14.571 2-15.714q0-22.857-16-38.857t-38.857-16q-8.571 0-15.714 2t-14.571 7.429-10.857 8.571-12.286 12.286-10.571 10.857q-18.857-17.714-18.857-41.714 0-22.857 16-38.857l117.714-118.286q15.429-15.429 38.857-15.429 22.857 0 38.857 14.857l84 83.429q16 16 16 38.286zM430.286 680.8q0 22.857-16 38.857l-117.714 118.286q-16 16-38.857 16-22.286 0-38.857-15.429l-84-83.429q-16-16-16-38.286 0-22.857 16-38.857l118.857-118.857q15.429-15.429 38.857-15.429 24 0 41.143 17.714-1.714 1.714-10.857 10.571t-12.286 12.286-8.571 10.857-7.429 14.571-2 15.714q0 22.857 16 38.857t38.857 16q8.571 0 15.714-2t14.571-7.429 10.857-8.571 12.286-12.286 10.571-10.857q18.857 17.714 18.857 41.714zM941.714 277.943q0-68.571-48.571-116l-84-83.429q-47.429-47.429-116-47.429-69.143 0-116.571 48.571l-117.714 118.286q-47.429 47.429-47.429 116 0 70.286 50.286 119.429l-50.286 50.286q-49.143-50.286-118.857-50.286-68.571 0-116.571 48l-118.857 118.857q-48 48-48 116.571t48.571 116l84 83.429q47.429 47.429 116 47.429 69.143 0 116.571-48.571l117.714-118.286q47.429-47.429 47.429-116 0-70.286-50.286-119.429l50.286-50.286q49.143 50.286 118.857 50.286 68.571 0 116.571-48l118.857-118.857q48-48 48-116.571z" horiz-adv-x="951" />
<glyph unicode="&#xf018;" d="M73.143 21.943h164.571v164.571h-164.571v-164.571zM274.286 21.943h182.857v164.571h-182.857v-164.571zM73.143 223.086h164.571v182.857h-164.571v-182.857zM274.286 223.086h182.857v182.857h-182.857v-182.857zM73.143 442.514h164.571v164.571h-164.571v-164.571zM493.714 21.943h182.857v164.571h-182.857v-164.571zM274.286 442.514h182.857v164.571h-182.857v-164.571zM713.143 21.943h164.571v164.571h-164.571v-164.571zM493.714 223.086h182.857v182.857h-182.857v-182.857zM292.571 716.8v164.571q0 7.429-5.429 12.857t-12.857 5.429h-36.571q-7.429 0-12.857-5.429t-5.429-12.857v-164.571q0-7.429 5.429-12.857t12.857-5.429h36.571q7.429 0 12.857 5.429t5.429 12.857zM713.143 223.086h164.571v182.857h-164.571v-182.857zM493.714 442.514h182.857v164.571h-182.857v-164.571zM713.143 442.514h164.571v164.571h-164.571v-164.571zM731.429 716.8v164.571q0 7.429-5.429 12.857t-12.857 5.429h-36.571q-7.429 0-12.857-5.429t-5.429-12.857v-164.571q0-7.429 5.429-12.857t12.857-5.429h36.571q7.429 0 12.857 5.429t5.429 12.857zM950.857 753.371v-731.429q0-29.714-21.714-51.429t-51.429-21.714h-804.571q-29.714 0-51.429 21.714t-21.714 51.429v731.429q0 29.714 21.714 51.429t51.429 21.714h73.143v54.857q0 37.714 26.857 64.571t64.571 26.857h36.571q37.714 0 64.571-26.857t26.857-64.571v-54.857h219.429v54.857q0 37.714 26.857 64.571t64.571 26.857h36.571q37.714 0 64.571-26.857t26.857-64.571v-54.857h73.143q29.714 0 51.429-21.714t21.714-51.429z" horiz-adv-x="951" />
<glyph unicode="&#xf019;" d="M438.857 21.943h512v365.714h-237.714q-22.857 0-38.857 16t-16 38.857v237.714h-219.429v-658.286zM585.143 844.8v36.571q0 7.429-5.429 12.857t-12.857 5.429h-402.286q-7.429 0-12.857-5.429t-5.429-12.857v-36.571q0-7.429 5.429-12.857t12.857-5.429h402.286q7.429 0 12.857 5.429t5.429 12.857zM731.429 460.8h170.857l-170.857 170.857v-170.857zM1024 387.657v-384q0-22.857-16-38.857t-38.857-16h-548.571q-22.857 0-38.857 16t-16 38.857v91.429h-310.857q-22.857 0-38.857 16t-16 38.857v768q0 22.857 16 38.857t38.857 16h621.714q22.857 0 38.857-16t16-38.857v-187.429q12-7.429 20.571-16l233.143-233.143q16-16 27.429-43.429t11.429-50.286z" />
<glyph unicode="&#xf020;" d="M969.143 753.371q22.857 0 38.857-16t16-38.857v-694.857q0-22.857-16-38.857t-38.857-16h-548.571q-22.857 0-38.857 16t-16 38.857v164.571h-310.857q-22.857 0-38.857 16t-16 38.857v384q0 22.857 11.429 50.286t27.429 43.429l233.143 233.143q16 16 43.429 27.429t50.286 11.429h237.714q22.857 0 38.857-16t16-38.857v-187.429q38.857 22.857 73.143 22.857h237.714zM658.286 631.657l-170.857-170.857h170.857v170.857zM292.571 851.086l-170.857-170.857h170.857v170.857zM404.571 481.371l180.571 180.571v237.714h-219.429v-237.714q0-22.857-16-38.857t-38.857-16h-237.714v-365.714h292.571v146.286q0 22.857 11.429 50.286t27.429 43.429zM950.857 21.943v658.286h-219.429v-237.714q0-22.857-16-38.857t-38.857-16h-237.714v-365.714h512z" />
<glyph unicode="&#xf021;" d="M802.286 181.371q0-66.857-45.143-112t-112-45.143q-77.143 0-134.286 57.143l-444 443.429q-64.571 65.714-64.571 154.857 0 90.857 62.857 154.286t153.714 63.429q90.286 0 156-64.571l345.714-346.286q5.714-5.714 5.714-12.571 0-9.143-17.429-26.571t-26.571-17.429q-7.429 0-13.143 5.714l-346.286 346.857q-45.143 44-103.429 44-60.571 0-102.286-42.857t-41.714-103.429q0-60 43.429-103.429l443.429-444q36-36 82.857-36 36.571 0 60.571 24t24 60.571q0 46.857-36 82.857l-332 332q-14.857 13.714-34.286 13.714-16.571 0-27.429-10.857t-10.857-27.429q0-18.286 14.286-33.714l234.286-234.286q5.714-5.714 5.714-12.571 0-9.143-17.714-26.857t-26.857-17.714q-6.857 0-12.571 5.714l-234.286 234.286q-36 34.857-36 85.143 0 46.857 32.571 79.429t79.429 32.571q50.286 0 85.143-36l332-332q57.143-56 57.143-134.286z" horiz-adv-x="805" />
<glyph unicode="&#xf022;" d="M219.429 95.086h438.857v219.429h-438.857v-219.429zM731.429 95.086h73.143v512q0 8-5.714 22t-11.429 19.714l-160.571 160.571q-5.714 5.714-19.429 11.429t-22.286 5.714v-237.714q0-22.857-16-38.857t-38.857-16h-329.143q-22.857 0-38.857 16t-16 38.857v237.714h-73.143v-731.429h73.143v237.714q0 22.857 16 38.857t38.857 16h475.429q22.857 0 38.857-16t16-38.857v-237.714zM512 625.371v182.857q0 7.429-5.429 12.857t-12.857 5.429h-109.714q-7.429 0-12.857-5.429t-5.429-12.857v-182.857q0-7.429 5.429-12.857t12.857-5.429h109.714q7.429 0 12.857 5.429t5.429 12.857zM877.714 607.086v-530.286q0-22.857-16-38.857t-38.857-16h-768q-22.857 0-38.857 16t-16 38.857v768q0 22.857 16 38.857t38.857 16h530.286q22.857 0 50.286-11.429t43.429-27.429l160-160q16-16 27.429-43.429t11.429-50.286z" />
<glyph unicode="&#xf023;" d="M877.714 204.8v-73.143q0-14.857-10.857-25.714t-25.714-10.857h-804.571q-14.857 0-25.714 10.857t-10.857 25.714v73.143q0 14.857 10.857 25.714t25.714 10.857h804.571q14.857 0 25.714-10.857t10.857-25.714zM877.714 497.371v-73.143q0-14.857-10.857-25.714t-25.714-10.857h-804.571q-14.857 0-25.714 10.857t-10.857 25.714v73.143q0 14.857 10.857 25.714t25.714 10.857h804.571q14.857 0 25.714-10.857t10.857-25.714zM877.714 789.943v-73.143q0-14.857-10.857-25.714t-25.714-10.857h-804.571q-14.857 0-25.714 10.857t-10.857 25.714v73.143q0 14.857 10.857 25.714t25.714 10.857h804.571q14.857 0 25.714-10.857t10.857-25.714z" />
<glyph unicode="&#xf024;" d="M219.429 168.229q0-45.714-32-77.714t-77.714-32-77.714 32-32 77.714 32 77.714 77.714 32 77.714-32 32-77.714zM219.429 460.8q0-45.714-32-77.714t-77.714-32-77.714 32-32 77.714 32 77.714 77.714 32 77.714-32 32-77.714zM1024 223.086v-109.714q0-7.429-5.429-12.857t-12.857-5.429h-694.857q-7.429 0-12.857 5.429t-5.429 12.857v109.714q0 7.429 5.429 12.857t12.857 5.429h694.857q7.429 0 12.857-5.429t5.429-12.857zM219.429 753.371q0-45.714-32-77.714t-77.714-32-77.714 32-32 77.714 32 77.714 77.714 32 77.714-32 32-77.714zM1024 515.657v-109.714q0-7.429-5.429-12.857t-12.857-5.429h-694.857q-7.429 0-12.857 5.429t-5.429 12.857v109.714q0 7.429 5.429 12.857t12.857 5.429h694.857q7.429 0 12.857-5.429t5.429-12.857zM1024 808.229v-109.714q0-7.429-5.429-12.857t-12.857-5.429h-694.857q-7.429 0-12.857 5.429t-5.429 12.857v109.714q0 7.429 5.429 12.857t12.857 5.429h694.857q7.429 0 12.857-5.429t5.429-12.857z" />
<glyph unicode="&#xf025;" d="M217.714 47.086q0-45.714-31.143-72t-77.429-26.286q-60.571 0-98.286 37.714l32.571 50.286q28-25.714 60.571-25.714 16.571 0 28.857 8.286t12.286 24.286q0 36.571-60 32l-14.857 32q4.571 5.714 18.571 24.857t24.286 30.857 21.143 22v0.571q-9.143 0-27.714-0.571t-27.714-0.571v-30.286h-60.571v86.857h190.286v-50.286l-54.286-65.714q29.143-6.857 46.286-28t17.143-50.286zM218.857 405.371v-90.857h-206.857q-3.429 20.571-3.429 30.857 0 29.143 13.429 53.143t32.286 38.857 37.714 27.143 32.286 24.857 13.429 25.714q0 14.286-8.286 22t-22.571 7.714q-26.286 0-46.286-33.143l-48.571 33.714q13.714 29.143 40.857 45.429t60.286 16.286q41.714 0 70.286-23.714t28.571-64.286q0-28.571-19.429-52.286t-42.857-36.857-43.143-28.857-20.286-30h72.571v34.286h60zM1024 223.086v-109.714q0-7.429-5.429-12.857t-12.857-5.429h-694.857q-7.429 0-12.857 5.429t-5.429 12.857v109.714q0 8 5.143 13.143t13.143 5.143h694.857q7.429 0 12.857-5.429t5.429-12.857zM219.429 736.8v-56.571h-191.429v56.571h61.143q0 23.429 0.286 69.714t0.286 69.143v6.857h-1.143q-4.571-9.714-28.571-30.857l-40.571 43.429 77.714 72.571h60.571v-230.857h61.714zM1024 515.657v-109.714q0-7.429-5.429-12.857t-12.857-5.429h-694.857q-7.429 0-12.857 5.429t-5.429 12.857v109.714q0 8 5.143 13.143t13.143 5.143h694.857q7.429 0 12.857-5.429t5.429-12.857zM1024 808.229v-109.714q0-7.429-5.429-12.857t-12.857-5.429h-694.857q-7.429 0-12.857 5.429t-5.429 12.857v109.714q0 7.429 5.429 12.857t12.857 5.429h694.857q7.429 0 12.857-5.429t5.429-12.857z" />
<glyph unicode="&#xf026;" d="M73.143 21.943h804.571v585.143h-804.571v-585.143zM292.571 716.8v164.571q0 8-5.143 13.143t-13.143 5.143h-36.571q-8 0-13.143-5.143t-5.143-13.143v-164.571q0-8 5.143-13.143t13.143-5.143h36.571q8 0 13.143 5.143t5.143 13.143zM731.429 716.8v164.571q0 8-5.143 13.143t-13.143 5.143h-36.571q-8 0-13.143-5.143t-5.143-13.143v-164.571q0-8 5.143-13.143t13.143-5.143h36.571q8 0 13.143 5.143t5.143 13.143zM950.857 753.371v-731.429q0-29.714-21.714-51.429t-51.429-21.714h-804.571q-29.714 0-51.429 21.714t-21.714 51.429v731.429q0 29.714 21.714 51.429t51.429 21.714h73.143v54.857q0 37.714 26.857 64.571t64.571 26.857h36.571q37.714 0 64.571-26.857t26.857-64.571v-54.857h219.429v54.857q0 37.714 26.857 64.571t64.571 26.857h36.571q37.714 0 64.571-26.857t26.857-64.571v-54.857h73.143q29.714 0 51.429-21.714t21.714-51.429z" horiz-adv-x="951" />
<glyph unicode="&#xf027;" d="M1024 552.687c0 200.926-58.792 363.938-131.482 365.226 0.292 0.006 0.578 0.030 0.872 0.030h-82.942c0 0-194.8-146.336-475.23-203.754-8.56-45.292-14.030-99.274-14.030-161.502s5.466-116.208 14.030-161.5c280.428-57.418 475.23-203.756 475.23-203.756h82.942c-0.292 0-0.578 0.024-0.872 0.032 72.696 1.288 131.482 164.298 131.482 365.224zM864.824 242.691c-9.382 0-19.532 9.742-24.746 15.548-12.63 14.064-24.792 35.96-35.188 63.328-23.256 61.232-36.066 143.31-36.066 231.124 0 87.81 12.81 169.89 36.066 231.122 10.394 27.368 22.562 49.266 35.188 63.328 5.214 5.812 15.364 15.552 24.746 15.552 9.38 0 19.536-9.744 24.744-15.552 12.634-14.064 24.796-35.958 35.188-63.328 23.258-61.23 36.068-143.312 36.068-231.122 0-87.804-12.81-169.888-36.068-231.124-10.39-27.368-22.562-49.264-35.188-63.328-5.208-5.806-15.36-15.548-24.744-15.548zM251.812 552.687c0 51.95 3.81 102.43 11.052 149.094-47.372-6.554-88.942-10.324-140.34-10.324-67.058 0-67.058 0-67.058 0l-55.466-94.686v-88.17l55.46-94.686c0 0 0 0 67.060 0 51.398 0 92.968-3.774 140.34-10.324-7.236 46.664-11.048 97.146-11.048 149.096zM368.15 339.771l-127.998 24.51 81.842-321.544c4.236-16.634 20.744-25.038 36.686-18.654l118.556 47.452c15.944 6.376 22.328 23.964 14.196 39.084l-123.282 229.152zM864.824 433.213c-3.618 0-7.528 3.754-9.538 5.992-4.87 5.42-9.556 13.86-13.562 24.408-8.962 23.6-13.9 55.234-13.9 89.078s4.938 65.478 13.9 89.078c4.006 10.548 8.696 18.988 13.562 24.408 2.010 2.24 5.92 5.994 9.538 5.994 3.616 0 7.53-3.756 9.538-5.994 4.87-5.42 9.556-13.858 13.56-24.408 8.964-23.598 13.902-55.234 13.902-89.078 0-33.842-4.938-65.478-13.902-89.078-4.004-10.548-8.696-18.988-13.56-24.408-2.008-2.238-5.92-5.992-9.538-5.992z" />
<glyph unicode="&#xf028;" d="M0 853.943h128v-640h-128zM192 853.943h64v-640h-64zM320 853.943h64v-640h-64zM512 853.943h64v-640h-64zM768 853.943h64v-640h-64zM960 853.943h64v-640h-64zM640 853.943h32v-640h-32zM448 853.943h32v-640h-32zM864 853.943h32v-640h-32zM0 149.943h64v-64h-64zM192 149.943h64v-64h-64zM320 149.943h64v-64h-64zM640 149.943h64v-64h-64zM960 149.943h64v-64h-64zM768 149.943h128v-64h-128zM448 149.943h128v-64h-128z" />
<glyph unicode="&#xf029;" d="M320 917.943h-256v-256h256v256zM384 981.943v0-384h-384v384h384zM128 853.943h128v-128h-128zM960 917.943h-256v-256h256v256zM1024 981.943v0-384h-384v384h384zM768 853.943h128v-128h-128zM320 277.943h-256v-256h256v256zM384 341.943v0-384h-384v384h384zM128 213.943h128v-128h-128zM448 981.943h64v-64h-64zM512 917.943h64v-64h-64zM448 853.943h64v-64h-64zM512 789.943h64v-64h-64zM448 725.943h64v-64h-64zM512 661.943h64v-64h-64zM448 597.943h64v-64h-64zM448 469.943h64v-64h-64zM512 405.943h64v-64h-64zM448 341.943h64v-64h-64zM512 277.943h64v-64h-64zM448 213.943h64v-64h-64zM512 149.943h64v-64h-64zM448 85.943h64v-64h-64zM512 21.943h64v-64h-64zM960 469.943h64v-64h-64zM64 469.943h64v-64h-64zM128 533.943h64v-64h-64zM0 533.943h64v-64h-64zM256 533.943h64v-64h-64zM320 469.943h64v-64h-64zM384 533.943h64v-64h-64zM576 469.943h64v-64h-64zM640 533.943h64v-64h-64zM704 469.943h64v-64h-64zM768 533.943h64v-64h-64zM832 469.943h64v-64h-64zM896 533.943h64v-64h-64zM960 341.943h64v-64h-64zM576 341.943h64v-64h-64zM640 405.943h64v-64h-64zM704 341.943h64v-64h-64zM832 341.943h64v-64h-64zM896 405.943h64v-64h-64zM960 213.943h64v-64h-64zM576 213.943h64v-64h-64zM640 277.943h64v-64h-64zM768 277.943h64v-64h-64zM832 213.943h64v-64h-64zM896 277.943h64v-64h-64zM960 85.943h64v-64h-64zM640 149.943h64v-64h-64zM704 85.943h64v-64h-64zM768 149.943h64v-64h-64zM832 85.943h64v-64h-64zM640 21.943h64v-64h-64zM768 21.943h64v-64h-64zM896 21.943h64v-64h-64z" />
<glyph unicode="&#xf030;" d="M192 85.943h640c106.038 0 192 85.96 192 192h-1024c0-106.040 85.962-192 192-192zM832 213.943h64v-64h-64v64zM960 853.943h-896l-64-512h1024z" />
<glyph unicode="&#xf031;" d="M512 981.943c-282.77 0-512-71.634-512-160v-128c0-88.366 229.23-160 512-160s512 71.634 512 160v128c0 88.366-229.23 160-512 160zM512 437.943c-282.77 0-512 71.634-512 160v-192c0-88.366 229.23-160 512-160s512 71.634 512 160v192c0-88.366-229.23-160-512-160zM512 149.943c-282.77 0-512 71.634-512 160v-192c0-88.366 229.23-160 512-160s512 71.634 512 160v192c0-88.366-229.23-160-512-160z" />
<glyph unicode="&#xf032;" d="M320 213.943v768h-128v-768h-160l224-224 224 224h-160zM928-42.057h-256c-11.8 0-22.644 6.496-28.214 16.9-5.566 10.404-4.958 23.030 1.59 32.85l222.832 334.25h-196.208c-17.672 0-32 14.328-32 32s14.328 32 32 32h256c11.8 0 22.644-6.496 28.214-16.9 5.566-10.404 4.958-23.030-1.59-32.85l-222.83-334.25h196.206c17.672 0 32-14.328 32-32s-14.328-32-32-32zM1020.622 580.257l-192.002 384c-5.42 10.842-16.502 17.69-28.622 17.69-12.122 0-23.202-6.848-28.624-17.69l-191.996-384c-7.904-15.806-1.496-35.030 14.31-42.932 4.594-2.296 9.476-3.386 14.288-3.386 11.736 0 23.040 6.484 28.644 17.698l55.156 110.31h216.446l55.156-110.31c7.902-15.806 27.124-22.21 42.932-14.31 15.808 7.902 22.216 27.124 14.312 42.93zM723.778 725.947l76.22 152.446 76.224-152.446h-152.444z" />
<glyph unicode="&#xf033;" d="M320 213.943v768h-128v-768h-160l224-224 224 224h-160zM928 533.943h-256c-11.8 0-22.644 6.496-28.214 16.9-5.566 10.406-4.958 23.030 1.59 32.85l222.832 334.25h-196.208c-17.672 0-32 14.328-32 32s14.328 32 32 32h256c11.8 0 22.644-6.496 28.214-16.9 5.566-10.406 4.958-23.030-1.59-32.85l-222.83-334.25h196.206c17.672 0 32-14.328 32-32s-14.328-32-32-32zM1020.622 4.253l-192.002 384c-5.42 10.842-16.502 17.69-28.622 17.69-12.122 0-23.202-6.848-28.624-17.69l-191.996-384c-7.904-15.806-1.496-35.030 14.31-42.932 4.594-2.296 9.476-3.386 14.288-3.386 11.736 0 23.040 6.484 28.644 17.698l55.158 110.31h216.446l55.156-110.31c7.902-15.806 27.124-22.21 42.932-14.31 15.806 7.902 22.214 27.124 14.31 42.93zM723.778 149.943l76.22 152.446 76.226-152.446h-152.446z" />
<glyph unicode="&#xf034;" d="M320 213.943v768h-128v-768h-160l224-224 224 224h-160zM864 533.943c-17.674 0-32 14.328-32 32v352h-32c-17.674 0-32 14.328-32 32s14.326 32 32 32h64c17.674 0 32-14.328 32-32v-384c0-17.672-14.326-32-32-32zM928 405.943h-192c-17.674 0-32-14.326-32-32v-192c0-17.674 14.326-32 32-32h160v-128h-160c-17.674 0-32-14.326-32-32s14.326-32 32-32h192c17.674 0 32 14.326 32 32v384c0 17.674-14.326 32-32 32zM768 341.943h128v-128h-128v128z" />
<glyph unicode="&#xf035;" d="M320 213.943v768h-128v-768h-160l224-224 224 224h-160zM864-42.057c-17.674 0-32 14.328-32 32v352h-32c-17.674 0-32 14.328-32 32s14.326 32 32 32h64c17.674 0 32-14.328 32-32v-384c0-17.672-14.326-32-32-32zM928 981.943h-192c-17.674 0-32-14.326-32-32v-192c0-17.674 14.326-32 32-32h160v-128h-160c-17.674 0-32-14.326-32-32s14.326-32 32-32h192c17.674 0 32 14.326 32 32v384c0 17.674-14.326 32-32 32zM768 917.943h128v-128h-128v128z" />
<glyph unicode="&#xf036;" d="M913.826 302.249c-66.684 104.204-181.078 150.064-255.51 102.434-6.428-4.116-12.334-8.804-17.744-13.982l-79.452 124.262 183.462 287.972c15.016 27.73 20.558 60.758 13.266 93.974-6.972 31.75-24.516 58.438-48.102 77.226l-12.278 7.808-217.468-340.114-217.47 340.114-12.276-7.806c-23.586-18.79-41.13-45.476-48.1-77.226-7.292-33.216-1.75-66.244 13.264-93.974l183.464-287.972-79.454-124.262c-5.41 5.178-11.316 9.868-17.744 13.982-74.432 47.63-188.826 1.77-255.51-102.434-66.68-104.2-60.398-227.286 14.032-274.914 74.43-47.632 188.824-1.77 255.508 102.432l164.286 257.87 164.288-257.872c66.684-104.202 181.078-150.064 255.508-102.432 74.428 47.63 80.71 170.716 14.030 274.914zM234.852 181.513c-30.018-46.904-68.534-69.726-94.572-75.446-0.004 0-0.004 0-0.004 0-8.49-1.868-20.294-3.010-28.324 2.128-8.898 5.694-14.804 20.748-15.8 40.276-1.616 31.644 9.642 68.836 30.888 102.034 30.014 46.906 68.53 69.726 94.562 75.444 8.496 1.866 20.308 3.010 28.336-2.126 8.898-5.694 14.802-20.75 15.798-40.272 1.618-31.65-9.64-68.84-30.884-102.038zM480 469.943c-17.672 0-32 14.328-32 32s14.328 32 32 32 32-14.328 32-32-14.328-32-32-32zM863.85 148.473c-0.996-19.528-6.902-34.582-15.8-40.276-8.030-5.138-19.834-3.996-28.324-2.128 0 0 0 0-0.004 0-26.040 5.718-64.554 28.542-94.572 75.446-21.244 33.198-32.502 70.388-30.884 102.038 0.996 19.522 6.9 34.578 15.798 40.272 8.028 5.136 19.84 3.992 28.336 2.126 26.034-5.716 64.548-28.538 94.562-75.444 21.246-33.198 32.502-70.39 30.888-102.034z" />
<glyph unicode="&#xf037;" d="M799.596 965.735c-90.526 0-148.62 16.208-241.848 16.208-301.284 0-441.792-171.584-441.792-345.872 0-102.678 48.64-136.458 144.564-136.458-6.758 14.864-18.914 31.080-18.914 104.034 0 204.010 77.006 263.458 175.636 267.51 0 0-80.918-793.374-315.778-888.542v-24.672h316.594l108.026 512h197.844l44.072 128h-214.908l51.944 246.19c59.446-12.156 117.542-24.316 167.532-24.316 62.148 0 118.894 18.914 149.968 162.126-37.826-12.16-78.362-16.208-122.94-16.208z" />
<glyph unicode="&#xf038;" d="M896 213.943h128l-160-192-160 192h128v512h-128l160 192 160-192h-128zM640 917.943v-256l-64 128h-192v-704h128v-64h-384v64h128v704h-192l-64-128v256z" />
<glyph unicode="&#xf039;" d="M256 85.943v-128l-192 160 192 160v-128h512v128l192-160-192-160v128zM832 917.943v-256l-64 128h-192v-448h128v-64h-384v64h128v448h-192l-64-128v256z" />
<glyph unicode="&#xf040;" d="M64 469.943h384v-128h-128v-384h-128v384h-128zM960 725.943h-251.75v-768h-136.5v768h-251.75v128h640z" />
<glyph unicode="&#xf041;" d="M707.88 497.291c37.498 44.542 60.12 102.008 60.12 164.652 0 141.16-114.842 256-256 256h-320v-896h384c141.158 0 256 114.842 256 256 0 92.956-49.798 174.496-124.12 219.348zM384 789.943h101.5c55.968 0 101.5-57.42 101.5-128s-45.532-128-101.5-128h-101.5v256zM543 149.943h-159v256h159c58.45 0 106-57.42 106-128s-47.55-128-106-128z" />
<glyph unicode="&#xf042;" d="M704 917.943h128v-416c0-159.058-143.268-288-320-288-176.73 0-320 128.942-320 288v416h128v-416c0-40.166 18.238-78.704 51.354-108.506 36.896-33.204 86.846-51.494 140.646-51.494s103.75 18.29 140.646 51.494c33.116 29.802 51.354 68.34 51.354 108.506v416zM192 149.943h640v-128h-640z" />
<glyph unicode="&#xf043;" d="M896 917.943v-64h-128l-320-768h128v-64h-448v64h128l320 768h-128v64z" />
<glyph unicode="&#xf044;" d="M1024 469.943v-64h-234.506c27.504-38.51 42.506-82.692 42.506-128 0-70.878-36.66-139.026-100.58-186.964-59.358-44.518-137.284-69.036-219.42-69.036-82.138 0-160.062 24.518-219.42 69.036-63.92 47.938-100.58 116.086-100.58 186.964h128c0-69.382 87.926-128 192-128s192 58.618 192 128c0 69.382-87.926 128-192 128h-512v64h299.518c-2.338 1.654-4.656 3.324-6.938 5.036-63.92 47.94-100.58 116.086-100.58 186.964s36.66 139.024 100.58 186.964c59.358 44.518 137.282 69.036 219.42 69.036 82.136 0 160.062-24.518 219.42-69.036 63.92-47.94 100.58-116.086 100.58-186.964h-128c0 69.382-87.926 128-192 128s-192-58.618-192-128c0-69.382 87.926-128 192-128 78.978 0 154.054-22.678 212.482-64h299.518z" />
<glyph unicode="&#xf045;" d="M704 85.943h256l64 128v-256h-384v214.214c131.112 56.484 224 197.162 224 361.786 0 214.432-157.598 382.266-352 382.266-194.406 0-352-167.832-352-382.266 0-164.624 92.886-305.302 224-361.786v-214.214h-384v256l64-128h256v32.59c-187.63 66.46-320 227.402-320 415.41 0 247.424 229.23 448 512 448s512-200.576 512-448c0-188.008-132.37-348.95-320-415.41v-32.59z" />
<glyph unicode="&#xf046;" d="M941.606 247.235l44.394 94.708h38l-64-384h-960v74.242l331.546 391.212-331.546 331.546v227h980l44-256h-34.376l-18.72 38.88c-35.318 73.364-61.904 89.12-138.904 89.12h-662l353.056-353.056-297.42-350.944h542.364c116.008 0 146.648 41.578 173.606 97.292z" />
<glyph unicode="&#xf047;" d="M322.018 149.943l57.6 192h264.764l57.6-192h113.632l-191.996 640h-223.236l-192-640h113.636zM475.618 661.943h72.764l57.6-192h-187.964l57.6 192z" />
<glyph unicode="&#xf048;" d="M0 85.943h576v-128h-576zM896 853.943h-302.56l-183.764-704h-132.288l183.762 704h-269.15v128h704zM929.774-42.057l-129.774 129.774-129.774-129.774-62.226 62.226 129.774 129.774-129.774 129.774 62.226 62.226 129.774-129.774 129.774 129.774 62.226-62.226-129.774-129.774 129.774-129.774z" />
<glyph unicode="&#xf049;" d="M0 917.943v-896h1024v896h-1024zM384 341.943v192h256v-192h-256zM640 277.943v-192h-256v192h256zM640 789.943v-192h-256v192h256zM320 789.943v-192h-256v192h256zM64 533.943h256v-192h-256v192zM704 533.943h256v-192h-256v192zM704 597.943v192h256v-192h-256zM64 277.943h256v-192h-256v192zM704 85.943v192h256v-192h-256z" />
<glyph unicode="&#xf050;" d="M0 917.943h1024v-128h-1024zM0 725.943h640v-128h-640zM0 341.943h640v-128h-640zM0 533.943h1024v-128h-1024zM0 149.943h1024v-128h-1024z" />
<glyph unicode="&#xf051;" d="M0 917.943h1024v-128h-1024zM192 725.943h640v-128h-640zM192 341.943h640v-128h-640zM0 533.943h1024v-128h-1024zM0 149.943h1024v-128h-1024z" />
<glyph unicode="&#xf052;" d="M0 917.943h1024v-128h-1024zM384 725.943h640v-128h-640zM384 341.943h640v-128h-640zM0 533.943h1024v-128h-1024zM0 149.943h1024v-128h-1024z" />
<glyph unicode="&#xf053;" d="M0 917.943h1024v-128h-1024zM0 725.943h1024v-128h-1024zM0 533.943h1024v-128h-1024zM0 341.943h1024v-128h-1024zM0 149.943h1024v-128h-1024z" />
<glyph unicode="&#xf054;" d="M0 917.943h1024v-128h-1024zM384 725.943h640v-128h-640zM384 533.943h640v-128h-640zM384 341.943h640v-128h-640zM0 149.943h1024v-128h-1024zM0 277.943v384l256-192z" />
<glyph unicode="&#xf055;" d="M0 917.943h1024v-128h-1024zM384 725.943h640v-128h-640zM384 533.943h640v-128h-640zM384 341.943h640v-128h-640zM0 149.943h1024v-128h-1024zM256 661.943v-384l-256 192z" />
<glyph unicode="&#xf056;" d="M250.857 246.514l-146.286-146.286q-5.714-5.143-13.143-5.143-6.857 0-13.143 5.143-5.143 5.714-5.143 13.143t5.143 13.143l146.286 146.286q5.714 5.143 13.143 5.143t13.143-5.143q5.143-5.714 5.143-13.143t-5.143-13.143zM347.429 223.086v-182.857q0-8-5.143-13.143t-13.143-5.143-13.143 5.143-5.143 13.143v182.857q0 8 5.143 13.143t13.143 5.143 13.143-5.143 5.143-13.143zM219.429 351.086q0-8-5.143-13.143t-13.143-5.143h-182.857q-8 0-13.143 5.143t-5.143 13.143 5.143 13.143 13.143 5.143h182.857q8 0 13.143-5.143t5.143-13.143zM941.714 277.943q0-68.571-48.571-116l-84-83.429q-47.429-47.429-116-47.429-69.143 0-116.571 48.571l-190.857 191.429q-12 12-24 32l136.571 10.286 156-156.571q15.429-15.429 38.857-15.714t38.857 15.143l84 83.429q16 16 16 38.286 0 22.857-16 38.857l-156.571 157.143 10.286 136.571q20-12 32-24l192-192q48-49.143 48-116.571zM589.143 691.657l-136.571-10.286-156 156.571q-16 16-38.857 16-22.286 0-38.857-15.429l-84-83.429q-16-16-16-38.286 0-22.857 16-38.857l156.571-156.571-10.286-137.143q-20 12-32 24l-192 192q-48 49.143-48 116.571 0 68.571 48.571 116l84 83.429q47.429 47.429 116 47.429 69.143 0 116.571-48.571l190.857-191.429q12-12 24-32zM950.857 643.657q0-8-5.143-13.143t-13.143-5.143h-182.857q-8 0-13.143 5.143t-5.143 13.143 5.143 13.143 13.143 5.143h182.857q8 0 13.143-5.143t5.143-13.143zM640 954.514v-182.857q0-8-5.143-13.143t-13.143-5.143-13.143 5.143-5.143 13.143v182.857q0 8 5.143 13.143t13.143 5.143 13.143-5.143 5.143-13.143zM872.571 868.229l-146.286-146.286q-6.286-5.143-13.143-5.143t-13.143 5.143q-5.143 5.714-5.143 13.143t5.143 13.143l146.286 146.286q5.714 5.143 13.143 5.143t13.143-5.143q5.143-5.714 5.143-13.143t-5.143-13.143z" horiz-adv-x="951" />
<glyph unicode="&#xf057;" d="M896 524.8h16c26.4 0 48 21.6 48 48v160c0 26.4-21.6 48-48 48h-16v192h-128v-192h-16c-26.4 0-48-21.6-48-48v-160c0-26.4 21.6-48 48-48h16v-576h128v576zM768 716.8h128v-128h-128v128zM592 140.8c26.4 0 48 21.6 48 48v160c0 26.4-21.6 48-48 48h-16v576h-128v-576h-16c-26.4 0-48-21.6-48-48v-160c0-26.4 21.6-48 48-48h16v-192h128v192h16zM448 332.8h128v-128h-128v128zM272 524.8c26.4 0 48 21.6 48 48v160c0 26.4-21.6 48-48 48h-16v192h-128v-192h-16c-26.4 0-48-21.6-48-48v-160c0-26.4 21.6-48 48-48h16v-576h128v576h16zM128 716.8h128v-128h-128v128z" />
<glyph unicode="&#xf058;" d="M448 844.8v16c0 26.4-21.6 48-48 48h-160c-26.4 0-48-21.6-48-48v-16h-192v-128h192v-16c0-26.4 21.6-48 48-48h160c26.4 0 48 21.6 48 48v16h576v128h-576zM256 716.8v128h128v-128h-128zM832 540.8c0 26.4-21.6 48-48 48h-160c-26.4 0-48-21.6-48-48v-16h-576v-128h576v-16c0-26.4 21.6-48 48-48h160c26.4 0 48 21.6 48 48v16h192v128h-192v16zM640 396.8v128h128v-128h-128zM448 220.8c0 26.4-21.6 48-48 48h-160c-26.4 0-48-21.6-48-48v-16h-192v-128h192v-16c0-26.4 21.6-48 48-48h160c26.4 0 48 21.6 48 48v16h576v128h-576v16zM256 76.8v128h128v-128h-128z" />
<glyph unicode="&#xf059;" d="M1002.934 154.924l-460.552 394.76c21.448 40.298 33.618 86.282 33.618 135.116 0 159.058-128.942 288-288 288-29.094 0-57.172-4.332-83.646-12.354l166.39-166.39c24.89-24.89 24.89-65.62 0-90.51l-101.49-101.49c-24.89-24.89-65.62-24.89-90.51 0l-166.39 166.39c-8.022-26.474-12.354-54.552-12.354-83.646 0-159.058 128.942-288 288-288 48.834 0 94.818 12.17 135.116 33.62l394.76-460.552c22.908-26.724 62.016-28.226 86.904-3.338l101.492 101.492c24.888 24.888 23.386 63.994-3.338 86.902z" />
<glyph unicode="&#xf060;" d="M592 524.8h-16v192c0 105.87-86.13 192-192 192h-128c-105.87 0-192-86.13-192-192v-192h-16c-26.4 0-48-21.6-48-48v-480c0-26.4 21.6-48 48-48h544c26.4 0 48 21.6 48 48v480c0 26.4-21.6 48-48 48zM192 716.8c0 35.29 28.71 64 64 64h128c35.29 0 64-28.71 64-64v-192h-256v192z" />
<glyph unicode="&#xf061;" d="M768 908.8c105.87 0 192-86.13 192-192v-192h-128v192c0 35.29-28.71 64-64 64h-128c-35.29 0-64-28.71-64-64v-192h16c26.4 0 48-21.6 48-48v-480c0-26.4-21.6-48-48-48h-544c-26.4 0-48 21.6-48 48v480c0 26.4 21.6 48 48 48h400v192c0 105.87 86.13 192 192 192h128z" />
<glyph unicode="&#xf062;" d="M704 972.8c-176.73 0-320-143.268-320-320 0-20.026 1.858-39.616 5.376-58.624l-389.376-389.376v-192c0-35.346 28.654-64 64-64h64v64h128v128h128v128h128l83.042 83.042c34.010-12.316 70.696-19.042 108.958-19.042 176.73 0 320 143.268 320 320s-143.27 320-320 320zM799.874 652.674c-53.020 0-96 42.98-96 96s42.98 96 96 96 96-42.98 96-96-42.98-96-96-96z" />
<glyph unicode="&#xf063;" d="M512 725.334c-164.907 0-298.667-133.76-298.667-298.667h85.333c0 117.76 95.573 213.333 213.333 213.333s213.333-95.573 213.333-213.333h85.333c0 164.907-133.76 298.667-298.667 298.667zM554.667 328.96c37.547 16.427 64 53.973 64 97.707 0 58.88-47.787 106.667-106.667 106.667s-106.667-47.787-106.667-106.667c0-43.733 26.453-81.28 64-97.707v-140.587l-145.707-145.707 60.373-60.373 128 128 128-128 60.373 60.373-145.707 145.707v140.587zM512 896c-259.2 0-469.333-210.133-469.333-469.333h85.333c0 212.053 171.947 384 384 384s384-171.947 384-384h85.333c0 259.2-210.133 469.333-469.333 469.333z" />
<glyph unicode="&#xf064;" d="M585.143 451.657q0 60.571-42.857 103.429t-103.429 42.857-103.429-42.857-42.857-103.429 42.857-103.429 103.429-42.857 103.429 42.857 42.857 103.429zM877.714 513.943v-126.857q0-6.857-4.571-13.143t-11.429-7.429l-105.714-16q-10.857-30.857-22.286-52 20-28.571 61.143-78.857 5.714-6.857 5.714-14.286t-5.143-13.143q-15.429-21.143-56.571-61.714t-53.714-40.571q-6.857 0-14.857 5.143l-78.857 61.714q-25.143-13.143-52-21.714-9.143-77.714-16.571-106.286-4-16-20.571-16h-126.857q-8 0-14 4.857t-6.571 12.286l-16 105.143q-28 9.143-51.429 21.143l-80.571-61.143q-5.714-5.143-14.286-5.143-8 0-14.286 6.286-72 65.143-94.286 96-4 5.714-4 13.143 0 6.857 4.571 13.143 8.571 12 29.143 38t30.857 40.286q-15.429 28.571-23.429 56.571l-104.571 15.429q-7.429 1.143-12 7.143t-4.571 13.429v126.857q0 6.857 4.571 13.143t10.857 7.429l106.286 16q8 26.286 22.286 52.571-22.857 32.571-61.143 78.857-5.714 6.857-5.714 13.714 0 5.714 5.143 13.143 14.857 20.571 56.286 61.429t54 40.857q7.429 0 14.857-5.714l78.857-61.143q25.143 13.143 52 21.714 9.143 77.714 16.571 106.286 4 16 20.571 16h126.857q8 0 14-4.857t6.571-12.286l16-105.143q28-9.143 51.429-21.143l81.143 61.143q5.143 5.143 13.714 5.143 7.429 0 14.286-5.714 73.714-68 94.286-97.143 4-4.571 4-12.571 0-6.857-4.571-13.143-8.571-12-29.143-38t-30.857-40.286q14.857-28.571 23.429-56l104.571-16q7.429-1.143 12-7.143t4.571-13.429z" />
<glyph unicode="&#xf065;" d="M512 451.657q0 60.571-42.857 103.429t-103.429 42.857-103.429-42.857-42.857-103.429 42.857-103.429 103.429-42.857 103.429 42.857 42.857 103.429zM950.857 159.086q0 29.714-21.714 51.429t-51.429 21.714-51.429-21.714-21.714-51.429q0-30.286 21.429-51.714t51.714-21.429 51.714 21.429 21.429 51.714zM950.857 744.228q0 29.714-21.714 51.429t-51.429 21.714-51.429-21.714-21.714-51.429q0-30.286 21.429-51.714t51.714-21.429 51.714 21.429 21.429 51.714zM731.429 503.657v-105.714q0-5.714-4-11.143t-9.143-6l-88.571-13.714q-6.286-20-18.286-43.429 19.429-27.429 51.429-65.714 4-5.714 4-11.429 0-6.857-4-10.857-13.143-17.143-47.143-51.143t-44.857-34q-6.286 0-12 4l-65.714 51.429q-21.143-10.857-44-17.714-6.286-61.714-13.143-88.571-4-13.714-17.143-13.714h-106.286q-6.286 0-11.429 4.286t-5.714 10l-13.143 87.429q-19.429 5.714-42.857 17.714l-67.429-50.857q-4-4-11.429-4-6.286 0-12 4.571-82.286 76-82.286 91.429 0 5.143 4 10.857 5.714 8 23.429 30.286t26.857 34.857q-13.143 25.143-20 46.857l-86.857 13.714q-5.714 0.571-9.714 5.429t-4 11.143v105.714q0 5.714 4 11.143t9.143 6l88.571 13.714q6.286 20 18.286 43.429-19.429 27.429-51.429 65.714-4 6.286-4 11.429 0 6.857 4 11.429 12.571 17.143 46.857 50.857t45.143 33.714q6.286 0 12-4l65.714-51.429q19.429 10.286 44 18.286 6.286 61.714 13.143 88 4 13.714 17.143 13.714h106.286q6.286 0 11.429-4.286t5.714-10l13.143-87.429q19.429-5.714 42.857-17.714l67.429 50.857q4.571 4 11.429 4 6.286 0 12-4.571 82.286-76 82.286-91.429 0-5.143-4-10.857-6.857-9.143-24-30.857t-25.714-34.286q13.143-27.429 19.429-46.857l86.857-13.143q5.714-1.143 9.714-6t4-11.143zM1097.143 199.086v-80q0-9.143-85.143-17.714-6.857-15.429-17.143-29.714 29.143-64.571 29.143-78.857 0-2.286-2.286-4-69.714-40.571-70.857-40.571-4.571 0-26.286 26.857t-29.714 38.857q-11.429-1.143-17.143-1.143t-17.143 1.143q-8-12-29.714-38.857t-26.286-26.857q-1.143 0-70.857 40.571-2.286 1.714-2.286 4 0 14.286 29.143 78.857-10.286 14.286-17.143 29.714-85.143 8.571-85.143 17.714v80q0 9.143 85.143 17.714 7.429 16.571 17.143 29.714-29.143 64.571-29.143 78.857 0 2.286 2.286 4 2.286 1.143 20 11.429t33.714 19.429 17.143 9.143q4.571 0 26.286-26.571t29.714-38.571q11.429 1.143 17.143 1.143t17.143-1.143q29.143 40.571 52.571 64l3.429 1.143q2.286 0 70.857-40 2.286-1.714 2.286-4 0-14.286-29.143-78.857 9.714-13.143 17.143-29.714 85.143-8.571 85.143-17.714zM1097.143 784.228v-80q0-9.143-85.143-17.714-6.857-15.429-17.143-29.714 29.143-64.571 29.143-78.857 0-2.286-2.286-4-69.714-40.571-70.857-40.571-4.571 0-26.286 26.857t-29.714 38.857q-11.429-1.143-17.143-1.143t-17.143 1.143q-8-12-29.714-38.857t-26.286-26.857q-1.143 0-70.857 40.571-2.286 1.714-2.286 4 0 14.286 29.143 78.857-10.286 14.286-17.143 29.714-85.143 8.571-85.143 17.714v80q0 9.143 85.143 17.714 7.429 16.571 17.143 29.714-29.143 64.571-29.143 78.857 0 2.286 2.286 4 2.286 1.143 20 11.429t33.714 19.429 17.143 9.143q4.571 0 26.286-26.571t29.714-38.571q11.429 1.143 17.143 1.143t17.143-1.143q29.143 40.571 52.571 64l3.429 1.143q2.286 0 70.857-40 2.286-1.714 2.286-4 0-14.286-29.143-78.857 9.714-13.143 17.143-29.714 85.143-8.571 85.143-17.714z" horiz-adv-x="1097" />
<glyph unicode="&#xf066;" d="M213.333 908.8h682.667v-938.667h-682.667q-53 0-90.5 37.5t-37.5 90.5v682.667q0 53 37.5 90.5t90.5 37.5zM810.667 55.467v85.333h-597.333q-17.667 0-30.167-12.5t-12.5-30.167 12.5-30.167 30.167-12.5h597.333zM810.667 226.134v597.333h-597.333q-17.667 0-30.167-12.5t-12.5-30.167v-562q21 7.333 42.667 7.333h597.333z" />
<glyph unicode="&#xf067;" d="M426.667 866.134h170.667q53 0 90.5-37.5t37.5-90.5v-42.667h128q53 0 90.5-37.5t37.5-90.5v-426.667q0-53-37.5-90.5t-90.5-37.5h-682.667q-53 0-90.5 37.5t-37.5 90.5v426.667q0 53 37.5 90.5t90.5 37.5h128v42.667q0 53 37.5 90.5t90.5 37.5zM213.333 98.134v512h-42.667q-17.667 0-30.167-12.5t-12.5-30.167v-426.667q0-17.667 12.5-30.167t30.167-12.5h42.667zM725.333 98.134v512h-426.667v-512h426.667zM853.333 610.134h-42.667v-512h42.667q17.667 0 30.167 12.5t12.5 30.167v426.667q0 17.667-12.5 30.167t-30.167 12.5zM597.333 780.8h-170.667q-17.667 0-30.167-12.5t-12.5-30.167v-42.667h256v42.667q0 17.667-12.5 30.167t-30.167 12.5z" />
<glyph unicode="&#xf068;" d="M512 951.467q18 0 30.333-12.333l150.667-151q12.667-12.667 12.667-30.333t-12.5-30.167-30.167-12.5-30.333 12.667l-78 78v-323.667h323.667l-78 78q-12.667 12.667-12.667 30.333t12.5 30.167 30.167 12.5 30.333-12.667l151-150.667q12.333-12.333 12.333-30.333t-12.333-30l-151-151q-12.667-12.667-30.333-12.667t-30.167 12.5-12.5 30.167 12.667 30.333l78 78h-323.667v-323.667l78 78q12.667 12.667 30.333 12.667t30.167-12.5 12.5-30.167-12.667-30.333l-150.667-151q-12.333-12.333-30.333-12.333-17.667 0-30 12.333l-151 151q-12.667 12.667-12.667 30.333t12.5 30.167 30.167 12.5 30.333-12.667l78-78v323.667h-323.667l78-78q12.667-12.667 12.667-30.333t-12.5-30.167-30.167-12.5-30.333 12.667l-151 150.667q-12.333 12.333-12.333 30.333t12.333 30.333l151 150.667q12.667 12.667 30.333 12.667t30.167-12.5 12.5-30.167-12.667-30.333l-78-78h323.667v323.667l-78-78q-12.667-12.667-30.333-12.667t-30.167 12.5-12.5 30.167 12.667 30.333l150.667 151q12.333 12.333 30.333 12.333z" />
<glyph unicode="&#xf069;" d="M1024 382.356l-512 397.426-512-397.428v162.038l512 397.426 512-397.428zM896 396.8v-384h-256v256h-256v-256h-256v384l384 288z" />
<glyph unicode="&#xf070;" d="M864 972.8c88.364 0 160-71.634 160-160 0-36.020-11.91-69.258-32-96l-64-64-224 224 64 64c26.742 20.090 59.978 32 96 32zM64 236.8l-64-288 288 64 592 592-224 224-592-592zM715.578 609.222l-448-448-55.156 55.156 448 448 55.156-55.156z" />
<glyph unicode="&#xf071;" d="M1088 844.8h-64v64c0 35.2-28.8 64-64 64h-896c-35.2 0-64-28.8-64-64v-768c0-35.2 28.8-64 64-64h64v-64c0-35.2 28.8-64 64-64h896c35.2 0 64 28.8 64 64v768c0 35.2-28.8 64-64 64zM128 780.8v-640h-63.886c-0.040 0.034-0.082 0.076-0.114 0.116v767.77c0.034 0.040 0.076 0.082 0.114 0.114h895.77c0.040-0.034 0.082-0.076 0.116-0.116v-63.884h-768c-35.2 0-64-28.8-64-64v0zM1088 12.916c-0.034-0.040-0.076-0.082-0.116-0.116h-895.77c-0.040 0.034-0.082 0.076-0.114 0.116v767.77c0.034 0.040 0.076 0.082 0.114 0.114h895.77c0.040-0.034 0.082-0.076 0.116-0.116v-767.768zM960 620.8c0-53.020-42.98-96-96-96s-96 42.98-96 96 42.98 96 96 96 96-42.98 96-96zM1024 76.8h-768v128l224 384 256-320h64l224 192z" horiz-adv-x="1152" />
<glyph unicode="&#xf072;" d="M0 844.8v-768h1024v768h-1024zM192 140.8h-128v128h128v-128zM192 396.8h-128v128h128v-128zM192 652.8h-128v128h128v-128zM768 140.8h-512v640h512v-640zM960 140.8h-128v128h128v-128zM960 396.8h-128v128h128v-128zM960 652.8h-128v128h128v-128zM384 652.8v-384l256 192z" />
<glyph unicode="&#xf073;" d="M896 844.8v-832h-672c-53.026 0-96 42.98-96 96s42.974 96 96 96h608v768h-640c-70.398 0-128-57.6-128-128v-768c0-70.4 57.602-128 128-128h768v896h-64zM224.056 140.8v0c-0.018-0.002-0.038 0-0.056 0-17.672 0-32-14.326-32-32s14.328-32 32-32c0.018 0 0.038 0.002 0.056 0.002v-0.002h607.89v64h-607.89z" />
<glyph unicode="&#xf074;" d="M224 844.8h-192c-17.6 0-32-14.4-32-32v-704c0-17.6 14.4-32 32-32h192c17.6 0 32 14.4 32 32v704c0 17.6-14.4 32-32 32zM192 652.8h-128v64h128v-64zM544 844.8h-192c-17.6 0-32-14.4-32-32v-704c0-17.6 14.4-32 32-32h192c17.6 0 32 14.4 32 32v704c0 17.6-14.4 32-32 32zM512 652.8h-128v64h128v-64zM765.088 795.32l-171.464-86.394c-15.716-7.918-22.096-27.258-14.178-42.976l287.978-571.548c7.918-15.718 27.258-22.098 42.976-14.178l171.464 86.392c15.716 7.92 22.096 27.26 14.178 42.974l-287.978 571.55c-7.92 15.718-27.26 22.1-42.976 14.18zM928 108.8c0-17.673-14.327-32-32-32s-32 14.327-32 32c0 17.673 14.327 32 32 32s32-14.327 32-32z" horiz-adv-x="1152" />
<glyph unicode="&#xf075;" d="M1024 12.8v64h-64v384h64v64h-192v-64h64v-384h-192v384h64v64h-192v-64h64v-384h-192v384h64v64h-192v-64h64v-384h-192v384h64v64h-192v-64h64v-384h-64v-64h-64v-64h1088v64h-64zM512 972.8h64l512-320v-64h-1088v64l512 320z" horiz-adv-x="1088" />
<glyph unicode="&#xf076;" d="M384 44.8c0-53.019-42.981-96-96-96s-96 42.981-96 96c0 53.019 42.981 96 96 96s96-42.981 96-96zM1024 44.8c0-53.019-42.981-96-96-96s-96 42.981-96 96c0 53.019 42.981 96 96 96s96-42.981 96-96zM1024 460.8v384h-768c0 35.346-28.654 64-64 64h-192v-64h128l48.074-412.054c-29.294-23.458-48.074-59.5-48.074-99.946 0-70.696 57.308-128 128-128h768v64h-768c-35.346 0-64 28.654-64 64 0 0.218 0.014 0.436 0.016 0.656l831.984 127.344z" />
<glyph unicode="&#xf077;" d="M704 332.8c-64-64-64-128-128-128s-128 64-192 128-128 128-128 192 64 64 128 128-128 256-192 256-192-192-192-192c0-128 131.5-387.5 256-512s384-256 512-256c0 0 192 128 192 192s-192 256-256 192z" />
<glyph unicode="&#xf078;" d="M1017.378 396.806c8.004-55.482 13.216-131.392-11.664-160.446-41.142-48.044-301.712-48.044-301.712 48.042 0 48.398 42.856 80.134 1.712 128.178-40.472 47.262-113.026 48.030-193.714 48.042-80.686-0.012-153.242-0.78-193.714-48.042-41.142-48.046 1.714-79.78 1.714-128.178 0-96.086-260.57-96.086-301.714-48.044-24.878 29.054-19.668 104.964-11.662 160.446 6.16 37.038 21.724 76.996 71.548 127.994 0 0.002 0.002 0.002 0.002 0.004 74.738 69.742 187.846 126.738 429.826 127.968v0.030c1.344 0 2.664-0.010 4-0.014 1.338 0.004 2.656 0.014 4 0.014v-0.028c241.98-1.23 355.088-58.226 429.826-127.968 0.002-0.002 0.002-0.004 0.002-0.004 49.824-50.996 65.39-90.954 71.55-127.994z" />
<glyph unicode="&#xf079;" d="M192 972.8v-1024h768v1024h-768zM576 716.47c70.51 0 127.67-57.16 127.67-127.67s-57.16-127.67-127.67-127.67-127.67 57.16-127.67 127.67 57.16 127.67 127.67 127.67v0zM768 204.8h-384v64c0 70.696 57.306 128 128 128v0h128c70.696 0 128-57.304 128-128v-64zM64 908.8h96v-192h-96v192zM64 652.8h96v-192h-96v192zM64 396.8h96v-192h-96v192zM64 140.8h96v-192h-96v192z" />
<glyph unicode="&#xf080;" d="M512 972.8c-176.732 0-320-143.268-320-320 0-320 320-704 320-704s320 384 320 704c0 176.732-143.27 320-320 320zM512 460.8c-106.040 0-192 85.96-192 192s85.96 192 192 192 192-85.96 192-192-85.96-192-192-192z" />
<glyph unicode="&#xf081;" d="M512 972.8c-176.732 0-320-143.268-320-320 0-320 320-704 320-704s320 384 320 704c0 176.732-143.27 320-320 320zM512 456.8c-108.248 0-196 87.752-196 196s87.752 196 196 196 196-87.752 196-196-87.752-196-196-196zM388 652.8c0 68.483 55.517 124 124 124s124-55.517 124-124c0-68.483-55.517-124-124-124s-124 55.517-124 124z" />
<glyph unicode="&#xf082;" d="M544.010-51.204c-2.296 0-4.622 0.25-6.94 0.764-14.648 3.25-25.070 16.238-25.070 31.24v480h-480c-15.002 0-27.992 10.422-31.24 25.070-3.25 14.646 4.114 29.584 17.708 35.928l960 448c12.196 5.688 26.644 3.144 36.16-6.372 9.516-9.514 12.060-23.966 6.372-36.16l-448-960c-5.342-11.44-16.772-18.47-28.99-18.47zM176.242 524.8h367.758c17.674 0 32-14.328 32-32v-367.758l349.79 749.546-749.548-349.788z" />
<glyph unicode="&#xf083;" d="M512 972.8c-282.77 0-512-229.23-512-512s229.23-512 512-512 512 229.23 512 512-229.23 512-512 512zM96 460.8c0 229.75 186.25 416 416 416 109.574 0 209.232-42.386 283.534-111.628l-411.534-176.372-176.372-411.534c-69.242 74.302-111.628 173.96-111.628 283.534zM585.166 387.634l-256.082-109.75 109.75 256.082 146.332-146.332zM512 44.8c-109.574 0-209.234 42.386-283.532 111.628l411.532 176.372 176.372 411.532c69.242-74.298 111.628-173.958 111.628-283.532 0-229.75-186.25-416-416-416z" />
<glyph unicode="&#xf084;" d="M658.744 223.544l-210.744 210.746v282.51h128v-229.49l173.256-173.254zM512 972.8c-282.77 0-512-229.23-512-512s229.23-512 512-512 512 229.23 512 512-229.23 512-512 512zM512 76.8c-212.078 0-384 171.922-384 384s171.922 384 384 384c212.078 0 384-171.922 384-384s-171.922-384-384-384z" />
<glyph unicode="&#xf085;" d="M512 972.8c-282.77 0-512-229.23-512-512s229.23-512 512-512 512 229.23 512 512-229.23 512-512 512zM658.744 223.544l-210.744 210.746v282.51h128v-229.49l173.256-173.254-90.512-90.512z" />
<glyph unicode="&#xf086;" d="M512 844.8c-247.424 0-448-200.576-448-448s200.576-448 448-448 448 200.576 448 448-200.576 448-448 448zM512 36.8c-198.824 0-360 161.178-360 360 0 198.824 161.176 360 360 360 198.822 0 360-161.176 360-360 0-198.822-161.178-360-360-360zM934.784 685.626c16.042 28.052 25.216 60.542 25.216 95.174 0 106.040-85.96 192-192 192-61.818 0-116.802-29.222-151.92-74.596 131.884-27.236 245.206-105.198 318.704-212.578v0zM407.92 898.204c-35.116 45.374-90.102 74.596-151.92 74.596-106.040 0-192-85.96-192-192 0-34.632 9.174-67.122 25.216-95.174 73.5 107.38 186.822 185.342 318.704 212.578zM512 396.8v256h-64v-320h256v64z" />
<glyph unicode="&#xf087;" d="M256 908.8h512v-128h-512v128zM960 716.8h-896c-35.2 0-64-28.8-64-64v-320c0-35.2 28.794-64 64-64h192v-256h512v256h192c35.2 0 64 28.8 64 64v320c0 35.2-28.8 64-64 64zM128 524.8c-35.346 0-64 28.654-64 64s28.654 64 64 64 64-28.654 64-64-28.652-64-64-64zM704 76.8h-384v320h384v-320z" />
<glyph unicode="&#xf088;" d="M576 266.188v52.78c70.498 39.728 128 138.772 128 237.832 0 159.058 0 288-192 288s-192-128.942-192-288c0-99.060 57.502-198.104 128-237.832v-52.78c-217.102-17.748-384-124.42-384-253.388h896c0 128.968-166.898 235.64-384 253.388z" />
<glyph unicode="&#xf089;" d="M768 202.188v52.78c70.498 39.728 128 138.772 128 237.832 0 159.058 0 288-192 288s-192-128.942-192-288c0-99.060 57.502-198.104 128-237.832v-52.78c-217.102-17.748-384-124.42-384-253.388h896c0 128.968-166.898 235.64-384 253.388zM327.196 177.472c55.31 36.15 124.080 63.636 199.788 80.414-15.054 17.784-28.708 37.622-40.492 59.020-30.414 55.234-46.492 116.058-46.492 175.894 0 86.042 0 167.31 30.6 233.762 29.706 64.504 83.128 104.496 159.222 119.488-16.914 76.48-61.94 126.75-181.822 126.75-192 0-192-128.942-192-288 0-99.060 57.502-198.104 128-237.832v-52.78c-217.102-17.748-384-124.42-384-253.388h279.006c14.518 12.91 30.596 25.172 48.19 36.672z" horiz-adv-x="1152" />
<glyph unicode="&#xf090;" d="M225 524.8c123.712 0 224-100.29 224-224 0-123.712-100.288-224-224-224s-224 100.288-224 224l-1 32c0 247.424 200.576 448 448 448v-128c-85.474 0-165.834-33.286-226.274-93.726-11.634-11.636-22.252-24.016-31.83-37.020 11.438 1.8 23.16 2.746 35.104 2.746zM801 524.8c123.71 0 224-100.29 224-224 0-123.712-100.29-224-224-224s-224 100.288-224 224l-1 32c0 247.424 200.576 448 448 448v-128c-85.474 0-165.834-33.286-226.274-93.726-11.636-11.636-22.254-24.016-31.832-37.020 11.44 1.8 23.16 2.746 35.106 2.746z" />
<glyph unicode="&#xf091;" d="M800 332.8c-123.712 0-224 100.29-224 224 0 123.712 100.288 224 224 224s224-100.288 224-224l1-32c0-247.424-200.576-448-448-448v128c85.474 0 165.834 33.286 226.274 93.726 11.634 11.636 22.252 24.016 31.83 37.020-11.438-1.8-23.16-2.746-35.104-2.746zM224 332.8c-123.71 0-224 100.29-224 224 0 123.712 100.29 224 224 224s224-100.288 224-224l1-32c0-247.424-200.576-448-448-448v128c85.474 0 165.834 33.286 226.274 93.726 11.636 11.636 22.254 24.016 31.832 37.020-11.44-1.8-23.16-2.746-35.106-2.746z" />
<glyph unicode="&#xf092;" d="M771.516 652.8c18.126 12.88 35.512 27.216 51.444 43.148 33.402 33.402 55.746 74.5 62.912 115.722 7.858 45.186-3.672 87.14-31.63 115.1-22.3 22.298-52.51 34.086-87.364 34.086-49.632 0-101.922-23.824-143.46-65.362-66.476-66.476-105.226-158.238-126.076-223.722-15.44 65.802-46.206 154.644-106.018 214.458-32.094 32.092-73.114 48.57-111.846 48.57-31.654 0-61.78-11.004-84.26-33.486-49.986-49.988-43.232-137.786 15.086-196.104 20.792-20.792 45.098-38.062 70.72-52.412h-217.024v-256h64v-448h768v448.002h64v256h-188.484zM674.326 844.582c27.724 27.724 62.322 44.274 92.55 44.274 10.7 0 25.708-2.254 36.45-12.998 26.030-26.028 11.412-86.308-31.28-128.998-43.946-43.946-103.060-74.168-154.432-94.060h-50.672c18.568 57.548 52.058 136.456 107.384 191.782zM233.934 811.91c-0.702 9.12-0.050 26.248 12.196 38.494 10.244 10.244 23.788 12.396 33.348 12.396v0c21.258 0 43.468-10.016 60.932-27.48 33.872-33.872 61.766-87.772 80.668-155.876 0.51-1.84 1.008-3.67 1.496-5.486-1.816 0.486-3.646 0.984-5.486 1.496-68.104 18.904-122.002 46.798-155.874 80.67-15.828 15.826-25.77 36.16-27.28 55.786zM448 12.8h-256v416h256v-416zM448 460.8h-320v128h320v-128zM832 12.8h-256v416h256v-416zM896 460.8h-320v128h320v-128z" />
<glyph unicode="&#xf093;" d="M777.784 955.944c-5.576 10.38-16.406 16.856-28.19 16.856h-475.188c-11.784 0-22.614-6.476-28.19-16.856-35.468-66.020-54.216-143.184-54.216-223.144 0-105.412 32.372-204.828 91.154-279.938 45.428-58.046 102.48-96.54 164.846-112.172v-327.89h-96c-17.672 0-32-14.326-32-32s14.328-32 32-32h320c17.674 0 32 14.326 32 32s-14.326 32-32 32h-96v327.89c62.368 15.632 119.418 54.124 164.846 112.172 58.782 75.11 91.154 174.526 91.154 279.938 0 79.96-18.748 157.122-54.216 223.144zM294.1 908.8h435.8c24.974-52.902 38.1-113.338 38.1-176 0-5.364-0.108-10.696-0.296-16h-511.406c-0.19 5.304-0.296 10.636-0.296 16-0.002 62.664 13.126 123.098 38.098 176z" />
<glyph unicode="&#xf094;" d="M960 652.8h-192v96c0 88.366-171.922 160-384 160s-384-71.634-384-160v-640c0-88.366 171.922-160 384-160s384 71.634 384 160v96h192c35.346 0 64 28.654 64 64v320c0 35.346-28.654 64-64 64zM176.056 714.402c-36.994 12.19-59.408 25.246-71.41 34.398 12.004 9.152 34.416 22.208 71.41 34.398 57.942 19.090 131.79 29.602 207.944 29.602s150.004-10.512 207.944-29.602c36.994-12.188 59.408-25.246 71.41-34.398-12.002-9.152-34.416-22.208-71.41-34.398-57.94-19.090-131.79-29.602-207.944-29.602s-150.002 10.512-207.944 29.602zM896 332.8h-128v192h128v-192z" />
<glyph unicode="&#xf095;" d="M224 972.8c-106.040 0-192-100.288-192-224 0-105.924 63.022-194.666 147.706-217.998l-31.788-518.124c-2.154-35.132 24.882-63.878 60.082-63.878h32c35.2 0 62.236 28.746 60.082 63.878l-31.788 518.124c84.684 23.332 147.706 112.074 147.706 217.998 0 123.712-85.96 224-192 224zM869.334 972.8l-53.334-320h-40l-26.666 320h-26.668l-26.666-320h-40l-53.334 320h-26.666v-416c0-17.672 14.326-32 32-32h83.338l-31.42-512.122c-2.154-35.132 24.882-63.878 60.082-63.878h32c35.2 0 62.236 28.746 60.082 63.878l-31.42 512.122h83.338c17.674 0 32 14.328 32 32v416h-26.666z" />
<glyph unicode="&#xf096;" d="M1011.328 838.304c-110.752 83.928-281.184 134.034-455.91 134.034-216.12 0-392.226-75.456-483.16-207.020-42.708-61.79-66.33-134.958-70.208-217.474-3.454-73.474 8.884-154.726 36.684-242.146 94.874 284.384 359.82 507.102 665.266 507.102 0 0-285.826-75.232-465.524-308.192-0.112-0.138-2.494-3.090-6.614-8.698-36.080-48.278-67.538-103.162-91.078-165.328-39.87-94.83-76.784-224.948-76.784-381.782h128c0 0-19.43 122.222 14.36 262.79 55.89-7.556 105.858-11.306 150.852-11.306 117.678 0 201.37 25.46 263.388 80.124 55.568 48.978 86.198 114.786 118.624 184.456 49.524 106.408 105.654 227.010 268.654 320.152 9.33 5.332 15.362 14.992 16.056 25.716s-4.040 21.080-12.606 27.572z" />
<glyph unicode="&#xf097;" d="M1010.174 57.050l-548.634 499.458 25.534 25.598c20.894 20.954 32.188 48.030 33.918 75.61 1.002 0.45 2.002 0.912 2.958 1.442l102.99 64.402c13.934 16.392 12.916 42.268-2.284 57.502l-179.12 179.608c-15.19 15.234-40.998 16.262-57.344 2.284l-64.236-103.268c-0.526-0.966-0.99-1.966-1.44-2.974-27.502-1.736-54.5-13.056-75.398-34.006l-97.428-97.702c-20.898-20.956-32.184-48.026-33.918-75.604-1.004-0.45-2.004-0.916-2.964-1.446l-102.986-64.406c-13.942-16.39-12.916-42.264 2.276-57.496l179.12-179.604c15.194-15.238 40.996-16.262 57.35-2.286l64.228 103.27c0.528 0.958 0.988 1.96 1.442 2.966 27.502 1.738 54.504 13.050 75.398 34.004l28.292 28.372 498.122-550.114c14.436-15.944 36.7-18.518 49.474-5.712l50.356 50.488c12.764 12.808 10.196 35.132-5.706 49.614z" />
<glyph unicode="&#xf098;" d="M956.29 168.318l-316.29 527.024v213.458h32c17.6 0 32 14.4 32 32s-14.4 32-32 32h-320c-17.6 0-32-14.4-32-32s14.4-32 32-32h32v-213.458l-316.288-527.024c-72.442-120.734-16.512-219.518 124.288-219.518h640c140.8 0 196.73 98.784 124.29 219.518zM241.038 332.8l206.962 344.938v231.062h128v-231.062l206.964-344.938h-541.926z" />
<glyph unicode="&#xf099;" d="M768 332.832l-182.82 182.822 438.82 329.15-128.010 127.996-548.52-219.442-172.7 172.706c-49.78 49.778-119.302 61.706-154.502 26.508-35.198-35.198-23.268-104.726 26.51-154.5l172.686-172.684-219.464-548.582 127.99-128.006 329.19 438.868 182.826-182.828v-255.98h127.994l63.992 191.988 191.988 63.996v127.992l-255.98-0.004z" />
<glyph unicode="&#xf100;" d="M1024 396.8l-128 256h-192v128c0 35.2-28.8 64-64 64h-576c-35.2 0-64-28.8-64-64v-512l64-64h81.166c-10.898-18.832-17.166-40.678-17.166-64 0-70.692 57.308-128 128-128s128 57.308 128 128c0 23.322-6.268 45.168-17.166 64h354.334c-10.898-18.832-17.168-40.678-17.168-64 0-70.692 57.308-128 128-128s128 57.308 128 128c0 23.322-6.27 45.168-17.168 64h81.168v192zM704 396.8v192h132.668l96-192h-228.668z" />
<glyph unicode="&#xf101;" d="M704-51.2h320l-256 1024h-192l32-256h-192l32 256h-192l-256-1024h320l32 256h320l32-256zM368 332.8l32 256h224l32-256h-288z" />
<glyph unicode="&#xf102;" d="M874.040 822.84c-96.706 96.702-225.28 149.96-362.040 149.96s-265.334-53.258-362.040-149.96c-96.702-96.706-149.96-225.28-149.96-362.040s53.258-265.334 149.96-362.040c96.706-96.702 225.28-149.96 362.040-149.96s265.334 53.258 362.040 149.96c96.702 96.706 149.96 225.28 149.96 362.040s-53.258 265.334-149.96 362.040zM896 460.8c0-82.814-26.354-159.588-71.112-222.38l-535.266 535.268c62.792 44.758 139.564 71.112 222.378 71.112 211.738 0 384-172.262 384-384zM128 460.8c0 82.814 26.354 159.586 71.112 222.378l535.27-535.268c-62.794-44.756-139.568-71.11-222.382-71.11-211.738 0-384 172.262-384 384z" />
<glyph unicode="&#xf103;" d="M970.857 857.371q0-20-24.571-44.571l-361.143-361.143v-438.857h182.857q14.857 0 25.714-10.857t10.857-25.714-10.857-25.714-25.714-10.857h-512q-14.857 0-25.714 10.857t-10.857 25.714 10.857 25.714 25.714 10.857h182.857v438.857l-361.143 361.143q-24.571 24.571-24.571 44.571 0 13.143 10.286 20.857t21.714 10 24.571 2.286h804.571q13.143 0 24.571-2.286t21.714-10 10.286-20.857z" />
<glyph unicode="&#xf104;" d="M950.857 104.228v438.857q-18.286-20.571-39.429-37.714-153.143-117.714-243.429-193.143-29.143-24.571-47.429-38.286t-49.429-27.714-58.571-14h-1.143q-27.429 0-58.571 14t-49.429 27.714-47.429 38.286q-90.286 75.429-243.429 193.143-21.143 17.143-39.429 37.714v-438.857q0-7.429 5.429-12.857t12.857-5.429h841.143q7.429 0 12.857 5.429t5.429 12.857zM950.857 704.8v14t-0.286 7.429-1.714 7.143-3.143 5.143-5.143 4.286-8 1.429h-841.143q-7.429 0-12.857-5.429t-5.429-12.857q0-96 84-162.286 110.286-86.857 229.143-181.143 3.429-2.857 20-16.857t26.286-21.429 25.429-18 28.857-15.714 24.571-5.143h1.143q11.429 0 24.571 5.143t28.857 15.714 25.429 18 26.286 21.429 20 16.857q118.857 94.286 229.143 181.143 30.857 24.571 57.429 66t26.571 75.143zM1024 725.943v-621.714q0-37.714-26.857-64.571t-64.571-26.857h-841.143q-37.714 0-64.571 26.857t-26.857 64.571v621.714q0 37.714 26.857 64.571t64.571 26.857h841.143q37.714 0 64.571-26.857t26.857-64.571z" />
<glyph unicode="&#xf105;" d="M804.571 160.8q0-68.571-41.714-108.286t-110.857-39.714h-499.429q-69.143 0-110.857 39.714t-41.714 108.286q0 30.286 2 59.143t8 62.286 15.143 62 24.571 55.714 35.429 46.286 48.857 30.571 63.714 11.429q5.143 0 24-12.286t42.571-27.429 61.714-27.429 76.286-12.286 76.286 12.286 61.714 27.429 42.571 27.429 24 12.286q34.857 0 63.714-11.429t48.857-30.571 35.429-46.286 24.571-55.714 15.143-62 8-62.286 2-59.143zM621.714 671.086q0-90.857-64.286-155.143t-155.143-64.286-155.143 64.286-64.286 155.143 64.286 155.143 155.143 64.286 155.143-64.286 64.286-155.143z" horiz-adv-x="805" />
<glyph unicode="&#xf106;" d="M292.571 543.086v-329.143q0-8-5.143-13.143t-13.143-5.143h-36.571q-8 0-13.143 5.143t-5.143 13.143v329.143q0 8 5.143 13.143t13.143 5.143h36.571q8 0 13.143-5.143t5.143-13.143zM438.857 543.086v-329.143q0-8-5.143-13.143t-13.143-5.143h-36.571q-8 0-13.143 5.143t-5.143 13.143v329.143q0 8 5.143 13.143t13.143 5.143h36.571q8 0 13.143-5.143t5.143-13.143zM585.143 543.086v-329.143q0-8-5.143-13.143t-13.143-5.143h-36.571q-8 0-13.143 5.143t-5.143 13.143v329.143q0 8 5.143 13.143t13.143 5.143h36.571q8 0 13.143-5.143t5.143-13.143zM658.286 129.371v541.714h-512v-541.714q0-12.571 4-23.143t8.286-15.429 6-4.857h475.429q1.714 0 6 4.857t8.286 15.429 4 23.143zM274.286 744.228h256l-27.429 66.857q-4 5.143-9.714 6.286h-181.143q-5.714-1.143-9.714-6.286zM804.571 725.943v-36.571q0-8-5.143-13.143t-13.143-5.143h-54.857v-541.714q0-47.429-26.857-82t-64.571-34.571h-475.429q-37.714 0-64.571 33.429t-26.857 80.857v544h-54.857q-8 0-13.143 5.143t-5.143 13.143v36.571q0 8 5.143 13.143t13.143 5.143h176.571l40 95.429q8.571 21.143 30.857 36t45.143 14.857h182.857q22.857 0 45.143-14.857t30.857-36l40-95.429h176.571q8 0 13.143-5.143t5.143-13.143z" horiz-adv-x="805" />
<glyph unicode="&#xf107;" d="M182.857 817.371q0-41.143-36.571-62.857v-723.429q0-7.429-5.429-12.857t-12.857-5.429h-36.571q-7.429 0-12.857 5.429t-5.429 12.857v723.429q-36.571 21.714-36.571 62.857 0 30.286 21.429 51.714t51.714 21.429 51.714-21.429 21.429-51.714zM1024 780.8v-436q0-14.286-7.143-22t-22.571-15.714q-122.857-66.286-210.857-66.286-34.857 0-70.571 12.571t-62 27.429-66 27.429-81.429 12.571q-109.714 0-265.143-83.429-9.714-5.143-18.857-5.143-14.857 0-25.714 10.857t-10.857 25.714v424q0 18.286 17.714 31.429 12 8 45.143 24.571 134.857 68.571 240.571 68.571 61.143 0 114.286-16.571t125.143-50.286q21.714-10.857 50.286-10.857 30.857 0 67.143 12t62.857 26.857 50.286 26.857 31.143 12q14.857 0 25.714-10.857t10.857-25.714z" />
<glyph unicode="&#xf108;" d="M665.143 890.514q13.143 0 25.143-5.143 18.857-7.429 30-23.429t11.143-35.429v-736.571q0-19.429-11.143-35.429t-30-23.429q-10.857-4.571-25.143-4.571-27.429 0-47.429 18.286l-252 242.286-252-242.286q-20.571-18.857-47.429-18.857-13.143 0-25.143 5.143-18.857 7.429-30 23.429t-11.143 35.429v736.571q0 19.429 11.143 35.429t30 23.429q12 5.143 25.143 5.143h598.857z" horiz-adv-x="731" />
<glyph unicode="&#xf109;" d="M365.714 634.514q0-45.714-32-77.714t-77.714-32-77.714 32-32 77.714 32 77.714 77.714 32 77.714-32 32-77.714zM950.857 415.086v-256h-804.571v109.714l182.857 182.857 91.429-91.429 292.571 292.571zM1005.714 817.371h-914.286q-7.429 0-12.857-5.429t-5.429-12.857v-694.857q0-7.429 5.429-12.857t12.857-5.429h914.286q7.429 0 12.857 5.429t5.429 12.857v694.857q0 7.429-5.429 12.857t-12.857 5.429zM1097.143 799.086v-694.857q0-37.714-26.857-64.571t-64.571-26.857h-914.286q-37.714 0-64.571 26.857t-26.857 64.571v694.857q0 37.714 26.857 64.571t64.571 26.857h914.286q37.714 0 64.571-26.857t26.857-64.571z" horiz-adv-x="1097" />
<glyph unicode="&#xf110;" d="M507.429 287.086l66.286 66.286-86.857 86.857-66.286-66.286v-32h54.857v-54.857h32zM758.857 698.514q-9.143 9.143-18.857-0.571l-200-200q-9.714-9.714-0.571-18.857t18.857 0.571l200 200q9.714 9.714 0.571 18.857zM804.571 359.086v-108.571q0-68-48.286-116.286t-116.286-48.286h-475.429q-68 0-116.286 48.286t-48.286 116.286v475.429q0 68 48.286 116.286t116.286 48.286h475.429q36 0 66.857-14.286 8.571-4 10.286-13.143 1.714-9.714-5.143-16.571l-28-28q-8-8-18.286-4.571-13.143 3.429-25.714 3.429h-475.429q-37.714 0-64.571-26.857t-26.857-64.571v-475.429q0-37.714 26.857-64.571t64.571-26.857h475.429q37.714 0 64.571 26.857t26.857 64.571v72q0 7.429 5.143 12.571l36.571 36.571q8.571 8.571 20 4t11.429-16.571zM749.714 780.8l164.571-164.571-384-384h-164.571v164.571zM1003.429 705.371l-52.571-52.571-164.571 164.571 52.571 52.571q16 16 38.857 16t38.857-16l86.857-86.857q16-16 16-38.857t-16-38.857z" />
<glyph unicode="&#xf111;" d="M804.571 432.228v-181.714q0-68-48.286-116.286t-116.286-48.286h-475.429q-68 0-116.286 48.286t-48.286 116.286v475.429q0 68 48.286 116.286t116.286 48.286h475.429q36 0 66.857-14.286 8.571-4 10.286-13.143 1.714-9.714-5.143-16.571l-28-28q-5.714-5.714-13.143-5.714-1.714 0-5.143 1.143-13.143 3.429-25.714 3.429h-475.429q-37.714 0-64.571-26.857t-26.857-64.571v-475.429q0-37.714 26.857-64.571t64.571-26.857h475.429q37.714 0 64.571 26.857t26.857 64.571v145.143q0 7.429 5.143 12.571l36.571 36.571q5.714 5.714 13.143 5.714 3.429 0 6.857-1.714 11.429-4.571 11.429-16.571zM936.571 711.657l-465.143-465.143q-13.714-13.714-32.571-13.714t-32.571 13.714l-245.714 245.714q-13.714 13.714-13.714 32.571t13.714 32.571l62.857 62.857q13.714 13.714 32.571 13.714t32.571-13.714l150.286-150.286 369.714 369.714q13.714 13.714 32.571 13.714t32.571-13.714l62.857-62.857q13.714-13.714 13.714-32.571t-13.714-32.571z" horiz-adv-x="951" />
<glyph unicode="&#xf112;" d="M1024 597.943q0-14.857-10.857-25.714l-292.571-292.571q-10.857-10.857-25.714-10.857t-25.714 10.857-10.857 25.714v146.286h-128q-56 0-100.286-3.429t-88-12.286-76-24.286-60.286-39.714-45.714-57.714-27.714-79.143-10-103.429q0-31.429 2.857-70.286 0-3.429 1.429-13.429t1.429-15.143q0-8.571-4.857-14.286t-13.429-5.714q-9.143 0-16 9.714-4 5.143-7.429 12.571t-7.714 17.143-6 13.714q-72.571 162.857-72.571 257.714 0 113.714 30.286 190.286 92.571 230.286 500 230.286h128v146.286q0 14.857 10.857 25.714t25.714 10.857 25.714-10.857l292.571-292.571q10.857-10.857 10.857-25.714z" />
<glyph unicode="&#xf113;" d="M365.714 451.657v-292.571h-146.286v292.571h146.286zM585.143 744.228v-585.143h-146.286v585.143h146.286zM1170.286 85.943v-73.143h-1170.286v877.714h73.143v-804.571h1097.143zM804.571 597.943v-438.857h-146.286v438.857h146.286zM1024 817.371v-658.286h-146.286v658.286h146.286z" horiz-adv-x="1170" />
<glyph unicode="&#xf114;" d="M640 817.371h-475.429q-37.714 0-64.571-26.857t-26.857-64.571v-475.429q0-37.714 26.857-64.571t64.571-26.857h475.429q37.714 0 64.571 26.857t26.857 64.571v475.429q0 37.714-26.857 64.571t-64.571 26.857zM804.571 725.943v-475.429q0-68-48.286-116.286t-116.286-48.286h-475.429q-68 0-116.286 48.286t-48.286 116.286v475.429q0 68 48.286 116.286t116.286 48.286h475.429q68 0 116.286-48.286t48.286-116.286z" horiz-adv-x="805" />
<glyph unicode="&#xf115;" d="M658.286 817.371h-585.143v-709.714l292.571 280.571 50.857-48.571 241.714-232v709.714zM665.143 890.514q13.143 0 25.143-5.143 18.857-7.429 30-23.429t11.143-35.429v-736.571q0-19.429-11.143-35.429t-30-23.429q-10.857-4.571-25.143-4.571-27.429 0-47.429 18.286l-252 242.286-252-242.286q-20.571-18.857-47.429-18.857-13.143 0-25.143 5.143-18.857 7.429-30 23.429t-11.143 35.429v736.571q0 19.429 11.143 35.429t30 23.429q12 5.143 25.143 5.143h598.857z" horiz-adv-x="731" />
<glyph unicode="&#xf116;" d="M1005.714 890.514q37.714 0 64.571-26.857t26.857-64.571v-694.857q0-37.714-26.857-64.571t-64.571-26.857h-914.286q-37.714 0-64.571 26.857t-26.857 64.571v694.857q0 37.714 26.857 64.571t64.571 26.857h914.286zM91.429 817.371q-7.429 0-12.857-5.429t-5.429-12.857v-128h950.857v128q0 7.429-5.429 12.857t-12.857 5.429h-914.286zM1005.714 85.943q7.429 0 12.857 5.429t5.429 12.857v347.429h-950.857v-347.429q0-7.429 5.429-12.857t12.857-5.429h914.286zM146.286 159.086v73.143h146.286v-73.143h-146.286zM365.714 159.086v73.143h219.429v-73.143h-219.429z" horiz-adv-x="1097" />
<glyph unicode="&#xf117;" d="M786.286 451.657l78.857-77.143q17.143-16 11.429-40-6.857-23.429-29.714-29.143l-107.429-27.429 30.286-106.286q6.857-23.429-10.857-40-16.571-17.714-40-10.857l-106.286 30.286-27.429-107.429q-5.714-22.857-29.143-29.714-6.857-1.143-10.857-1.143-17.714 0-29.143 12.571l-77.143 78.857-77.143-78.857q-16-17.143-40-11.429-23.429 6.286-29.143 29.714l-27.429 107.429-106.286-30.286q-23.429-6.857-40 10.857-17.714 16.571-10.857 40l30.286 106.286-107.429 27.429q-22.857 5.714-29.714 29.143-5.714 24 11.429 40l78.857 77.143-78.857 77.143q-17.143 16-11.429 40 6.857 23.429 29.714 29.143l107.429 27.429-30.286 106.286q-6.857 23.429 10.857 40 16.571 17.714 40 10.857l106.286-30.286 27.429 107.429q5.714 23.429 29.143 29.143 23.429 6.857 40-10.857l77.143-79.429 77.143 79.429q16.571 17.143 40 10.857 23.429-5.714 29.143-29.143l27.429-107.429 106.286 30.286q23.429 6.857 40-10.857 17.714-16.571 10.857-40l-30.286-106.286 107.429-27.429q22.857-5.714 29.714-29.143 5.714-24-11.429-40z" />
<glyph unicode="&#xf118;" d="M365.714 817.371h292.571v73.143h-292.571v-73.143zM1024 451.657v-274.286q0-37.714-26.857-64.571t-64.571-26.857h-841.143q-37.714 0-64.571 26.857t-26.857 64.571v274.286h384v-91.429q0-14.857 10.857-25.714t25.714-10.857h182.857q14.857 0 25.714 10.857t10.857 25.714v91.429h384zM585.143 451.657v-73.143h-146.286v73.143h146.286zM1024 725.943v-219.429h-1024v219.429q0 37.714 26.857 64.571t64.571 26.857h201.143v91.429q0 22.857 16 38.857t38.857 16h329.143q22.857 0 38.857-16t16-38.857v-91.429h201.143q37.714 0 64.571-26.857t26.857-64.571z" />
<glyph unicode="&#xf119;" d="M365.714 159.086q0 29.714-21.714 51.429t-51.429 21.714-51.429-21.714-21.714-51.429 21.714-51.429 51.429-21.714 51.429 21.714 21.714 51.429zM146.286 451.657h219.429v146.286h-90.286q-7.429 0-12.571-5.143l-111.429-111.429q-5.143-5.143-5.143-12.571v-17.143zM877.714 159.086q0 29.714-21.714 51.429t-51.429 21.714-51.429-21.714-21.714-51.429 21.714-51.429 51.429-21.714 51.429 21.714 21.714 51.429zM1024 780.8v-585.143q0-8.571-2.286-15.143t-7.714-10.571-9.429-6.571-13.429-3.429-12.857-1.143-14.571 0-12.857 0.286q0-60.571-42.857-103.429t-103.429-42.857-103.429 42.857-42.857 103.429h-219.429q0-60.571-42.857-103.429t-103.429-42.857-103.429 42.857-42.857 103.429h-36.571q-1.714 0-12.857-0.286t-14.571 0-12.857 1.143-13.429 3.429-9.429 6.571-7.714 10.571-2.286 15.143q0 14.857 10.857 25.714t25.714 10.857v182.857q0 4.571-0.286 20t0 21.714 1.429 19.714 3.714 21.143 8 17.429 12.857 17.143l113.143 113.143q10.857 10.857 28.857 18.286t33.429 7.429h91.429v109.714q0 14.857 10.857 25.714t25.714 10.857h585.143q14.857 0 25.714-10.857t10.857-25.714z" />
<glyph unicode="&#xf120;" d="M1024 557.943v-453.714q0-37.714-26.857-64.571t-64.571-26.857h-841.143q-37.714 0-64.571 26.857t-26.857 64.571v453.714q25.143-28 57.714-49.714 206.857-140.571 284-197.143 32.571-24 52.857-37.429t54-27.429 62.857-14h1.143q29.143 0 62.857 14t54 27.429 52.857 37.429q97.143 70.286 284.571 197.143 32.571 22.286 57.143 49.714zM1024 725.943q0-45.143-28-86.286t-69.714-70.286q-214.857-149.143-267.429-185.714-5.714-4-24.286-17.429t-30.857-21.714-29.714-18.571-32.857-15.429-28.571-5.143h-1.143q-13.143 0-28.571 5.143t-32.857 15.429-29.714 18.571-30.857 21.714-24.286 17.429q-52 36.571-149.714 104.286t-117.143 81.429q-35.429 24-66.857 66t-31.429 78q0 44.571 23.714 74.286t67.714 29.714h841.143q37.143 0 64.286-26.857t27.143-64.571z" />
<glyph unicode="&#xf121;" d="M219.429 305.371q0 30.286-21.429 51.714t-51.714 21.429-51.714-21.429-21.429-51.714 21.429-51.714 51.714-21.429 51.714 21.429 21.429 51.714zM329.143 561.371q0 30.286-21.429 51.714t-51.714 21.429-51.714-21.429-21.429-51.714 21.429-51.714 51.714-21.429 51.714 21.429 21.429 51.714zM573.714 286.514l57.714 218.286q3.429 14.857-4.286 27.714t-22 16.857-27.429-3.714-17.143-22.571l-57.714-218.286q-34.286-2.857-61.143-24.857t-36-56.286q-11.429-44 11.429-83.429t66.857-50.857 83.429 11.429 50.857 66.857q9.143 34.286-3.429 66.857t-41.143 52zM950.857 305.371q0 30.286-21.429 51.714t-51.714 21.429-51.714-21.429-21.429-51.714 21.429-51.714 51.714-21.429 51.714 21.429 21.429 51.714zM585.143 671.086q0 30.286-21.429 51.714t-51.714 21.429-51.714-21.429-21.429-51.714 21.429-51.714 51.714-21.429 51.714 21.429 21.429 51.714zM841.143 561.371q0 30.286-21.429 51.714t-51.714 21.429-51.714-21.429-21.429-51.714 21.429-51.714 51.714-21.429 51.714 21.429 21.429 51.714zM1024 305.371q0-149.143-80.571-276-10.857-16.571-30.857-16.571h-801.143q-20 0-30.857 16.571-80.571 126.286-80.571 276 0 104 40.571 198.857t109.143 163.429 163.429 109.143 198.857 40.571 198.857-40.571 163.429-109.143 109.143-163.429 40.571-198.857z" />
<glyph unicode="&#xf122;" d="M420.571 634.514q0-7.429-5.429-12.857t-12.857-5.429-12.857 5.429-5.429 12.857q0 26.286-30.857 40.571t-60.571 14.286q-7.429 0-12.857 5.429t-5.429 12.857 5.429 12.857 12.857 5.429q28.571 0 56.857-9.143t49.714-30.857 21.429-51.429zM512 634.514q0 41.143-19.714 76.571t-51.429 58-70.286 35.429-78 12.857-78-12.857-70.286-35.429-51.429-58-19.714-76.571q0-57.714 38.857-102.857 5.714-6.286 17.429-18.857t17.429-18.857q73.143-87.429 80.571-170.286h130.286q7.429 82.857 80.571 170.286 5.714 6.286 17.429 18.857t17.429 18.857q38.857 45.143 38.857 102.857zM585.143 634.514q0-88.571-58.857-153.143-25.714-28-42.571-49.714t-34-54.571-19.429-61.429q26.857-16 26.857-46.857 0-21.143-14.286-36.571 14.286-15.429 14.286-36.571 0-29.714-25.714-46.286 7.429-13.143 7.429-26.857 0-26.286-18-40.571t-44.286-14.286q-11.429-25.143-34.286-40t-49.714-14.857-49.714 14.857-34.286 40q-26.286 0-44.286 14.286t-18 40.571q0 13.714 7.429 26.857-25.714 16.571-25.714 46.286 0 21.143 14.286 36.571-14.286 15.429-14.286 36.571 0 30.857 26.857 46.857-2.286 28.571-19.429 61.429t-34 54.571-42.571 49.714q-58.857 64.571-58.857 153.143 0 56.571 25.429 105.429t66.857 81.143 93.714 50.857 106.571 18.571 106.571-18.571 93.714-50.857 66.857-81.143 25.429-105.429z" horiz-adv-x="585" />
<glyph unicode="&#xf123;" d="M1024 287.086v-109.714q0-7.429-5.429-12.857t-12.857-5.429h-786.286v-109.714q0-7.429-5.429-12.857t-12.857-5.429q-6.857 0-13.714 5.714l-182.286 182.857q-5.143 5.143-5.143 12.571 0 8 5.143 13.143l182.857 182.857q5.143 5.143 13.143 5.143 7.429 0 12.857-5.429t5.429-12.857v-109.714h786.286q7.429 0 12.857-5.429t5.429-12.857zM1024 597.943q0-8-5.143-13.143l-182.857-182.857q-5.143-5.143-13.143-5.143-7.429 0-12.857 5.429t-5.429 12.857v109.714h-786.286q-7.429 0-12.857 5.429t-5.429 12.857v109.714q0 7.429 5.429 12.857t12.857 5.429h786.286v109.714q0 8 5.143 13.143t13.143 5.143q6.857 0 13.714-5.714l182.286-182.286q5.143-5.143 5.143-13.143z" />
<glyph unicode="&#xf124;" d="M365.714 744.228h292.571v73.143h-292.571v-73.143zM164.571 744.228v-731.429h-36.571q-52.571 0-90.286 37.714t-37.714 90.286v475.429q0 52.571 37.714 90.286t90.286 37.714h36.571zM804.571 744.228v-731.429h-585.143v731.429h73.143v91.429q0 22.857 16 38.857t38.857 16h329.143q22.857 0 38.857-16t16-38.857v-91.429h73.143zM1024 616.228v-475.429q0-52.571-37.714-90.286t-90.286-37.714h-36.571v731.429h36.571q52.571 0 90.286-37.714t37.714-90.286z" />
<glyph unicode="&#xf125;" d="M950.857 597.943q0 45.714-32 77.714t-77.714 32h-36.571v-219.429h36.571q45.714 0 77.714 32t32 77.714zM0 159.086h1024q0-60.571-42.857-103.429t-103.429-42.857h-731.429q-60.571 0-103.429 42.857t-42.857 103.429zM1060.571 597.943q0-90.857-64.286-155.143t-155.143-64.286h-36.571v-18.286q0-52.571-37.714-90.286t-90.286-37.714h-402.286q-52.571 0-90.286 37.714t-37.714 90.286v420.571q0 14.857 10.857 25.714t25.714 10.857h658.286q90.857 0 155.143-64.286t64.286-155.143z" horiz-adv-x="1097" />
<glyph unicode="&#xf126;" d="M219.429 213.943v-36.571q0-7.429-5.429-12.857t-12.857-5.429h-36.571q-7.429 0-12.857 5.429t-5.429 12.857v36.571q0 7.429 5.429 12.857t12.857 5.429h36.571q7.429 0 12.857-5.429t5.429-12.857zM219.429 360.228v-36.571q0-7.429-5.429-12.857t-12.857-5.429h-36.571q-7.429 0-12.857 5.429t-5.429 12.857v36.571q0 7.429 5.429 12.857t12.857 5.429h36.571q7.429 0 12.857-5.429t5.429-12.857zM365.714 360.228v-36.571q0-7.429-5.429-12.857t-12.857-5.429h-36.571q-7.429 0-12.857 5.429t-5.429 12.857v36.571q0 7.429 5.429 12.857t12.857 5.429h36.571q7.429 0 12.857-5.429t5.429-12.857zM219.429 506.514v-36.571q0-7.429-5.429-12.857t-12.857-5.429h-36.571q-7.429 0-12.857 5.429t-5.429 12.857v36.571q0 7.429 5.429 12.857t12.857 5.429h36.571q7.429 0 12.857-5.429t5.429-12.857zM658.286 213.943v-36.571q0-7.429-5.429-12.857t-12.857-5.429h-36.571q-7.429 0-12.857 5.429t-5.429 12.857v36.571q0 7.429 5.429 12.857t12.857 5.429h36.571q7.429 0 12.857-5.429t5.429-12.857zM512 360.228v-36.571q0-7.429-5.429-12.857t-12.857-5.429h-36.571q-7.429 0-12.857 5.429t-5.429 12.857v36.571q0 7.429 5.429 12.857t12.857 5.429h36.571q7.429 0 12.857-5.429t5.429-12.857zM365.714 506.514v-36.571q0-7.429-5.429-12.857t-12.857-5.429h-36.571q-7.429 0-12.857 5.429t-5.429 12.857v36.571q0 7.429 5.429 12.857t12.857 5.429h36.571q7.429 0 12.857-5.429t5.429-12.857zM219.429 652.8v-36.571q0-7.429-5.429-12.857t-12.857-5.429h-36.571q-7.429 0-12.857 5.429t-5.429 12.857v36.571q0 7.429 5.429 12.857t12.857 5.429h36.571q7.429 0 12.857-5.429t5.429-12.857zM658.286 360.228v-36.571q0-7.429-5.429-12.857t-12.857-5.429h-36.571q-7.429 0-12.857 5.429t-5.429 12.857v36.571q0 7.429 5.429 12.857t12.857 5.429h36.571q7.429 0 12.857-5.429t5.429-12.857zM512 506.514v-36.571q0-7.429-5.429-12.857t-12.857-5.429h-36.571q-7.429 0-12.857 5.429t-5.429 12.857v36.571q0 7.429 5.429 12.857t12.857 5.429h36.571q7.429 0 12.857-5.429t5.429-12.857zM365.714 652.8v-36.571q0-7.429-5.429-12.857t-12.857-5.429h-36.571q-7.429 0-12.857 5.429t-5.429 12.857v36.571q0 7.429 5.429 12.857t12.857 5.429h36.571q7.429 0 12.857-5.429t5.429-12.857zM219.429 799.086v-36.571q0-7.429-5.429-12.857t-12.857-5.429h-36.571q-7.429 0-12.857 5.429t-5.429 12.857v36.571q0 7.429 5.429 12.857t12.857 5.429h36.571q7.429 0 12.857-5.429t5.429-12.857zM658.286 506.514v-36.571q0-7.429-5.429-12.857t-12.857-5.429h-36.571q-7.429 0-12.857 5.429t-5.429 12.857v36.571q0 7.429 5.429 12.857t12.857 5.429h36.571q7.429 0 12.857-5.429t5.429-12.857zM512 652.8v-36.571q0-7.429-5.429-12.857t-12.857-5.429h-36.571q-7.429 0-12.857 5.429t-5.429 12.857v36.571q0 7.429 5.429 12.857t12.857 5.429h36.571q7.429 0 12.857-5.429t5.429-12.857zM365.714 799.086v-36.571q0-7.429-5.429-12.857t-12.857-5.429h-36.571q-7.429 0-12.857 5.429t-5.429 12.857v36.571q0 7.429 5.429 12.857t12.857 5.429h36.571q7.429 0 12.857-5.429t5.429-12.857zM658.286 652.8v-36.571q0-7.429-5.429-12.857t-12.857-5.429h-36.571q-7.429 0-12.857 5.429t-5.429 12.857v36.571q0 7.429 5.429 12.857t12.857 5.429h36.571q7.429 0 12.857-5.429t5.429-12.857zM512 799.086v-36.571q0-7.429-5.429-12.857t-12.857-5.429h-36.571q-7.429 0-12.857 5.429t-5.429 12.857v36.571q0 7.429 5.429 12.857t12.857 5.429h36.571q7.429 0 12.857-5.429t5.429-12.857zM658.286 799.086v-36.571q0-7.429-5.429-12.857t-12.857-5.429h-36.571q-7.429 0-12.857 5.429t-5.429 12.857v36.571q0 7.429 5.429 12.857t12.857 5.429h36.571q7.429 0 12.857-5.429t5.429-12.857zM512 12.8h219.429v877.714h-658.286v-877.714h219.429v128q0 7.429 5.429 12.857t12.857 5.429h182.857q7.429 0 12.857-5.429t5.429-12.857v-128zM804.571 927.086v-950.857q0-14.857-10.857-25.714t-25.714-10.857h-731.429q-14.857 0-25.714 10.857t-10.857 25.714v950.857q0 14.857 10.857 25.714t25.714 10.857h731.429q14.857 0 25.714-10.857t10.857-25.714z" horiz-adv-x="805" />
<glyph unicode="&#xf127;" d="M237.714 232.228q-37.714 0-64.571 26.857t-26.857 64.571v402.286q0 37.714 26.857 64.571t64.571 26.857h621.714q37.714 0 64.571-26.857t26.857-64.571v-402.286q0-37.714-26.857-64.571t-64.571-26.857h-621.714zM219.429 725.943v-402.286q0-7.429 5.429-12.857t12.857-5.429h621.714q7.429 0 12.857 5.429t5.429 12.857v402.286q0 7.429-5.429 12.857t-12.857 5.429h-621.714q-7.429 0-12.857-5.429t-5.429-12.857zM1005.714 195.657h91.429v-54.857q0-22.857-26.857-38.857t-64.571-16h-914.286q-37.714 0-64.571 16t-26.857 38.857v54.857h1005.714zM594.286 140.8q9.143 0 9.143 9.143t-9.143 9.143h-91.429q-9.143 0-9.143-9.143t9.143-9.143h91.429z" horiz-adv-x="1097" />
<glyph unicode="&#xf128;" d="M438.857 762.514q-84.571 0-156-41.714t-113.143-113.143-41.714-156 41.714-156 113.143-113.143 156-41.714 156 41.714 113.143 113.143 41.714 156-41.714 156-113.143 113.143-156 41.714zM877.714 451.657q0-119.429-58.857-220.286t-159.714-159.714-220.286-58.857-220.286 58.857-159.714 159.714-58.857 220.286 58.857 220.286 159.714 159.714 220.286 58.857 220.286-58.857 159.714-159.714 58.857-220.286z" />
<glyph unicode="&#xf129;" d="M877.714 451.657q0-119.429-58.857-220.286t-159.714-159.714-220.286-58.857-220.286 58.857-159.714 159.714-58.857 220.286 58.857 220.286 159.714 159.714 220.286 58.857 220.286-58.857 159.714-159.714 58.857-220.286z" />
<glyph unicode="&#xf130;" d="M1024 323.657q0-94.857-72.571-257.714-1.714-4-6-13.714t-7.714-17.143-7.429-12.571q-6.857-9.714-16-9.714-8.571 0-13.429 5.714t-4.857 14.286q0 5.143 1.429 15.143t1.429 13.429q2.857 38.857 2.857 70.286 0 57.714-10 103.429t-27.714 79.143-45.714 57.714-60.286 39.714-76 24.286-88 12.286-100.286 3.429h-128v-146.286q0-14.857-10.857-25.714t-25.714-10.857-25.714 10.857l-292.571 292.571q-10.857 10.857-10.857 25.714t10.857 25.714l292.571 292.571q10.857 10.857 25.714 10.857t25.714-10.857 10.857-25.714v-146.286h128q407.429 0 500-230.286 30.286-76.571 30.286-190.286z" />
<glyph unicode="&#xf131;" d="M950.857 366.514v352q-96.571-52-174.857-52-46.857 0-82.857 18.286-57.143 28-105.143 43.714t-101.714 15.714q-98.857 0-230.286-72.571v-342.286q140 64.571 247.429 64.571 31.429 0 59.143-4.286t56-14.857 44-17.714 47.143-22.571l16-8q25.143-12.571 57.714-12.571 68.571 0 167.429 52.571zM182.857 817.371q0-20-10-36.571t-26.571-26.286v-723.429q0-8-5.143-13.143t-13.143-5.143h-36.571q-8 0-13.143 5.143t-5.143 13.143v723.429q-16.571 9.714-26.571 26.286t-10 36.571q0 30.286 21.429 51.714t51.714 21.429 51.714-21.429 21.429-51.714zM1024 780.8v-436q0-22.286-20-32.571-5.714-2.857-9.714-5.143-124.571-66.286-210.857-66.286-50.286 0-90.286 20l-16 8q-36.571 18.857-56.571 27.429t-52 16.571-65.143 8q-58.286 0-134.571-25.143t-130.571-58.286q-8.571-5.143-18.857-5.143-9.143 0-18.286 4.571-18.286 10.857-18.286 32v424q0 20 17.714 31.429 20 12 44.857 24.286t65.143 29.714 87.143 28.286 88.571 10.857q64 0 119.429-17.714t119.429-49.143q21.714-10.857 50.857-10.857 69.714 0 177.143 64 12.571 6.857 17.714 9.714 17.714 9.143 35.429-1.143 17.714-11.429 17.714-31.429z" />
<glyph unicode="&#xf132;" d="M800.571 764.228l-365.714-731.429q-9.714-20-32.571-20-2.857 0-8.571 1.143-12.571 2.857-20.286 12.857t-7.714 22.571v329.143h-329.143q-12.571 0-22.571 7.714t-12.857 20.286 2.286 24 16.571 17.143l731.429 365.714q7.429 4 16.571 4 15.429 0 25.714-10.857 8.571-8 10.571-19.714t-3.714-22.571z" horiz-adv-x="805" />
<glyph unicode="&#xf133;" d="M585.143 451.657q0-60.571-42.857-103.429t-103.429-42.857-103.429 42.857-42.857 103.429 42.857 103.429 103.429 42.857 103.429-42.857 42.857-103.429zM438.857 762.514q-84.571 0-156-41.714t-113.143-113.143-41.714-156 41.714-156 113.143-113.143 156-41.714 156 41.714 113.143 113.143 41.714 156-41.714 156-113.143 113.143-156 41.714zM877.714 451.657q0-119.429-58.857-220.286t-159.714-159.714-220.286-58.857-220.286 58.857-159.714 159.714-58.857 220.286 58.857 220.286 159.714 159.714 220.286 58.857 220.286-58.857 159.714-159.714 58.857-220.286z" />
<glyph unicode="&#xf134;" d="M768 963.657q14.857 0 25.714-10.857t10.857-25.714v-950.857q0-14.857-10.857-25.714t-25.714-10.857h-731.429q-14.857 0-25.714 10.857t-10.857 25.714v950.857q0 14.857 10.857 25.714t25.714 10.857h731.429zM292.571 799.086v-36.571q0-8 5.143-13.143t13.143-5.143h36.571q8 0 13.143 5.143t5.143 13.143v36.571q0 8-5.143 13.143t-13.143 5.143h-36.571q-8 0-13.143-5.143t-5.143-13.143zM292.571 652.8v-36.571q0-8 5.143-13.143t13.143-5.143h36.571q8 0 13.143 5.143t5.143 13.143v36.571q0 8-5.143 13.143t-13.143 5.143h-36.571q-8 0-13.143-5.143t-5.143-13.143zM292.571 506.514v-36.571q0-8 5.143-13.143t13.143-5.143h36.571q8 0 13.143 5.143t5.143 13.143v36.571q0 8-5.143 13.143t-13.143 5.143h-36.571q-8 0-13.143-5.143t-5.143-13.143zM292.571 360.228v-36.571q0-8 5.143-13.143t13.143-5.143h36.571q8 0 13.143 5.143t5.143 13.143v36.571q0 8-5.143 13.143t-13.143 5.143h-36.571q-8 0-13.143-5.143t-5.143-13.143zM219.429 177.371v36.571q0 8-5.143 13.143t-13.143 5.143h-36.571q-8 0-13.143-5.143t-5.143-13.143v-36.571q0-8 5.143-13.143t13.143-5.143h36.571q8 0 13.143 5.143t5.143 13.143zM219.429 323.657v36.571q0 8-5.143 13.143t-13.143 5.143h-36.571q-8 0-13.143-5.143t-5.143-13.143v-36.571q0-8 5.143-13.143t13.143-5.143h36.571q8 0 13.143 5.143t5.143 13.143zM219.429 469.943v36.571q0 8-5.143 13.143t-13.143 5.143h-36.571q-8 0-13.143-5.143t-5.143-13.143v-36.571q0-8 5.143-13.143t13.143-5.143h36.571q8 0 13.143 5.143t5.143 13.143zM219.429 616.228v36.571q0 8-5.143 13.143t-13.143 5.143h-36.571q-8 0-13.143-5.143t-5.143-13.143v-36.571q0-8 5.143-13.143t13.143-5.143h36.571q8 0 13.143 5.143t5.143 13.143zM219.429 762.514v36.571q0 8-5.143 13.143t-13.143 5.143h-36.571q-8 0-13.143-5.143t-5.143-13.143v-36.571q0-8 5.143-13.143t13.143-5.143h36.571q8 0 13.143 5.143t5.143 13.143zM512 31.086v109.714q0 8-5.143 13.143t-13.143 5.143h-182.857q-8 0-13.143-5.143t-5.143-13.143v-109.714q0-8 5.143-13.143t13.143-5.143h182.857q8 0 13.143 5.143t5.143 13.143zM512 323.657v36.571q0 8-5.143 13.143t-13.143 5.143h-36.571q-8 0-13.143-5.143t-5.143-13.143v-36.571q0-8 5.143-13.143t13.143-5.143h36.571q8 0 13.143 5.143t5.143 13.143zM512 469.943v36.571q0 8-5.143 13.143t-13.143 5.143h-36.571q-8 0-13.143-5.143t-5.143-13.143v-36.571q0-8 5.143-13.143t13.143-5.143h36.571q8 0 13.143 5.143t5.143 13.143zM512 616.228v36.571q0 8-5.143 13.143t-13.143 5.143h-36.571q-8 0-13.143-5.143t-5.143-13.143v-36.571q0-8 5.143-13.143t13.143-5.143h36.571q8 0 13.143 5.143t5.143 13.143zM512 762.514v36.571q0 8-5.143 13.143t-13.143 5.143h-36.571q-8 0-13.143-5.143t-5.143-13.143v-36.571q0-8 5.143-13.143t13.143-5.143h36.571q8 0 13.143 5.143t5.143 13.143zM658.286 177.371v36.571q0 8-5.143 13.143t-13.143 5.143h-36.571q-8 0-13.143-5.143t-5.143-13.143v-36.571q0-8 5.143-13.143t13.143-5.143h36.571q8 0 13.143 5.143t5.143 13.143zM658.286 323.657v36.571q0 8-5.143 13.143t-13.143 5.143h-36.571q-8 0-13.143-5.143t-5.143-13.143v-36.571q0-8 5.143-13.143t13.143-5.143h36.571q8 0 13.143 5.143t5.143 13.143zM658.286 469.943v36.571q0 8-5.143 13.143t-13.143 5.143h-36.571q-8 0-13.143-5.143t-5.143-13.143v-36.571q0-8 5.143-13.143t13.143-5.143h36.571q8 0 13.143 5.143t5.143 13.143zM658.286 616.228v36.571q0 8-5.143 13.143t-13.143 5.143h-36.571q-8 0-13.143-5.143t-5.143-13.143v-36.571q0-8 5.143-13.143t13.143-5.143h36.571q8 0 13.143 5.143t5.143 13.143zM658.286 762.514v36.571q0 8-5.143 13.143t-13.143 5.143h-36.571q-8 0-13.143-5.143t-5.143-13.143v-36.571q0-8 5.143-13.143t13.143-5.143h36.571q8 0 13.143 5.143t5.143 13.143z" />
<glyph unicode="&#xf135;" d="M438.857 817.371q-74.286 0-142-29.143t-116.571-78-78-116.571-29.143-142 29.143-142 78-116.571 116.571-78 142-29.143 142 29.143 116.571 78 78 116.571 29.143 142-29.143 142-78 116.571-116.571 78-142 29.143zM877.714 451.657q0-119.429-58.857-220.286t-159.714-159.714-220.286-58.857-220.286 58.857-159.714 159.714-58.857 220.286 58.857 220.286 159.714 159.714 220.286 58.857 220.286-58.857 159.714-159.714 58.857-220.286z" />
<glyph unicode="&#xf136;" d="M1170.286 85.943v-73.143h-1170.286v877.714h73.143v-804.571h1097.143zM950.857 671.086l146.286-512h-950.857v329.143l256 329.143 329.143-329.143z" horiz-adv-x="1170" />
<glyph unicode="&#xf137;" d="M438.857 455.086l312-312q-60.571-61.714-141.429-96t-170.571-34.286q-119.429 0-220.286 58.857t-159.714 159.714-58.857 220.286 58.857 220.286 159.714 159.714 220.286 58.857v-435.429zM545.714 451.657h441.714q0-89.714-34.286-170.571t-96-141.429zM950.857 524.8h-438.857v438.857q119.429 0 220.286-58.857t159.714-159.714 58.857-220.286z" />
<glyph unicode="&#xf138;" d="M1170.286 85.943v-73.143h-1170.286v877.714h73.143v-804.571h1097.143zM1097.143 799.086v-248.571q0-12-11.143-16.857t-20.286 4.286l-69.143 69.143-361.714-361.714q-5.714-5.714-13.143-5.714t-13.143 5.714l-133.143 133.143-237.714-237.714-109.714 109.714 334.286 334.286q5.714 5.714 13.143 5.714t13.143-5.714l133.143-133.143 265.143 265.143-69.143 69.143q-9.143 9.143-4.286 20.286t16.857 11.143h248.571q8 0 13.143-5.143t5.143-13.143z" horiz-adv-x="1170" />
<glyph unicode="&#xf139;" d="M288 396.8h-64v-448h64c17.6 0 32 14.4 32 32v384c0 17.6-14.4 32-32 32zM736 396.8c-17.602 0-32-14.4-32-32v-384c0-17.6 14.398-32 32-32h64v448h-64zM1024 460.8c0 282.77-229.23 512-512 512s-512-229.23-512-512c0-61.412 10.83-120.29 30.656-174.848-19.478-33.206-30.656-71.87-30.656-113.152 0-112.846 83.448-206.188 192-221.716v443.418c-31.914-4.566-61.664-15.842-87.754-32.378-5.392 26.718-8.246 54.364-8.246 82.676 0 229.75 186.25 416 416 416s416-186.25 416-416c0-28.314-2.83-55.968-8.22-82.696-26.1 16.546-55.854 27.848-87.78 32.418v-443.44c108.548 15.532 192 108.874 192 221.714 0 41.274-11.178 79.934-30.648 113.138 19.828 54.566 30.648 113.452 30.648 174.866z" />
<glyph unicode="&#xf140;" d="M960 972.8h64v-736c0-88.366-100.29-160-224-160s-224 71.634-224 160c0 88.368 100.29 160 224 160 62.684 0 119.342-18.4 160-48.040v368.040l-512-113.778v-494.222c0-88.366-100.288-160-224-160s-224 71.634-224 160c0 88.368 100.288 160 224 160 62.684 0 119.342-18.4 160-48.040v624.040l576 128z" />
<glyph unicode="&#xf141;" d="M544 972.8l-96-96 96-96-224-256h-224l176-176-272-360.616v-39.384h39.384l360.616 272 176-176v224l256 224 96-96 96 96-480 480zM448 428.8l-64 64 224 224 64-64-224-224z" />
<glyph unicode="&#xf142;" d="M992.262 101.404l-242.552 206.294c-25.074 22.566-51.89 32.926-73.552 31.926 57.256 67.068 91.842 154.078 91.842 249.176 0 212.078-171.922 384-384 384-212.076 0-384-171.922-384-384s171.922-384 384-384c95.098 0 182.108 34.586 249.176 91.844-1-21.662 9.36-48.478 31.926-73.552l206.294-242.552c35.322-39.246 93.022-42.554 128.22-7.356s31.892 92.898-7.354 128.22zM384 332.8c-141.384 0-256 114.616-256 256s114.616 256 256 256 256-114.616 256-256-114.614-256-256-256z" />
<glyph unicode="&#xf143;" d="M992.262 101.404l-242.552 206.294c-25.074 22.566-51.89 32.926-73.552 31.926 57.256 67.068 91.842 154.078 91.842 249.176 0 212.078-171.922 384-384 384-212.076 0-384-171.922-384-384s171.922-384 384-384c95.098 0 182.108 34.586 249.176 91.844-1-21.662 9.36-48.478 31.926-73.552l206.294-242.552c35.322-39.246 93.022-42.554 128.22-7.356s31.892 92.898-7.354 128.22zM384 332.8c-141.384 0-256 114.616-256 256s114.616 256 256 256 256-114.616 256-256-114.614-256-256-256zM448 780.8h-128v-128h-128v-128h128v-128h128v128h128v128h-128z" />
<glyph unicode="&#xf144;" d="M992.262 101.404l-242.552 206.294c-25.074 22.566-51.89 32.926-73.552 31.926 57.256 67.068 91.842 154.078 91.842 249.176 0 212.078-171.922 384-384 384-212.076 0-384-171.922-384-384s171.922-384 384-384c95.098 0 182.108 34.586 249.176 91.844-1-21.662 9.36-48.478 31.926-73.552l206.294-242.552c35.322-39.246 93.022-42.554 128.22-7.356s31.892 92.898-7.354 128.22zM384 332.8c-141.384 0-256 114.616-256 256s114.616 256 256 256 256-114.616 256-256-114.614-256-256-256zM192 652.8h384v-128h-384z" />
<glyph unicode="&#xf145;" d="M1024 972.8h-416l160-160-192-192 96-96 192 192 160-160zM1024-51.2v416l-160-160-192 192-96-96 192-192-160-160zM0-51.2h416l-160 160 192 192-96 96-192-192-160 160zM0 972.8v-416l160 160 192-192 96 96-192 192 160 160z" />
<glyph unicode="&#xf146;" d="M576 524.8h416l-160 160 192 192-96 96-192-192-160 160zM576 396.8v-416l160 160 192-192 96 96-192 192 160 160zM448 396.804h-416l160-160-192-192 96-96 192 192 160-160zM448 524.8v416l-160-160-192 192-96-96 192-192-160-160z" />
<glyph unicode="&#xf147;" d="M1024 972.8v-416l-160 160-192-192-96 96 192 192-160 160zM448 300.8l-192-192 160-160h-416v416l160-160 192 192z" />
<glyph unicode="&#xf148;" d="M448 396.8v-416l-160 160-192-192-96 96 192 192-160 160zM1024 876.8l-192-192 160-160h-416v416l160-160 192 192z" />
<glyph unicode="&#xf149;" d="M384 972.8l-384-512h384l-256-512 896 640h-512l384 384z" />
<glyph unicode="&#xf150;" d="M512 140.8c35.346 0 64-28.654 64-64v-64c0-35.346-28.654-64-64-64s-64 28.654-64 64v64c0 35.346 28.654 64 64 64zM512 780.8c-35.346 0-64 28.654-64 64v64c0 35.346 28.654 64 64 64s64-28.654 64-64v-64c0-35.346-28.654-64-64-64zM960 524.8c35.346 0 64-28.654 64-64s-28.654-64-64-64h-64c-35.348 0-64 28.654-64 64s28.652 64 64 64h64zM192 460.8c0-35.346-28.654-64-64-64h-64c-35.346 0-64 28.654-64 64s28.654 64 64 64h64c35.346 0 64-28.654 64-64zM828.784 234.526l45.256-45.258c24.992-24.99 24.992-65.516 0-90.508-24.994-24.992-65.518-24.992-90.51 0l-45.256 45.256c-24.992 24.99-24.992 65.516 0 90.51 24.994 24.992 65.518 24.992 90.51 0zM195.216 687.074l-45.256 45.256c-24.994 24.994-24.994 65.516 0 90.51s65.516 24.994 90.51 0l45.256-45.256c24.994-24.994 24.994-65.516 0-90.51s-65.516-24.994-90.51 0zM828.784 687.074c-24.992-24.992-65.516-24.992-90.51 0-24.992 24.994-24.992 65.516 0 90.51l45.256 45.254c24.992 24.994 65.516 24.994 90.51 0 24.992-24.994 24.992-65.516 0-90.51l-45.256-45.254zM195.216 234.526c24.992 24.992 65.518 24.992 90.508 0 24.994-24.994 24.994-65.52 0-90.51l-45.254-45.256c-24.994-24.992-65.516-24.992-90.51 0s-24.994 65.518 0 90.508l45.256 45.258zM512 716.8c-141.384 0-256-114.616-256-256 0-141.382 114.616-256 256-256 141.382 0 256 114.618 256 256 0 141.384-114.616 256-256 256zM512 300.8c-88.366 0-160 71.634-160 160s71.634 160 160 160 160-71.634 160-160-71.634-160-160-160z" />
<glyph unicode="&#xf151;" d="M512 972.8c-282.77 0-512-229.23-512-512s229.23-512 512-512 512 229.23 512 512-229.23 512-512 512zM128 460.8c0 212.078 171.922 384 384 384v-768c-212.078 0-384 171.922-384 384z" />
<glyph unicode="&#xf152;" d="M512 716.8c-141.384 0-256-114.616-256-256s114.616-256 256-256 256 114.616 256 256-114.616 256-256 256zM512 300.8v320c88.224 0 160-71.776 160-160s-71.776-160-160-160zM512 140.8c35.346 0 64-28.654 64-64v-64c0-35.346-28.654-64-64-64s-64 28.654-64 64v64c0 35.346 28.654 64 64 64zM512 780.8c-35.346 0-64 28.654-64 64v64c0 35.346 28.654 64 64 64s64-28.654 64-64v-64c0-35.346-28.654-64-64-64zM960 524.8c35.346 0 64-28.654 64-64s-28.654-64-64-64h-64c-35.346 0-64 28.654-64 64s28.654 64 64 64h64zM192 460.8c0-35.346-28.654-64-64-64h-64c-35.346 0-64 28.654-64 64s28.654 64 64 64h64c35.346 0 64-28.654 64-64zM828.784 234.526l45.256-45.256c24.992-24.992 24.992-65.516 0-90.51-24.994-24.992-65.518-24.992-90.51 0l-45.256 45.256c-24.992 24.992-24.992 65.516 0 90.51 24.994 24.992 65.518 24.992 90.51 0zM195.216 687.074l-45.256 45.256c-24.994 24.994-24.994 65.516 0 90.51s65.516 24.994 90.51 0l45.256-45.256c24.994-24.994 24.994-65.516 0-90.51s-65.516-24.994-90.51 0zM828.784 687.074c-24.992-24.992-65.516-24.992-90.51 0-24.992 24.994-24.992 65.516 0 90.51l45.256 45.254c24.992 24.994 65.516 24.994 90.51 0 24.992-24.994 24.992-65.516 0-90.51l-45.256-45.254zM195.216 234.526c24.992 24.992 65.516 24.992 90.508 0 24.994-24.994 24.994-65.518 0-90.51l-45.254-45.256c-24.994-24.992-65.516-24.992-90.51 0-24.994 24.994-24.994 65.518 0 90.51l45.256 45.256z" />
<glyph unicode="&#xf153;" d="M192 844.8l640-384-640-384z" />
<glyph unicode="&#xf154;" d="M128 844.8h320v-768h-320zM576 844.8h320v-768h-320z" />
<glyph unicode="&#xf155;" d="M128 844.8h768v-768h-768z" />
<glyph unicode="&#xf156;" d="M576 812.8v-320l320 320v-704l-320 320v-320l-352 352z" />
<glyph unicode="&#xf157;" d="M512 108.8v320l-320-320v704l320-320v320l352-352z" />
<glyph unicode="&#xf158;" d="M128 76.8v768h128v-352l320 320v-320l320 320v-704l-320 320v-320l-320 320v-352z" />
<glyph unicode="&#xf159;" d="M896 844.8v-768h-128v352l-320-320v320l-320-320v704l320-320v320l320-320v352z" />
<glyph unicode="&#xf160;" d="M256 76.8v768h128v-352l320 320v-704l-320 320v-352z" />
<glyph unicode="&#xf161;" d="M768 844.8v-768h-128v352l-320-320v704l320-320v352z" />
<glyph unicode="&#xf162;" d="M0 204.8h1024v-128h-1024zM512 844.8l512-512h-1024z" />
<glyph unicode="&#xf163;" d="M890.040 50.76c-12.286 0-24.566 4.686-33.942 14.056-18.744 18.746-18.744 49.136 0 67.882 87.638 87.642 135.904 204.16 135.904 328.1 0 123.938-48.266 240.458-135.904 328.098-18.744 18.746-18.744 49.138 0 67.882s49.138 18.744 67.882 0c105.77-105.772 164.022-246.4 164.022-395.98s-58.252-290.208-164.022-395.98c-9.372-9.372-21.656-14.058-33.94-14.058zM719.53 141.27c-12.286 0-24.566 4.686-33.942 14.056-18.744 18.744-18.744 49.136 0 67.882 131.006 131.006 131.006 344.17 0 475.176-18.744 18.746-18.744 49.138 0 67.882 18.744 18.742 49.138 18.744 67.882 0 81.594-81.59 126.53-190.074 126.53-305.466 0-115.39-44.936-223.876-126.53-305.47-9.372-9.374-21.656-14.060-33.94-14.060v0zM549.020 231.78c-12.286 0-24.568 4.686-33.942 14.058-18.746 18.746-18.746 49.134 0 67.88 81.1 81.1 81.1 213.058 0 294.156-18.746 18.746-18.746 49.138 0 67.882s49.136 18.744 67.882 0c118.53-118.53 118.53-311.392 0-429.922-9.372-9.368-21.656-14.054-33.94-14.054zM416.006 12.8c-8.328 0-16.512 3.25-22.634 9.374l-246.626 246.626h-114.746c-17.672 0-32 14.326-32 32v320c0 17.672 14.328 32 32 32h114.746l246.626 246.628c9.154 9.154 22.916 11.89 34.874 6.936 11.958-4.952 19.754-16.622 19.754-29.564v-832c0-12.944-7.796-24.612-19.754-29.564-3.958-1.64-8.118-2.436-12.24-2.436z" horiz-adv-x="1088" />
<glyph unicode="&#xf164;" d="M719.53 141.27c-12.286 0-24.566 4.686-33.942 14.056-18.744 18.744-18.744 49.136 0 67.882 131.006 131.006 131.006 344.17 0 475.176-18.744 18.746-18.744 49.138 0 67.882 18.744 18.742 49.138 18.744 67.882 0 81.594-81.59 126.53-190.074 126.53-305.466 0-115.39-44.936-223.876-126.53-305.47-9.372-9.374-21.656-14.060-33.94-14.060v0zM549.020 231.78c-12.286 0-24.566 4.686-33.942 14.058-18.746 18.746-18.746 49.134 0 67.88 81.1 81.1 81.1 213.058 0 294.156-18.746 18.746-18.746 49.138 0 67.882s49.136 18.744 67.882 0c118.53-118.53 118.53-311.392 0-429.922-9.372-9.368-21.656-14.054-33.94-14.054zM416.006 12.8c-8.328 0-16.512 3.25-22.634 9.374l-246.626 246.626h-114.746c-17.672 0-32 14.326-32 32v320c0 17.672 14.328 32 32 32h114.746l246.626 246.628c9.154 9.154 22.916 11.89 34.874 6.936 11.958-4.952 19.754-16.622 19.754-29.564v-832c0-12.944-7.796-24.612-19.754-29.564-3.958-1.64-8.118-2.436-12.24-2.436z" />
<glyph unicode="&#xf165;" d="M549.020 231.78c-12.286 0-24.566 4.686-33.942 14.058-18.746 18.746-18.746 49.134 0 67.88 81.1 81.1 81.1 213.058 0 294.156-18.746 18.746-18.746 49.138 0 67.882s49.136 18.744 67.882 0c118.53-118.53 118.53-311.392 0-429.922-9.372-9.368-21.656-14.054-33.94-14.054zM416.006 12.8c-8.328 0-16.512 3.25-22.634 9.374l-246.626 246.626h-114.746c-17.672 0-32 14.326-32 32v320c0 17.672 14.328 32 32 32h114.746l246.626 246.628c9.154 9.154 22.916 11.89 34.874 6.936 11.958-4.952 19.754-16.622 19.754-29.564v-832c0-12.944-7.796-24.612-19.754-29.564-3.958-1.64-8.118-2.436-12.24-2.436z" />
<glyph unicode="&#xf166;" d="M960 353.652v-84.852h-84.852l-107.148 107.148-107.148-107.148h-84.852v84.852l107.148 107.148-107.148 107.148v84.852h84.852l107.148-107.148 107.148 107.148h84.852v-84.852l-107.148-107.148 107.148-107.148zM416.006 12.8c-8.328 0-16.512 3.25-22.634 9.374l-246.626 246.626h-114.746c-17.672 0-32 14.326-32 32v320c0 17.672 14.328 32 32 32h114.746l246.626 246.628c9.154 9.154 22.916 11.89 34.874 6.936 11.958-4.952 19.754-16.622 19.754-29.564v-832c0-12.944-7.796-24.612-19.754-29.564-3.958-1.64-8.118-2.436-12.24-2.436z" />
<glyph unicode="&#xf167;" d="M1024 396.8h-192v-192h-128v192h-192v128h192v192h128v-192h192v-128zM416.006 12.8c-8.328 0-16.512 3.25-22.634 9.374l-246.626 246.626h-114.746c-17.672 0-32 14.326-32 32v320c0 17.672 14.328 32 32 32h114.746l246.626 246.628c9.154 9.154 22.916 11.89 34.874 6.936 11.958-4.952 19.754-16.622 19.754-29.564v-832c0-12.944-7.796-24.612-19.754-29.564-3.958-1.64-8.118-2.436-12.24-2.436z" />
<glyph unicode="&#xf168;" d="M512 524.8h512v-128h-512v128zM416.006 12.8c-8.328 0-16.512 3.25-22.634 9.374l-246.626 246.626h-114.746c-17.672 0-32 14.326-32 32v320c0 17.672 14.328 32 32 32h114.746l246.626 246.628c9.154 9.154 22.916 11.89 34.874 6.936 11.958-4.952 19.754-16.622 19.754-29.564v-832c0-12.944-7.796-24.612-19.754-29.564-3.958-1.64-8.118-2.436-12.24-2.436z" />
<glyph unicode="&#xf169;" d="M889.68 806.48c-93.608 102.216-228.154 166.32-377.68 166.32-282.77 0-512-229.23-512-512h96c0 229.75 186.25 416 416 416 123.020 0 233.542-53.418 309.696-138.306l-149.696-149.694h352v352l-134.32-134.32zM928 460.8c0-229.75-186.25-416-416-416-123.020 0-233.542 53.418-309.694 138.306l149.694 149.694h-352v-352l134.32 134.32c93.608-102.216 228.154-166.32 377.68-166.32 282.77 0 512 229.23 512 512h-96z" />
</font>
</defs>
</svg>
