<?xml version="1.0" encoding="utf-8"?>
<!-- Generated by IcoMoon.io -->
<!DOCTYPE svg PUBLIC "-//W3C//DTD SVG 1.1//EN" "http://www.w3.org/Graphics/SVG/1.1/DTD/svg11.dtd">
<svg version="1.1" xmlns="http://www.w3.org/2000/svg" xmlns:xlink="http://www.w3.org/1999/xlink" width="32" height="32" viewBox="0 0 32 32">
<path fill="#6a518b" d="M1.2 0h29.6c0.663 0 1.2 0.537 1.2 1.2v29.6c0 0.663-0.537 1.2-1.2 1.2h-29.6c-0.663 0-1.2-0.537-1.2-1.2v-29.6c0-0.663 0.537-1.2 1.2-1.2z"></path>
<path fill="#ff9c00" d="M16 9.6l-5.333 4.267v-8.533l5.333 4.267z"></path>
<path fill="#ffc602" d="M5.333 9.6l5.333 4.267v-8.533l-5.333 4.267z"></path>
<path fill="#ffe748" d="M26.667 9.6l-5.333 4.267v-8.533l5.333 4.267z"></path>
<path fill="#ffce26" d="M16 9.6l5.333 4.267v-8.533l-5.333 4.267z"></path>
<path fill="#ff9600" d="M21.333 13.867l-5.333 4.267v-8.533l5.333 4.267z"></path>
<path fill="#ff7201" d="M10.667 13.867l5.333 4.267v-8.533l-5.333 4.267z"></path>
<path fill="#ff8a01" d="M26.667 18.133l-5.333 4.267v-8.533l5.333 4.267z"></path>
<path fill="#e12c1a" d="M16 18.133l5.333 4.267v-8.533l-5.333 4.267z"></path>
<path fill="#dd2a00" d="M16 18.133l-5.333 4.267v-8.533l5.333 4.267z"></path>
<path fill="#ff8f02" d="M5.333 18.133l5.333 4.267v-8.533l-5.333 4.267z"></path>
<path fill="#b1150a" d="M21.333 22.4l-5.333 4.267v-8.533l5.333 4.267z"></path>
<path fill="#bc1b01" d="M10.667 22.4l5.333 4.267v-8.533l-5.333 4.267z"></path>
<path fill="#ffc602" d="M21.333 13.867l5.333 4.267v-8.533l-5.333 4.267z"></path>
<path fill="#ffa801" d="M10.667 13.867l-5.333 4.267v-8.533l5.333 4.267z"></path>
</svg>
