<?xml version="1.0" standalone="no"?><!DOCTYPE svg PUBLIC "-//W3C//DTD SVG 1.1//EN" "http://www.w3.org/Graphics/SVG/1.1/DTD/svg11.dtd"><svg width="200" height="200" viewBox="0 0 200 200" version="1.1" xmlns="http://www.w3.org/2000/svg" xmlns:xlink="http://www.w3.org/1999/xlink"><defs><style type="text/css"><![CDATA[
@font-face { font-family: ifont; src: url("//at.alicdn.com/t/font_1442373896_4754455.eot?#iefix") format("embedded-opentype"), url("//at.alicdn.com/t/font_1442373896_4754455.woff") format("woff"), url("//at.alicdn.com/t/font_1442373896_4754455.ttf") format("truetype"), url("//at.alicdn.com/t/font_1442373896_4754455.svg#ifont") format("svg"); }

]]></style></defs><g class="transform-group"><g transform="scale(0.1953125, 0.1953125)"><path d="M511.255545 956.542632c-246.065232 0-446.246437-200.192462-446.246437-446.245414 0-246.063185 200.181205-446.255647 446.246437-446.255647 246.061139 0 446.243367 200.192462 446.243367 446.255647 0 123.348306-47.885614 237.004879-134.843104 320.05334-4.79419 4.564969-9.742898 9.069563-14.69263 13.384845l-27.931143-32.04074c4.469801-3.901867 8.94165-7.948019 13.280468-12.098549 55.511291-52.999075 121.68748-146.237619 121.68748-289.298895 0-222.63459-181.120081-403.756717-403.743414-403.756717-222.626403 0-403.746484 181.121104-403.746484 403.756717 0 222.62538 181.120081 403.745461 403.746484 403.745461 53.308113 0 108.321054-11.538801 159.092391-33.389458l16.787338 39.054481C631.1154 943.800423 570.294173 956.542632 511.255545 956.542632zM526.734074 417.164075c20.86726 2.76088 41.732473 11.994172 59.662845 29.92352 16.891715 16.913205 26.530236 38.141692 29.65439 60.139705l131.938961-221.721801L526.734074 417.164075zM436.13259 597.370343c-16.891715-16.890692-26.542516-38.09769-29.684066-60.053748l-131.929752 221.668589 221.700311-131.938961C474.244606 623.934349 453.036585 614.283548 436.13259 597.370343zM541.322327 492.201072c16.560164 16.60212 16.560164 43.496653 0 60.098773-16.600073 16.600073-43.493583 16.600073-60.09468 0-16.603143-16.60212-16.603143-43.496653 0-60.098773C497.807255 475.600999 524.722254 475.600999 541.322327 492.201072z" fill="#56abe4"></path></g></g></svg>