<?xml version="1.0" standalone="no"?><!DOCTYPE svg PUBLIC "-//W3C//DTD SVG 1.1//EN" "http://www.w3.org/Graphics/SVG/1.1/DTD/svg11.dtd"><svg width="204.296875" height="200" viewBox="0 0 204.296875 200" version="1.1" xmlns="http://www.w3.org/2000/svg" xmlns:xlink="http://www.w3.org/1999/xlink"><defs><style type="text/css"><![CDATA[
@font-face { font-family: ifont; src: url("//at.alicdn.com/t/font_1442373896_4754455.eot?#iefix") format("embedded-opentype"), url("//at.alicdn.com/t/font_1442373896_4754455.woff") format("woff"), url("//at.alicdn.com/t/font_1442373896_4754455.ttf") format("truetype"), url("//at.alicdn.com/t/font_1442373896_4754455.svg#ifont") format("svg"); }

]]></style></defs><g class="transform-group"><g transform="scale(0.1953125, 0.1953125)"><path d="M960 640C925.888 640 896.682667 619.84 883.029333 590.912 827.882667 616.170667 789.333333 671.381333 789.333333 736L789.333333 821.333333 789.333333 842.666667C789.333333 846.272 789.632 849.792 789.866667 853.333333L786.56 853.333333C771.2 950.016 687.68 1024 586.666667 1024 474.730667 1024 384 933.269333 384 821.333333L384 724.266667C193.685333 713.152 64 555.754667 64 362.666667L64 167.658667C27.264 158.122667 0 125.056 0 85.333333 0 38.208 38.208 0 85.333333 0 132.458667 0 170.666667 38.208 170.666667 85.333333 170.666667 125.056 143.402667 158.122667 106.666667 167.658667L106.666667 362.666667C106.666667 539.392 228.608 682.666667 405.333333 682.666667 582.058667 682.666667 704 539.392 704 362.666667L704 167.658667C667.264 158.122667 640 125.056 640 85.333333 640 38.208 678.208 0 725.333333 0 772.458667 0 810.666667 38.208 810.666667 85.333333 810.666667 125.056 783.402667 158.122667 746.666667 167.658667L746.666667 362.666667C746.666667 555.754667 616.981333 713.152 426.666667 724.266667L426.666667 821.333333C426.666667 909.696 498.304 981.333333 586.666667 981.333333 675.029333 981.333333 746.666667 909.696 746.666667 821.333333L746.666667 736 746.666667 714.666667C746.666667 711.061333 746.368 707.541333 746.133333 704L749.44 704C760.810667 632.448 809.813333 573.952 875.328 548.096 878.741333 504.085333 915.114667 469.333333 960 469.333333 1007.125333 469.333333 1045.333333 507.541333 1045.333333 554.666667 1045.333333 601.792 1007.125333 640 960 640ZM128 85.333333C128 61.76 108.906667 42.666667 85.333333 42.666667 61.76 42.666667 42.666667 61.76 42.666667 85.333333 42.666667 108.906667 61.76 128 85.333333 128 108.906667 128 128 108.906667 128 85.333333ZM768 85.333333C768 61.76 748.906667 42.666667 725.333333 42.666667 701.76 42.666667 682.666667 61.76 682.666667 85.333333 682.666667 108.906667 701.76 128 725.333333 128 748.906667 128 768 108.906667 768 85.333333ZM960 512C936.426667 512 917.333333 531.093333 917.333333 554.666667 917.333333 578.24 936.426667 597.333333 960 597.333333 983.573333 597.333333 1002.666667 578.24 1002.666667 554.666667 1002.666667 531.093333 983.573333 512 960 512Z" fill="#eb4f38"></path></g></g></svg>