<?xml version="1.0" standalone="no"?><!DOCTYPE svg PUBLIC "-//W3C//DTD SVG 1.1//EN" "http://www.w3.org/Graphics/SVG/1.1/DTD/svg11.dtd"><svg width="128" height="128" viewBox="0 0 128 128" version="1.1" xmlns="http://www.w3.org/2000/svg" xmlns:xlink="http://www.w3.org/1999/xlink"><defs><style type="text/css"><![CDATA[
@font-face { font-family: ifont; src: url("//at.alicdn.com/t/font_1442373896_4754455.eot?#iefix") format("embedded-opentype"), url("//at.alicdn.com/t/font_1442373896_4754455.woff") format("woff"), url("//at.alicdn.com/t/font_1442373896_4754455.ttf") format("truetype"), url("//at.alicdn.com/t/font_1442373896_4754455.svg#ifont") format("svg"); }

]]></style></defs><g class="transform-group"><g transform="scale(0.125, 0.125)"><path d="M566.983983 125.673258 302.126138 125.673258c-28.272039 0-51.190943 22.917966-51.190943 51.188846l0 251.872494c0 28.27088 22.918905 51.188846 51.190943 51.188846l264.857846 0c28.272039 0 51.190943-22.917966 51.190943-51.188846L618.174927 176.862103C618.174927 148.591223 595.256022 125.673258 566.983983 125.673258zM561.379106 413.558967l-59.855632 0-17.411245-52.788274-91.414665 0-17.412268 52.788274-58.76679 0 89.238003-241.947448 65.295751 0L561.379106 413.558967zM474.317764 318.979892l-30.471214-83.581604c-2.176661-7.320733-3.996174-14.297634-5.441142-20.895913l-1.087819 0c-0.730671 8.076956-2.550184 15.396665-5.441142 21.994943l-27.206733 82.482573L474.317764 318.979892zM443.456654 513.660826 178.598809 513.660826c-28.272039 0-51.190943 22.917966-51.190943 51.188846l0 251.872494c0 28.27088 22.918905 51.188846 51.190943 51.188846l264.857846 0c28.272039 0 51.190943-22.917966 51.190943-51.188846L494.647597 564.849672C494.647597 536.578792 471.728693 513.660826 443.456654 513.660826zM844.083119 513.660826 579.225274 513.660826c-28.272039 0-51.190943 22.917966-51.190943 51.188846l0 251.872494c0 28.27088 22.918905 51.188846 51.190943 51.188846l264.857846 0c28.272039 0 51.190943-22.917966 51.190943-51.188846L895.274062 564.849672C895.274062 536.578792 872.355158 513.660826 844.083119 513.660826zM319.313269 817.571511 201.780714 817.571511 201.780714 575.624063l112.091414 0c53.682796 1.477654 81.977348 20.534685 84.88468 57.18849 0 28.593222-15.610152 47.667649-46.795663 57.187467 33.362172 7.337105 52.236805 26.03291 56.590128 56.088436C408.551273 793.755082 378.794356 817.571511 319.313269 817.571511zM305.166505 616.315834l-48.971301 0 0 57.187467 48.971301 0c23.210559-0.721431 35.181685-10.997472 35.913379-30.79333C340.34819 625.113197 328.377064 616.315834 305.166505 616.315834zM310.607647 714.194048l-54.413467 0 0 64.885799 53.324624 0c26.832188 0 40.622827-10.997472 41.354521-32.992415C348.696664 725.56912 335.263173 714.932876 310.607647 714.194048zM822.150722 646.00911l-52.236805 12.096503c-7.261678-24.916483-23.942253-38.113039-50.060144-39.590694-37.001198 2.199085-56.590128 28.233018-58.76679 78.083379 1.444968 50.589189 21.033897 77.361949 58.76679 80.282464 29.740543-0.721431 47.151788-18.696828 52.236805-53.888328l52.236805 16.496719c-12.344648 54.987359-47.170209 82.482573-104.47361 82.482573-74.002396-3.677762-112.823108-45.451168-116.444737-125.373429 3.621629-78.443583 42.44234-119.874181 116.444737-124.272351C772.090578 573.803601 806.183421 598.358857 822.150722 646.00911z" fill="#fff"></path></g></g></svg>