<?xml version="1.0" standalone="no"?><!DOCTYPE svg PUBLIC "-//W3C//DTD SVG 1.1//EN" "http://www.w3.org/Graphics/SVG/1.1/DTD/svg11.dtd"><svg width="128" height="128" viewBox="0 0 128 128" version="1.1" xmlns="http://www.w3.org/2000/svg" xmlns:xlink="http://www.w3.org/1999/xlink"><defs><style type="text/css"><![CDATA[
@font-face { font-family: ifont; src: url("//at.alicdn.com/t/font_1442373896_4754455.eot?#iefix") format("embedded-opentype"), url("//at.alicdn.com/t/font_1442373896_4754455.woff") format("woff"), url("//at.alicdn.com/t/font_1442373896_4754455.ttf") format("truetype"), url("//at.alicdn.com/t/font_1442373896_4754455.svg#ifont") format("svg"); }

]]></style></defs><g class="transform-group"><g transform="scale(0.125, 0.125)"><path d="M467.478261 220.382609C467.478261 184.765217 438.53913 155.826087 402.921739 155.826087L153.6 155.826087C117.982609 155.826087 89.043478 184.765217 89.043478 220.382609l0 229.286957C89.043478 483.06087 117.982609 512 153.6 512l251.547826 0c35.617391 0 64.556522-28.93913 64.556522-64.556522L469.704348 220.382609zM422.956522 447.443478c0 11.130435-8.904348 20.034783-20.034783 20.034783L153.6 467.478261C142.469565 467.478261 133.565217 458.573913 133.565217 447.443478L133.565217 220.382609C133.565217 209.252174 142.469565 200.347826 153.6 200.347826l251.547826 0C414.052174 200.347826 422.956522 209.252174 422.956522 220.382609L422.956522 447.443478zM890.434783 220.382609C890.434783 184.765217 861.495652 155.826087 825.878261 155.826087L576.556522 155.826087C540.93913 155.826087 512 184.765217 512 220.382609l0 229.286957c0 35.617391 28.93913 64.556522 64.556522 64.556522l251.547826 0c35.617391 0 64.556522-28.93913 64.556522-64.556522L892.66087 220.382609zM845.913043 447.443478c0 11.130435-8.904348 20.034783-20.034783 20.034783L576.556522 467.478261c-11.130435 0-20.034783-8.904348-20.034783-20.034783L556.521739 220.382609C556.521739 209.252174 565.426087 200.347826 576.556522 200.347826l251.547826 0C837.008696 200.347826 845.913043 209.252174 845.913043 220.382609L845.913043 447.443478zM467.478261 621.078261c0-35.617391-28.93913-64.556522-64.556522-64.556522L153.6 556.521739C117.982609 556.521739 89.043478 585.46087 89.043478 621.078261l0 229.286957C89.043478 883.756522 117.982609 912.695652 153.6 912.695652l251.547826 0c35.617391 0 64.556522-28.93913 64.556522-64.556522L469.704348 621.078261zM422.956522 848.13913c0 11.130435-8.904348 20.034783-20.034783 20.034783L153.6 868.173913C142.469565 868.173913 133.565217 859.269565 133.565217 848.13913L133.565217 621.078261C133.565217 609.947826 142.469565 601.043478 153.6 601.043478l251.547826 0c11.130435 0 20.034783 8.904348 20.034783 20.034783L425.182609 848.13913zM890.434783 621.078261c0-35.617391-28.93913-64.556522-64.556522-64.556522L576.556522 556.521739c-35.617391 0-64.556522 28.93913-64.556522 64.556522l0 229.286957c0 35.617391 28.93913 64.556522 64.556522 64.556522l251.547826 0c35.617391 0 64.556522-28.93913 64.556522-64.556522L892.66087 621.078261zM845.913043 848.13913c0 11.130435-8.904348 20.034783-20.034783 20.034783L576.556522 868.173913c-11.130435 0-20.034783-8.904348-20.034783-20.034783L556.521739 621.078261c0-11.130435 8.904348-20.034783 20.034783-20.034783l251.547826 0c11.130435 0 20.034783 8.904348 20.034783 20.034783L848.13913 848.13913z" fill="#fff"></path></g></g></svg>