<?xml version="1.0" standalone="no"?><!DOCTYPE svg PUBLIC "-//W3C//DTD SVG 1.1//EN" "http://www.w3.org/Graphics/SVG/1.1/DTD/svg11.dtd"><svg width="128" height="128" viewBox="0 0 128 128" version="1.1" xmlns="http://www.w3.org/2000/svg" xmlns:xlink="http://www.w3.org/1999/xlink"><defs><style type="text/css"><![CDATA[
@font-face { font-family: ifont; src: url("//at.alicdn.com/t/font_1442373896_4754455.eot?#iefix") format("embedded-opentype"), url("//at.alicdn.com/t/font_1442373896_4754455.woff") format("woff"), url("//at.alicdn.com/t/font_1442373896_4754455.ttf") format("truetype"), url("//at.alicdn.com/t/font_1442373896_4754455.svg#ifont") format("svg"); }

]]></style></defs><g class="transform-group"><g transform="scale(0.125, 0.125)"><path d="M266.24 559.104 47.104 559.104c-26.624 0-47.104-20.48-47.104-47.104l0 0c0-26.624 20.48-47.104 47.104-47.104L266.24 464.896c26.624 0 47.104 20.48 47.104 47.104l0 0C313.344 538.624 290.816 559.104 266.24 559.104M976.896 559.104 757.76 559.104c-26.624 0-47.104-20.48-47.104-47.104l0 0c0-26.624 20.48-47.104 47.104-47.104l217.088 0c26.624 0 47.104 20.48 47.104 47.104l0 0C1024 538.624 1001.472 559.104 976.896 559.104M321.536 675.84l-188.416 108.544c-22.528 12.288-51.2 6.144-65.536-16.384l0 0c-12.288-22.528-6.144-51.2 16.384-63.488l188.416-108.544c22.528-12.288 51.2-6.144 65.536 16.384l0 0C352.256 632.832 344.064 661.504 321.536 675.84M749.568 430.08c-22.528 12.288-51.2 6.144-65.536-16.384-12.288-22.528-6.144-51.2 16.384-63.488l188.416-108.544c22.528-12.288 51.2-6.144 65.536 16.384 12.288 22.528 6.144 51.2-16.384 63.488L749.568 430.08zM430.08 747.52l-108.544 186.368c-12.288 22.528-43.008 30.72-65.536 16.384l0 0c-22.528-12.288-30.72-40.96-16.384-63.488l108.544-186.368c12.288-22.528 43.008-30.72 65.536-16.384l0 0C434.176 696.32 442.368 724.992 430.08 747.52M675.84 323.584c-12.288 22.528-43.008 30.72-65.536 16.384s-30.72-40.96-16.384-63.488l108.544-186.368c12.288-22.528 43.008-30.72 65.536-16.384 22.528 12.288 30.72 40.96 16.384 63.488L675.84 323.584zM559.104 757.76l0 215.04c0 26.624-20.48 47.104-47.104 47.104l0 0c-26.624 0-47.104-20.48-47.104-47.104L464.896 757.76c0-26.624 20.48-47.104 47.104-47.104l0 0C538.624 710.656 559.104 731.136 559.104 757.76M559.104 51.2 559.104 266.24c0 26.624-20.48 47.104-47.104 47.104l0 0c-26.624 0-47.104-20.48-47.104-47.104L464.896 51.2c0-26.624 20.48-47.104 47.104-47.104l0 0C538.624 4.096 559.104 24.576 559.104 51.2M675.84 700.416l108.544 186.368c12.288 22.528 6.144 51.2-16.384 63.488l0 0c-22.528 12.288-51.2 6.144-65.536-16.384L593.92 747.52c-12.288-22.528-6.144-51.2 16.384-63.488l0 0C634.88 669.696 663.552 677.888 675.84 700.416M321.536 90.112l108.544 186.368c12.288 22.528 6.144 51.2-16.384 63.488l0 0c-22.528 12.288-51.2 6.144-65.536-16.384l-108.544-186.368c-12.288-22.528-6.144-51.2 16.384-63.488l0 0C278.528 59.392 307.2 67.584 321.536 90.112M749.568 593.92l188.416 108.544c22.528 12.288 30.72 40.96 16.384 63.488l0 0c-12.288 22.528-43.008 30.72-65.536 16.384L702.464 675.84c-22.528-12.288-30.72-40.96-16.384-63.488l0 0C698.368 587.776 727.04 579.584 749.568 593.92M133.12 241.664l188.416 108.544c22.528 12.288 30.72 40.96 16.384 63.488l0 0c-12.288 22.528-43.008 30.72-65.536 16.384l-188.416-108.544c-22.528-12.288-30.72-40.96-16.384-63.488l0 0C81.92 235.52 110.592 227.328 133.12 241.664" fill="#fff"></path></g></g></svg>