<?xml version="1.0" standalone="no"?><!DOCTYPE svg PUBLIC "-//W3C//DTD SVG 1.1//EN" "http://www.w3.org/Graphics/SVG/1.1/DTD/svg11.dtd"><svg width="128" height="128" viewBox="0 0 128 128" version="1.1" xmlns="http://www.w3.org/2000/svg" xmlns:xlink="http://www.w3.org/1999/xlink"><defs><style type="text/css"><![CDATA[
@font-face { font-family: ifont; src: url("//at.alicdn.com/t/font_1442373896_4754455.eot?#iefix") format("embedded-opentype"), url("//at.alicdn.com/t/font_1442373896_4754455.woff") format("woff"), url("//at.alicdn.com/t/font_1442373896_4754455.ttf") format("truetype"), url("//at.alicdn.com/t/font_1442373896_4754455.svg#ifont") format("svg"); }

]]></style></defs><g class="transform-group"><g transform="scale(0.125, 0.125)"><path d="M833.536 348.16 814.08 327.68c-16.384-16.384-43.008-16.384-59.392 0L455.68 626.688 292.864 463.872c-16.384-16.384-43.008-16.384-59.392 0l-19.456 19.456c-16.384 16.384-16.384 43.008 0 59.392l222.208 202.752c16.384 16.384 43.008 16.384 59.392 0l338.944-337.92C849.92 391.168 849.92 364.544 833.536 348.16zM512 5.12C232.448 5.12 5.12 232.448 5.12 512c0 279.552 227.328 506.88 506.88 506.88 279.552 0 506.88-227.328 506.88-506.88C1018.88 232.448 791.552 5.12 512 5.12zM512 958.464C263.168 958.464 61.44 757.76 61.44 508.928 61.44 260.096 263.168 59.392 512 59.392s450.56 201.728 450.56 449.536C962.56 757.76 760.832 958.464 512 958.464z" fill="#fff"></path></g></g></svg>