<?xml version="1.0" standalone="no"?><!DOCTYPE svg PUBLIC "-//W3C//DTD SVG 1.1//EN" "http://www.w3.org/Graphics/SVG/1.1/DTD/svg11.dtd"><svg width="128" height="128" viewBox="0 0 128 128" version="1.1" xmlns="http://www.w3.org/2000/svg" xmlns:xlink="http://www.w3.org/1999/xlink"><defs><style type="text/css"><![CDATA[
@font-face { font-family: ifont; src: url("//at.alicdn.com/t/font_1442373896_4754455.eot?#iefix") format("embedded-opentype"), url("//at.alicdn.com/t/font_1442373896_4754455.woff") format("woff"), url("//at.alicdn.com/t/font_1442373896_4754455.ttf") format("truetype"), url("//at.alicdn.com/t/font_1442373896_4754455.svg#ifont") format("svg"); }

]]></style></defs><g class="transform-group"><g transform="scale(0.125, 0.125)"><path d="M155.826087 712.347826c-6.360248-12.720497-31.801242-12.720497-38.161491 0-19.080745 25.440994-95.403727 146.285714-95.403727 197.167702 0 63.602484 50.881988 114.484472 114.484472 114.484472 63.602484 0 114.484472-50.881988 114.484472-114.484472C257.590062 852.273292 174.906832 731.428571 155.826087 712.347826zM982.658385 521.540373l-50.881988-69.962733c38.161491-38.161491 63.602484-89.043478 63.602484-152.645963 0-114.484472-95.403727-209.888199-209.888199-209.888199l-114.484472 0 0 0-38.161491-50.881988c0-6.360248-6.360248-6.360248-6.360248-12.720497l0 0 0 0c0 0 0 0 0 0-19.080745-19.080745-44.521739-25.440994-69.962733-25.440994-82.68323 0-203.52795 69.962733-305.291925 171.726708-69.962733 69.962733-120.84472 139.925466-152.645963 209.888199-31.801242 76.322981-31.801242 133.565217 0 165.36646l489.73913 362.534161c12.720497 12.720497 31.801242 19.080745 50.881988 19.080745 63.602484 0 152.645963-57.242236 228.968944-133.565217C963.57764 705.987578 1033.540373 578.782609 982.658385 521.540373zM785.490683 146.285714c89.043478 0 159.006211 69.962733 159.006211 159.006211 0 44.521739-19.080745 82.68323-44.521739 114.484472L702.807453 146.285714 785.490683 146.285714zM136.745342 407.055901c25.440994-63.602484 76.322981-133.565217 139.925466-197.167702 95.403727-95.403727 209.888199-159.006211 273.490683-159.006211 19.080745 0 31.801242 6.360248 38.161491 12.720497 19.080745 19.080745 19.080745 63.602484-6.360248 114.484472-25.440994 63.602484-76.322981 133.565217-139.925466 197.167702-95.403727 95.403727-203.52795 159.006211-273.490683 159.006211-19.080745 0-31.801242-6.360248-38.161491-12.720497C111.304348 502.459627 111.304348 464.298137 136.745342 407.055901z" fill="#fff"></path></g></g></svg>