<?xml version="1.0" standalone="no"?><!DOCTYPE svg PUBLIC "-//W3C//DTD SVG 1.1//EN" "http://www.w3.org/Graphics/SVG/1.1/DTD/svg11.dtd"><svg width="128" height="128" viewBox="0 0 128 128" version="1.1" xmlns="http://www.w3.org/2000/svg" xmlns:xlink="http://www.w3.org/1999/xlink"><defs><style type="text/css"><![CDATA[
@font-face { font-family: ifont; src: url("//at.alicdn.com/t/font_1442373896_4754455.eot?#iefix") format("embedded-opentype"), url("//at.alicdn.com/t/font_1442373896_4754455.woff") format("woff"), url("//at.alicdn.com/t/font_1442373896_4754455.ttf") format("truetype"), url("//at.alicdn.com/t/font_1442373896_4754455.svg#ifont") format("svg"); }

]]></style></defs><g class="transform-group"><g transform="scale(0.125, 0.125)"><path d="M898.099707 168.998082 786.585945 168.998082C774.463601 168.998082 764.753963 178.825415 764.753963 190.947759 764.753963 203.070098 774.463601 212.897431 786.585945 212.897431L898.099707 212.897431 898.099707 950.065201 124.682609 950.065201 124.682609 212.838583 237.902916 212.838583C250.025256 212.838583 259.852591 203.01125 259.852591 190.888911 259.852591 178.766568 250.025256 168.998082 237.902916 168.998082L124.682609 168.998082C100.496774 168.998082 80.842105 188.652749 80.842105 212.838583L80.842105 950.006355C80.842105 974.133343 100.496774 993.788012 124.682609 993.788012L898.158554 993.788012C922.285541 993.788012 941.940208 974.133343 941.940208 950.006355L941.940208 212.838583C941.881366 188.652749 922.226693 168.998082 898.099707 168.998082L898.099707 168.998082 898.099707 168.998082ZM337.353186 214.192053 685.370282 214.192053C697.492626 214.192053 707.319959 204.364719 707.319959 192.301223 707.319959 180.237727 697.492626 170.351546 685.370282 170.351546L618.167793 170.351546C618.462025 167.409233 618.932796 164.466914 618.932796 161.465754 618.932796 102.148673 570.678818 53.894694 511.361735 53.894694 452.103497 53.894694 403.790673 102.148673 403.790673 161.465754 403.790673 164.525762 404.261444 167.409233 404.614522 170.351546L337.353186 170.351546C325.230845 170.351546 315.403511 180.178879 315.403511 192.301223 315.403511 204.423561 325.230845 214.192053 337.353186 214.192053L337.353186 214.192053 337.353186 214.192053ZM447.631177 161.465754C447.631177 126.334507 476.230486 97.735195 511.361735 97.735195 546.55183 97.735195 575.033446 126.334507 575.033446 161.465754 575.033446 164.58461 574.32729 167.409233 573.915366 170.351546L448.86695 170.351546C448.396179 167.409233 447.631177 164.58461 447.631177 161.465754L447.631177 161.465754 447.631177 161.465754ZM291.041137 428.628017 731.800026 428.628017C743.863517 428.628017 753.690856 418.800683 753.690856 406.678345 753.690856 394.556001 743.863517 384.787515 731.800026 384.787515L291.041137 384.787515C278.85995 384.787515 269.091462 394.614849 269.091462 406.678345 269.091462 418.741835 278.85995 428.628017 291.041137 428.628017L291.041137 428.628017 291.041137 428.628017ZM291.041137 617.053913 731.800026 617.053913C743.863517 617.053913 753.690856 607.167732 753.690856 595.104238 753.690856 583.040744 743.863517 573.154563 731.800026 573.154563L291.041137 573.154563C278.85995 573.154563 269.091462 583.040744 269.091462 595.104238 269.091462 607.167732 278.85995 617.053913 291.041137 617.053913L291.041137 617.053913 291.041137 617.053913ZM291.041137 805.420962 731.800026 805.420962C743.863517 805.420962 753.690856 795.534782 753.690856 783.471287 753.690856 771.407793 743.863517 761.521612 731.800026 761.521612L291.041137 761.521612C278.85995 761.521612 269.091462 771.407793 269.091462 783.471287 269.091462 795.534782 278.85995 805.420962 291.041137 805.420962L291.041137 805.420962 291.041137 805.420962Z" fill="#fff"></path></g></g></svg>