<?xml version="1.0" standalone="no"?><!DOCTYPE svg PUBLIC "-//W3C//DTD SVG 1.1//EN" "http://www.w3.org/Graphics/SVG/1.1/DTD/svg11.dtd"><svg width="128" height="128" viewBox="0 0 128 128" version="1.1" xmlns="http://www.w3.org/2000/svg" xmlns:xlink="http://www.w3.org/1999/xlink"><defs><style type="text/css"><![CDATA[
@font-face { font-family: ifont; src: url("//at.alicdn.com/t/font_1442373896_4754455.eot?#iefix") format("embedded-opentype"), url("//at.alicdn.com/t/font_1442373896_4754455.woff") format("woff"), url("//at.alicdn.com/t/font_1442373896_4754455.ttf") format("truetype"), url("//at.alicdn.com/t/font_1442373896_4754455.svg#ifont") format("svg"); }

]]></style></defs><g class="transform-group"><g transform="scale(0.125, 0.125)"><path d="M512 0C229.229985 0 0 229.228089 0 512c0 282.768119 229.229985 512 512 512 282.771911 0 512-229.231881 512-512C1024 229.228089 794.770015 0 512 0zM512 986.074074c-261.82163 0-474.074074-212.250548-474.074074-474.074074S250.176474 37.925926 512 37.925926c261.823526 0 474.074074 212.250548 474.074074 474.074074S773.82163 986.074074 512 986.074074zM312.888889 407.703704m-66.37037 0a35 35 0 1 0 132.740741 0 35 35 0 1 0-132.740741 0ZM711.111111 407.703704m-66.37037 0a35 35 0 1 0 132.740741 0 35 35 0 1 0-132.740741 0ZM272.090074 625.777778C297.773511 734.498133 395.43277 815.407407 512 815.407407s214.226489-80.909274 239.909926-189.62963L272.090074 625.777778z" fill="#fff"></path></g></g></svg>