<?xml version="1.0" standalone="no"?><!DOCTYPE svg PUBLIC "-//W3C//DTD SVG 1.1//EN" "http://www.w3.org/Graphics/SVG/1.1/DTD/svg11.dtd"><svg width="128" height="128" viewBox="0 0 128 128" version="1.1" xmlns="http://www.w3.org/2000/svg" xmlns:xlink="http://www.w3.org/1999/xlink"><defs><style type="text/css"><![CDATA[
@font-face { font-family: ifont; src: url("//at.alicdn.com/t/font_1442373896_4754455.eot?#iefix") format("embedded-opentype"), url("//at.alicdn.com/t/font_1442373896_4754455.woff") format("woff"), url("//at.alicdn.com/t/font_1442373896_4754455.ttf") format("truetype"), url("//at.alicdn.com/t/font_1442373896_4754455.svg#ifont") format("svg"); }

]]></style></defs><g class="transform-group"><g transform="scale(0.125, 0.125)"><path d="M965.964212 1021.953388c32.04074 0 58.014298-25.922393 58.014298-57.898665L1023.978511 57.898665c0-31.976272-25.973558-57.898665-58.014298-57.898665L58.035788 0c-32.04074 0-58.014298 25.922393-58.014298 57.898665l0 906.157081c0 31.976272 25.973558 57.898665 58.014298 57.898665M247.304456 980.081745 101.704356 980.081745c-29.030174 0-52.564169-23.486924-52.564169-52.459792L49.140187 719.65441l198.164269 0L247.304456 980.081745zM247.304456 669.612691 49.140187 669.612691 49.140187 439.85282l198.164269 0L247.304456 669.612691zM247.304456 390.834406 49.140187 390.834406 49.140187 168.747285l198.164269 0L247.304456 390.834406zM489.313302 980.081745 299.493072 980.081745 299.493072 719.65441l189.82023 0L489.313302 980.081745zM489.313302 669.612691 299.493072 669.612691 299.493072 439.85282l189.82023 0L489.313302 669.612691zM489.313302 390.834406 299.493072 390.834406 299.493072 168.747285l189.82023 0L489.313302 390.834406zM541.501918 980.081745 541.501918 719.65441l189.82023 0 0 260.427334M731.322148 669.612691 541.501918 669.612691 541.501918 439.85282l189.82023 0L731.322148 669.612691zM731.322148 390.834406 541.501918 390.834406 541.501918 168.747285l189.82023 0L731.322148 390.834406zM976.910519 927.621952c0 28.972868-23.533996 52.459792-52.564169 52.459792L783.510764 980.081745 783.510764 719.65441l193.399755 0L976.910519 927.621952zM976.910519 669.612691 783.510764 669.612691 783.510764 439.85282l193.399755 0L976.910519 669.612691zM976.910519 390.834406 783.510764 390.834406 783.510764 168.747285l193.399755 0L976.910519 390.834406z" fill="#fff"></path></g></g></svg>