<?xml version="1.0" standalone="no"?><!DOCTYPE svg PUBLIC "-//W3C//DTD SVG 1.1//EN" "http://www.w3.org/Graphics/SVG/1.1/DTD/svg11.dtd"><svg width="128" height="128" viewBox="0 0 128 128" version="1.1" xmlns="http://www.w3.org/2000/svg" xmlns:xlink="http://www.w3.org/1999/xlink"><defs><style type="text/css"><![CDATA[
@font-face { font-family: ifont; src: url("//at.alicdn.com/t/font_1442373896_4754455.eot?#iefix") format("embedded-opentype"), url("//at.alicdn.com/t/font_1442373896_4754455.woff") format("woff"), url("//at.alicdn.com/t/font_1442373896_4754455.ttf") format("truetype"), url("//at.alicdn.com/t/font_1442373896_4754455.svg#ifont") format("svg"); }

]]></style></defs><g class="transform-group"><g transform="scale(0.125, 0.125)"><path d="M512.002558 509.837754M512.002558 509.837754M512.000512 643.283022c77.679174 0 158.291143-149.111063 218.675418-109.337197 103.833857 68.442812 164.005284 194.356546 164.005284 328.011592 0 18.718317-3.985778 53.888328-3.985778 53.888328L133.084553 915.845745c0 0-3.76372-35.597753-3.76372-53.888328 0-132.132366 62.142316-259.249509 164.005284-328.011592C354.346889 492.731144 432.772053 643.283022 512.000512 643.283022zM512.002558 105.992009c122.760928 0 222.291782 99.506295 222.291782 222.267223 0 122.785487-99.530854 222.292805-222.291782 222.292805-122.815163 0-222.294852-99.507318-222.294852-222.292805C289.706683 205.498304 389.187395 105.992009 512.002558 105.992009z" fill="#eb4f38"></path></g></g></svg>