<?xml version="1.0" standalone="no"?><!DOCTYPE svg PUBLIC "-//W3C//DTD SVG 1.1//EN" "http://www.w3.org/Graphics/SVG/1.1/DTD/svg11.dtd"><svg width="128" height="128" viewBox="0 0 128 128" version="1.1" xmlns="http://www.w3.org/2000/svg" xmlns:xlink="http://www.w3.org/1999/xlink"><defs><style type="text/css"><![CDATA[
@font-face { font-family: ifont; src: url("//at.alicdn.com/t/font_1442373896_4754455.eot?#iefix") format("embedded-opentype"), url("//at.alicdn.com/t/font_1442373896_4754455.woff") format("woff"), url("//at.alicdn.com/t/font_1442373896_4754455.ttf") format("truetype"), url("//at.alicdn.com/t/font_1442373896_4754455.svg#ifont") format("svg"); }

]]></style></defs><g class="transform-group"><g transform="scale(0.125, 0.125)"><path d="M736.110197 878.728382M921.426857 448.879404M165.788907 202.566532m-57.296961 0a55.992 55.992 0 1 0 114.593921 0 55.992 55.992 0 1 0-114.593921 0ZM880.730992 233.265718l-548.492122 0c-16.954137 0-30.699186-13.745049-30.699186-30.699186s13.745049-30.699186 30.699186-30.699186l548.492122 0c16.954137 0 30.699186 13.745049 30.699186 30.699186S897.685129 233.265718 880.730992 233.265718zM165.788907 463.733717m-57.296961 0a55.992 55.992 0 1 0 114.593921 0 55.992 55.992 0 1 0-114.593921 0ZM880.730992 494.432902l-548.492122 0c-16.954137 0-30.699186-13.745049-30.699186-30.699186s13.745049-30.699186 30.699186-30.699186l548.492122 0c16.954137 0 30.699186 13.745049 30.699186 30.699186S897.685129 494.432902 880.730992 494.432902zM159.316495 721.769584m-57.296961 0a55.992 55.992 0 1 0 114.593921 0 55.992 55.992 0 1 0-114.593921 0ZM874.258581 752.46877l-548.492122 0c-16.954137 0-30.699186-13.745049-30.699186-30.699186s13.745049-30.699186 30.699186-30.699186l548.492122 0c16.954137 0 30.699186 13.745049 30.699186 30.699186S891.212718 752.46877 874.258581 752.46877z" fill="#fff"></path></g></g></svg>